<svg width="60" height="60" viewBox="0 0 60 60" fill="none" xmlns="http://www.w3.org/2000/svg">
<path d="M48.0001 18.9998L53.819 20.4628L55.2817 14.6438" stroke="#034899" stroke-width="2" stroke-linecap="round" stroke-linejoin="round"/>
<path d="M53.9824 39.5874C51.677 44.9291 47.5177 49.3364 42.2134 52.0584C36.9091 54.7804 30.7879 55.6487 24.8928 54.5153C18.9976 53.3819 13.6934 50.317 9.88369 45.8427C6.07403 41.3685 3.9947 35.7618 4.00001 29.9779C4.00532 24.1941 6.09492 18.5909 9.91279 14.1231C13.7307 9.65539 19.0406 6.59948 24.9377 5.47611C30.8349 4.35274 36.9546 5.23141 42.2539 7.96241C47.5532 10.6934 51.7043 15.1078 54 20.4533" stroke="#034899" stroke-width="2" stroke-linecap="round"/>
<path d="M19.7704 37.7995H17.4391V26.0782L14 27.3015V25.246L19.4717 23.1504H19.7704V37.7995Z" fill="#E6330F"/>
<path d="M33.7868 31.6531C33.7868 33.752 33.4079 35.3362 32.6501 36.4057C31.8987 37.4686 30.7523 38 29.211 38C27.6954 38 26.5522 37.482 25.7815 36.4459C25.0173 35.4031 24.6255 33.8623 24.6063 31.8235V29.2968C24.6063 27.1979 24.982 25.6237 25.7334 24.5742C26.4912 23.5247 27.644 23 29.1917 23C30.7266 23 31.8698 23.5114 32.6212 24.5341C33.379 25.5568 33.7676 27.0876 33.7868 29.1263V31.6531ZM31.4459 28.9258C31.4459 27.5555 31.2661 26.5528 30.9065 25.9178C30.5468 25.2761 29.9752 24.9552 29.1917 24.9552C28.4275 24.9552 27.8655 25.2594 27.5059 25.8676C27.1463 26.4693 26.9568 27.4118 26.9375 28.6952V32.004C26.9375 33.3676 27.1206 34.3837 27.4866 35.0521C27.8527 35.7206 28.4275 36.0548 29.211 36.0548C29.9624 36.0548 30.5179 35.7473 30.8776 35.1324C31.2372 34.5107 31.4267 33.5414 31.4459 32.2246V28.9258Z" fill="#E6330F"/>
<path d="M45 31.6531C45 33.752 44.6211 35.3362 43.8633 36.4057C43.1119 37.4686 41.9655 38 40.4242 38C38.9085 38 37.7654 37.482 36.9947 36.4459C36.2305 35.4031 35.8387 33.8623 35.8195 31.8235V29.2968C35.8195 27.1979 36.1952 25.6237 36.9466 24.5742C37.7044 23.5247 38.8572 23 40.4049 23C41.9398 23 43.083 23.5114 43.8344 24.5341C44.5922 25.5568 44.9807 27.0876 45 29.1263V31.6531ZM42.6591 28.9258C42.6591 27.5555 42.4793 26.5528 42.1196 25.9178C41.76 25.2761 41.1884 24.9552 40.4049 24.9552C39.6407 24.9552 39.0787 25.2594 38.7191 25.8676C38.3594 26.4693 38.17 27.4118 38.1507 28.6952V32.004C38.1507 33.3676 38.3337 34.3837 38.6998 35.0521C39.0659 35.7206 39.6407 36.0548 40.4242 36.0548C41.1756 36.0548 41.7311 35.7473 42.0907 35.1324C42.4504 34.5107 42.6398 33.5414 42.6591 32.2246V28.9258Z" fill="#E6330F"/>
</svg>
