<svg width="60" height="60" viewBox="0 0 60 60" fill="none" xmlns="http://www.w3.org/2000/svg">
<path d="M0.909142 9H6.09094C8.45461 9 10.3637 10.9 10.3637 13.2524V43.7428C10.3637 44.5571 11 45.1904 11.8182 45.1904H59.0909C59.6364 45.1904 60 45.5523 60 46.0952C60 46.6381 59.6364 47 59.0909 47H11.7272C9.90902 47 8.45449 45.5524 8.45449 43.7429V13.1619C8.45449 11.8048 7.36359 10.7191 6 10.7191H0.909142C0.363632 10.7191 0 10.3572 0 9.81431C0 9.3619 0.363632 9 0.909142 9Z" fill="#034899"/>
<path d="M10.1736 52.1679H11.7984C12.7011 50.3199 14.6869 49 16.9435 49C19.2001 49 21.186 50.3199 22.0886 52.1679H46.0089C46.9116 50.3199 48.8974 49 51.154 49C53.4107 49 55.3063 50.3199 56.2088 52.1679H59.0973C59.6389 52.1679 60 52.5199 60 53.048C60 53.576 59.6389 53.928 59.0973 53.928H56.6602C56.6602 54.1041 56.6602 54.28 56.6602 54.456C56.6602 57.5361 54.1328 60 50.9734 60C47.8141 60 45.2867 57.5361 45.2867 54.456C45.2867 54.28 45.2867 54.1041 45.2867 53.928H22.3594C22.3594 54.1041 22.3594 54.28 22.3594 54.456C22.3594 57.5359 19.832 60 16.6726 60C13.6036 60 10.9859 57.5361 10.9859 54.456C10.9859 54.28 10.9859 54.1041 10.9859 53.928H9.9027C9.36106 53.928 9 53.576 9 53.048C9.27088 52.6078 9.72223 52.1679 10.1736 52.1679ZM51.0637 58.2398C53.1398 58.2398 54.9452 56.5679 54.9452 54.4558C54.9452 52.4319 53.2302 50.6718 51.0637 50.6718C48.9877 50.6718 47.1823 52.3438 47.1823 54.4558C47.2726 56.5678 48.9877 58.2398 51.0637 58.2398ZM16.9435 58.2398C19.0196 58.2398 20.825 56.5679 20.825 54.4558C20.825 52.4319 19.11 50.6718 16.9435 50.6718C14.8674 50.6718 13.062 52.3438 13.062 54.4558C13.1523 56.5678 14.8673 58.2398 16.9435 58.2398Z" fill="#034899"/>
<path d="M37.9093 26C44.8821 26 47.2041 26 47.8806 26C48.0676 26 48.1293 26 48.128 26C48.8354 26 51.3433 26 59.0909 26C59.6364 26 60 26.3556 60 26.8889C60 34.3556 60 37.5556 60 45.1111C60 45.6444 59.6364 46 59.0909 46H37.9091C37.3636 46 37 45.6444 37 45.1111C37 37.4667 37 34.3555 37 26.8889C37.0001 26.3556 37.3637 26 37.9093 26ZM50.3637 27.7778H46.5456V32.1333L47.8183 30.8C48.0002 30.6222 48.2729 30.5334 48.4546 30.5334C48.7273 30.5334 48.9092 30.6223 49.091 30.8L50.3637 32.1333V27.7778ZM58.1818 27.7778H52.2728V30.1777H58.1818V27.7778ZM38.9092 44.1333H58.1818V31.9556H52.2728V34.3555C52.2728 34.7111 52.091 35.0666 51.7273 35.1555C51.3637 35.3334 51.0001 35.2444 50.7274 34.9777L48.5456 32.7555L46.3638 34.9777C46.0911 35.2443 45.7275 35.3332 45.3638 35.1555C45.0002 34.9778 44.8183 34.7111 44.8183 34.3555V31.9556H38.9093V44.1333H38.9092ZM38.8183 30.1778H44.7274V27.7779H38.8184V30.1778H38.8183Z" fill="#034899"/>
<path d="M11.909 26C12.897 26 13.6521 26 14.2214 26C15.3833 26 15.7693 26 15.7673 26C17.948 26 22.8638 26 33.0909 26C33.6364 26 34 26.3556 34 26.8889C34 34.3556 34 37.5556 34 45.1111C34 45.6444 33.6364 46 33.0909 46H11.9091C11.3636 46 11 45.6444 11 45.1111C11 37.4667 11 34.3555 11 26.8889C10.9999 26.3556 11.3635 26 11.909 26ZM24.3635 27.7778H20.5453V32.1333L21.818 30.8C21.9999 30.6222 22.2726 30.5334 22.4544 30.5334C22.727 30.5334 22.9089 30.6223 23.0907 30.8L24.3635 32.1333V27.7778ZM32.1816 27.7778H26.2726V30.1777H32.1816V27.7778ZM12.909 44.1333H32.1816V31.9556H26.2726V34.3555C26.2726 34.7111 26.0907 35.0666 25.7272 35.1555C25.3635 35.3334 24.9999 35.2444 24.7272 34.9777L22.5454 32.7555L20.3636 34.9777C20.0909 35.2443 19.7273 35.3332 19.3637 35.1555C19 34.9777 18.8182 34.7111 18.8182 34.3555V31.9556H12.9091V44.1333H12.909ZM12.818 30.1778H18.7271V27.7779H12.818V30.1778Z" fill="#034899"/>
<path d="M24.9091 5C47.5454 5 26.6364 5 46.0909 5C46.6364 5 47 5.35744 47 5.89366C47 13.1319 47 17.8681 47 25.1063C47 25.6426 46.6364 26 46.0909 26H24.9091C24.3636 26 24 25.6426 24 25.1063C24 17.8681 24 13.0426 24 5.89366C24 5.35744 24.3638 5 24.9091 5ZM37.4546 6.78721H33.5454V11.5233L34.8182 10.183C35.0001 10.0042 35.2728 9.91491 35.4545 9.91491C35.7272 9.91491 36 10.0043 36.0909 10.183L37.4546 11.5233V6.78721ZM45.1817 6.78721H39.2727V9.46807H45.1817V6.78721ZM25.9091 24.2127H45.1817V11.2553H39.2727V13.8468C39.2727 14.2042 39 14.5616 38.7272 14.651C38.3636 14.7404 37.9999 14.651 37.7273 14.383L35.5455 12.0596L33.3637 14.383C33.091 14.651 32.7274 14.7404 32.3637 14.651C32.0001 14.5616 31.8182 14.2042 31.8182 13.8468V11.2553H25.9092V24.2127H25.9091ZM25.8183 9.46807H31.7273V6.78721H25.8183V9.46807Z" fill="#034899"/>
<path d="M20.1803 42H14.8195C14.3668 42 14 42.4476 14 43C14 43.5524 14.3668 44 14.8195 44H20.1805C20.6332 44 21 43.5524 21 43C21 42.4476 20.6331 42 20.1803 42Z" fill="#E6330F"/>
<path fill-rule="evenodd" clip-rule="evenodd" d="M19 41.0743V37H16V42L19 41.0743Z" fill="#F44336"/>
<path fill-rule="evenodd" clip-rule="evenodd" d="M18.0246 39.259C18.0246 39.259 17.8768 39.259 17.5915 39.259C17.3063 39.259 16.8873 39.503 16.8873 40.0813C16.8873 40.5542 17.2148 40.7289 17.5387 40.7289C17.7218 40.7289 18.0246 40.4578 18.0246 40.1355V39.259ZM19 40.9066H18.0246V40.6867C17.8592 40.8163 17.5106 41 17.1197 41C16.7324 41 16 40.7651 16 40.0723C16 39.3825 16.9366 39.0392 17.4789 39.0392C18.0211 39.0392 18.0246 39.0392 18.0246 39.0392C18.0246 38.7861 18.0246 38.7259 18.0246 38.5482C18.0246 38.3735 17.8768 38.2169 17.6127 38.2169C17.3451 38.2169 17.0211 38.3675 17.0211 38.753H16.243C16.243 38.497 16.4472 38 17.6197 38C18.7958 38 18.919 38.4518 18.919 38.6536C18.919 38.8584 18.919 40.5301 18.919 40.6265C18.919 40.7922 19 40.9066 19 40.9066Z" fill="white"/>
<path d="M45.1803 42H39.8195C39.3668 42 39 42.4476 39 43C39 43.5524 39.3668 44 39.8195 44H45.1805C45.6332 44 46 43.5524 46 43C46 42.4476 45.6331 42 45.1803 42Z" fill="#E6330F"/>
<path fill-rule="evenodd" clip-rule="evenodd" d="M44 41.0743V37H41V42L44 41.0743Z" fill="#F44336"/>
<path fill-rule="evenodd" clip-rule="evenodd" d="M43.0246 39.259C43.0246 39.259 42.8768 39.259 42.5915 39.259C42.3063 39.259 41.8873 39.503 41.8873 40.0813C41.8873 40.5542 42.2148 40.7289 42.5387 40.7289C42.7218 40.7289 43.0246 40.4578 43.0246 40.1355V39.259ZM44 40.9066H43.0246V40.6867C42.8592 40.8163 42.5106 41 42.1197 41C41.7324 41 41 40.7651 41 40.0723C41 39.3825 41.9366 39.0392 42.4789 39.0392C43.0211 39.0392 43.0246 39.0392 43.0246 39.0392C43.0246 38.7861 43.0246 38.7259 43.0246 38.5482C43.0246 38.3735 42.8768 38.2169 42.6127 38.2169C42.3451 38.2169 42.0211 38.3675 42.0211 38.753H41.243C41.243 38.497 41.4472 38 42.6197 38C43.7958 38 43.919 38.4518 43.919 38.6536C43.919 38.8584 43.919 40.5301 43.919 40.6265C43.919 40.7922 44 40.9066 44 40.9066Z" fill="white"/>
<path d="M32.1803 22H26.8195C26.3668 22 26 22.4476 26 23C26 23.5524 26.3668 24 26.8195 24H32.1805C32.6332 24 33 23.5524 33 23C33 22.4476 32.6331 22 32.1803 22Z" fill="#E6330F"/>
<path fill-rule="evenodd" clip-rule="evenodd" d="M31 21.0743V17H28V22L31 21.0743Z" fill="#F44336"/>
<path fill-rule="evenodd" clip-rule="evenodd" d="M30.0246 19.259C30.0246 19.259 29.8768 19.259 29.5915 19.259C29.3063 19.259 28.8873 19.503 28.8873 20.0813C28.8873 20.5542 29.2148 20.7289 29.5387 20.7289C29.7218 20.7289 30.0246 20.4578 30.0246 20.1355V19.259ZM31 20.9066H30.0246V20.6867C29.8592 20.8163 29.5106 21 29.1197 21C28.7324 21 28 20.7651 28 20.0723C28 19.3825 28.9366 19.0392 29.4789 19.0392C30.0211 19.0392 30.0246 19.0392 30.0246 19.0392C30.0246 18.7861 30.0246 18.7259 30.0246 18.5482C30.0246 18.3735 29.8768 18.2169 29.6127 18.2169C29.3451 18.2169 29.0211 18.3675 29.0211 18.753H28.243C28.243 18.497 28.4472 18 29.6197 18C30.7958 18 30.919 18.4518 30.919 18.6536C30.919 18.8584 30.919 20.5301 30.919 20.6265C30.919 20.7922 31 20.9066 31 20.9066Z" fill="white"/>
</svg>
