<svg width="60" height="60" viewBox="0 0 60 60" fill="none" xmlns="http://www.w3.org/2000/svg">
<path d="M15.8897 19H40.1103C40.6017 19 41 18.5524 41 18C41 17.4476 40.6017 17 40.1103 17H15.8897C15.3983 17 15 17.4476 15 18C15 18.5524 15.3983 19 15.8897 19Z" fill="#034899"/>
<path d="M15.8897 25H40.1103C40.6017 25 41 24.5524 41 24C41 23.4476 40.6017 23 40.1103 23H15.8897C15.3983 23 15 23.4476 15 24C15 24.5524 15.3983 25 15.8897 25Z" fill="#034899"/>
<path d="M15.8812 31H29.1188C29.6054 31 30 30.5524 30 30C30 29.4476 29.6054 29 29.1188 29H15.8812C15.3946 29 15 29.4476 15 30C15 30.5524 15.3946 31 15.8812 31Z" fill="#034899"/>
<path d="M26 35C26 34.4476 25.5895 34 25.0833 34H15.9167C15.4105 34 15 34.4476 15 35C15 35.5524 15.4105 36 15.9167 36H25.0833C25.5895 36 26 35.5523 26 35Z" fill="#034899"/>
<path d="M54.6639 39.9745C54.3569 38.9089 53.9252 37.8821 53.3772 36.9138C54.074 35.6965 53.8793 34.159 52.8642 33.1486L51.6727 31.9631C51.417 31.7087 51.1277 31.5063 50.8184 31.3566V9.38998C50.8184 7.07061 48.9222 5.18355 46.5914 5.18355C45.968 5.18355 32.5676 5.18355 31.903 5.18355V4.47187C31.903 2.00601 29.8872 0 27.4092 0C24.9312 0 22.9154 2.00601 22.9154 4.47187V5.18355C22.2451 5.18355 8.84216 5.18355 8.22697 5.18355C5.89621 5.18355 4 7.07061 4 9.38998V55.7937C4 58.1131 5.89621 60 8.22697 60H46.5913C48.6548 60 50.4034 58.4879 50.7534 56.5191C51.0869 56.3668 51.3992 56.1561 51.6725 55.8842L52.8641 54.6984C53.8792 53.6883 54.0738 52.1508 53.377 50.9336C53.925 49.9654 54.3567 48.9387 54.6638 47.8729C55.9834 47.6815 57 46.5481 57 45.1828V42.6647C57.0001 41.2993 55.9835 40.1658 54.6639 39.9745ZM23.1075 6.94135C23.9756 6.94135 24.6819 6.23858 24.6819 5.37468V4.47187C24.6819 2.97527 25.9054 1.75781 27.4093 1.75781C28.9133 1.75781 30.1367 2.97538 30.1367 4.47187V5.37468C30.1367 6.23858 30.843 6.94135 31.7112 6.94135H36.2509V10.4808C36.2509 10.6531 36.1101 10.7933 35.9369 10.7933H18.8818C18.7085 10.7933 18.5677 10.6531 18.5677 10.4808V6.94135H23.1075ZM5.76656 55.7936V9.38998C5.76656 8.03987 6.87035 6.94135 8.22709 6.94135H9.27459V51.8761C9.27459 53.3286 10.462 54.5102 11.9217 54.5102H24.9252C25.413 54.5102 25.8085 54.1168 25.8085 53.6313C25.8085 53.1458 25.413 52.7524 24.9252 52.7524H11.9215C11.4359 52.7524 11.0409 52.3594 11.0409 51.8761V6.94135H16.8013V10.4808C16.8013 11.6223 17.7345 12.5511 18.8818 12.5511H35.9367C37.084 12.5511 38.0173 11.6223 38.0173 10.4808V6.94135H43.7776V26.2495C43.7776 26.735 44.1731 27.1284 44.6608 27.1284C45.1486 27.1284 45.5441 26.735 45.5441 26.2495V6.94135H46.5916C47.9483 6.94135 49.0521 8.03975 49.0521 9.38998V31.068C48.6509 31.1184 48.2555 31.2449 47.8892 31.4526C46.9163 30.9073 45.8845 30.4777 44.8133 30.1721C44.6211 28.859 43.4821 27.8473 42.1101 27.8473H39.5796C38.2077 27.8473 37.0687 28.859 36.8764 30.1721C35.8052 30.4777 34.7733 30.9073 33.8005 31.4526C32.5774 30.7593 31.0323 30.9529 30.0171 31.9631L28.8254 33.1488C27.8103 34.159 27.6156 35.6965 28.3124 36.9138C27.7644 37.8821 27.3327 38.9089 27.0257 39.9745C25.7061 40.1658 24.6895 41.2993 24.6895 42.6645V45.1826C24.6895 46.5478 25.7061 47.6813 27.0257 47.8726C27.3327 48.9382 27.7643 49.965 28.3124 50.9333C27.6156 52.1504 27.8103 53.6881 28.8254 54.6983L30.0169 55.8839C31.0321 56.8942 32.5771 57.0881 33.8004 56.3944C34.7735 56.9398 35.8053 57.3694 36.8763 57.675C36.9051 57.872 36.9575 58.0609 37.0266 58.242H8.22709C6.87035 58.2421 5.76656 57.1437 5.76656 55.7936ZM46.5914 58.2421H44.663C44.732 58.0611 44.7845 57.8721 44.8133 57.6751C45.8843 57.3696 46.9161 56.94 47.8892 56.3946C48.1945 56.5677 48.52 56.6855 48.8522 56.7491C48.4742 57.6236 47.5977 58.2421 46.5914 58.2421ZM55.2337 45.1827C55.2337 45.7124 54.8005 46.1433 54.2683 46.1433C53.6948 46.1433 53.1934 46.5307 53.0491 47.085C52.7544 48.2147 52.301 49.2982 51.7015 50.3057C51.4471 50.7333 51.4715 51.2734 51.7637 51.6812C52.1576 52.2313 52.0951 52.9776 51.6149 53.4554L50.4234 54.641C49.9443 55.118 49.1935 55.1811 48.6406 54.7892C48.2308 54.4985 47.6883 54.4742 47.2582 54.7274C46.2458 55.3239 45.1569 55.7749 44.0217 56.0681C43.4645 56.2122 43.0753 56.711 43.0753 57.2815C43.0753 57.8112 42.6423 58.2421 42.11 58.2421H39.5795C39.0472 58.2421 38.6142 57.8111 38.6142 57.2815C38.6142 56.7111 38.225 56.2122 37.6677 56.0681C36.5326 55.7749 35.4437 55.3238 34.431 54.7272C34.0025 54.4749 33.4597 54.4977 33.0489 54.7892C32.4961 55.1813 31.7462 55.119 31.266 54.641L30.0745 53.4554C29.5943 52.9776 29.5319 52.2314 29.9257 51.6812C30.218 51.2732 30.2423 50.7332 29.9878 50.3057C29.3884 49.2982 28.9351 48.2147 28.6405 47.0851C28.4959 46.5306 27.9945 46.1433 27.4212 46.1433C26.8889 46.1433 26.4559 45.7123 26.4559 45.1827V42.6646C26.4559 42.1349 26.889 41.704 27.4213 41.704C27.9945 41.704 28.4959 41.3167 28.6405 40.7622C28.9352 39.6325 29.3886 38.549 29.9878 37.5418C30.2425 37.1141 30.2181 36.5742 29.9259 36.1661C29.5319 35.6159 29.5945 34.8698 30.0746 34.3919L31.2663 33.2062C31.7464 32.7283 32.4962 32.6662 33.0494 33.0585C33.4594 33.3488 34.0018 33.3732 34.4315 33.1199C35.4436 32.5235 36.5324 32.0724 37.6679 31.7792C38.2251 31.6352 38.6143 31.1363 38.6143 30.5658C38.6143 30.0362 39.0473 29.6053 39.5796 29.6053H42.1101C42.6424 29.6053 43.0754 30.0363 43.0754 30.5658C43.0754 31.1362 43.4646 31.6352 44.0219 31.7792C45.1573 32.0724 46.2462 32.5236 47.2586 33.1202C47.688 33.3729 48.2305 33.3489 48.6407 33.0582C48.9603 32.8317 49.3455 32.7578 49.7066 32.8272C49.7339 32.8345 49.7617 32.8404 49.7901 32.8451C50.0229 32.905 50.2425 33.026 50.4237 33.2062L51.6151 34.3917C52.0953 34.8695 52.1578 35.6157 51.7639 36.166C51.4716 36.574 51.4473 37.114 51.7017 37.5415C52.3012 38.5489 52.7545 39.6325 53.0492 40.762C53.1937 41.3165 53.6951 41.7039 54.2685 41.7039C54.8008 41.7039 55.2338 42.1349 55.2338 42.6645V45.1827H55.2337Z" fill="#034899"/>
<path d="M40.4098 33C35.486 33 31.25 36.3121 30.1087 41.0545C29.9953 41.5253 30.2884 41.9981 30.7633 42.1105C31.238 42.2229 31.715 41.9324 31.8284 41.4614C32.779 37.5115 36.3078 34.753 40.4098 34.753C45.2743 34.753 49.2318 38.6768 49.2318 43.5C49.2318 48.3232 45.2743 52.247 40.4098 52.247C36.1991 52.247 32.5579 49.2785 31.7518 45.1884C31.6582 44.7132 31.1935 44.403 30.7146 44.4963C30.2355 44.5891 29.9229 45.0494 30.0166 45.5246C30.9845 50.4356 35.3557 54 40.4099 54C46.2494 54 51 49.2897 51 43.5C51 37.7103 46.2492 33 40.4098 33Z" fill="#034899"/>
<path d="M42.2692 47.1113H39.861V49H38.488V47.1113H37V46.0261H38.488V45.0852H37V44.0069H38.488V39H42.3482C43.4696 39 44.3586 39.2724 45.0152 39.8173C45.6717 40.3622 46 41.0994 46 42.0288C46 43.0041 45.6837 43.7573 45.0511 44.2885C44.4233 44.815 43.5296 45.0806 42.3698 45.0852H39.861V46.0261H42.2692V47.1113ZM39.861 44.0069H42.3482C43.0911 44.0069 43.6565 43.8397 44.0447 43.5055C44.4329 43.1712 44.627 42.6836 44.627 42.0426C44.627 41.4611 44.4257 40.9918 44.0232 40.6346C43.6206 40.2729 43.0767 40.0897 42.3914 40.0852H39.861V44.0069Z" fill="#E6330F"/>
<path d="M27 5C27.5523 5 28 4.55228 28 4C28 3.44772 27.5523 3 27 3C26.4477 3 26 3.44772 26 4C26 4.55228 26.4477 5 27 5Z" fill="#034899"/>
</svg>
