<svg width="60" height="60" viewBox="0 0 60 60" fill="none" xmlns="http://www.w3.org/2000/svg">
<path d="M57.129 36.5392H51.5161V33.7316C51.5161 32.1837 50.257 30.924 48.7097 30.924H39.3548C38.5485 30.924 37.8253 31.2712 37.3127 31.8178L27.1935 30.1313V27.786C29.985 26.1651 31.871 23.1488 31.871 19.6936H32.8065C34.3537 19.6936 35.6129 18.4339 35.6129 16.886C35.6129 15.3381 34.3537 14.0784 32.8065 14.0784H32.3574L32.8701 12.8889C33.8317 10.6606 33.6596 8.087 32.4117 6.00563C31.6203 4.68606 30.4631 3.65193 29.0636 3.01554L26.4526 1.82605C23.3702 0.422252 19.5918 0.833098 16.8817 2.86486L15.4065 3.97106L15.4083 3.97387C13.949 4.35476 12.6608 5.29437 11.8694 6.61394C10.8394 8.33219 10.759 10.4276 11.6542 12.2198L12.5832 14.0784H12.2258C10.6785 14.0784 9.41935 15.3381 9.41935 16.886C9.41935 18.4339 10.6785 19.6936 12.2258 19.6936H13.1613C13.1613 23.1488 15.0472 26.1651 17.8387 27.786V30.1313L6.47165 32.0265C3.30129 32.5552 1 35.272 1 38.4886V58.0641C1 58.5817 1.4191 59 1.93548 59H30.9355H31.871H57.129C58.1609 59 59 58.1605 59 57.1283V38.4109C59 37.3787 58.1609 36.5392 57.129 36.5392ZM49.6452 33.7316V36.5392H43.7217C43.2203 34.9379 42.1257 33.6071 40.6916 32.7957H48.7097C49.2251 32.7957 49.6452 33.215 49.6452 33.7316ZM38.4194 33.9141C39.8927 34.2164 41.1079 35.2065 41.7216 36.5392H38.4194V33.9141ZM33.7419 16.886C33.7419 17.4017 33.3219 17.8219 32.8065 17.8219H31.871V15.9501H32.8065C33.3219 15.9501 33.7419 16.3704 33.7419 16.886ZM13.4737 7.57695C14.1847 6.39214 15.485 5.65562 16.8658 5.65562C18.3326 5.65562 19.6938 6.38466 20.5086 7.60503L20.8023 8.04582L22.359 7.00794L22.0652 6.56715C21.2214 5.30186 19.9632 4.41279 18.5366 4.01785C20.6545 2.70389 23.3983 2.49052 25.6771 3.52839L28.2881 4.71788C29.3405 5.19704 30.2114 5.97475 30.8073 6.9677C31.7465 8.53341 31.8756 10.4697 31.1525 12.1468L31.0898 12.2928L29.9018 9.91568C29.7774 9.66768 29.55 9.48705 29.2797 9.42342C29.0103 9.35884 28.7259 9.41967 28.5032 9.58532L27.0065 10.7084C25.7192 11.6751 24.1242 12.2067 22.5161 12.2067C20.908 12.2067 19.313 11.6751 18.0258 10.7093L16.529 9.58626C16.3064 9.41874 16.0211 9.35884 15.7526 9.42435C15.4822 9.48799 15.2549 9.66861 15.1305 9.91662L13.8629 12.4537L13.3278 11.3831C12.7197 10.1665 12.774 8.74304 13.4737 7.57695ZM12.2258 17.8219C11.7104 17.8219 11.2903 17.4017 11.2903 16.886C11.2903 16.3704 11.7104 15.9501 12.2258 15.9501H13.1613V17.8219H12.2258ZM15.0323 19.6936V14.2993L16.3026 11.7565L16.9032 12.2067C18.5123 13.4139 20.5058 14.0784 22.5161 14.0784C24.5265 14.0784 26.52 13.4139 28.129 12.2067L28.7296 11.7565L30 14.2993V19.6936C30 23.8217 26.6425 27.1805 22.5161 27.1805C18.3897 27.1805 15.0323 23.8217 15.0323 19.6936ZM22.5161 29.0523C23.4937 29.0523 24.4357 28.9007 25.3226 28.6208V30.5366L22.5161 33.3442L19.7097 30.5366V28.6208C20.5965 28.9007 21.5385 29.0523 22.5161 29.0523ZM22.214 39.3468H22.8183L24.345 43.1651L22.5161 51.0947L20.6873 43.1651L22.214 39.3468ZM24.2898 35.4658L22.9511 37.4751H22.0811L20.7415 35.4658L21.054 34.529L21.8547 35.3301C22.0372 35.5116 22.2766 35.6033 22.5161 35.6033C22.7556 35.6033 22.9951 35.5116 23.1775 35.3291L23.9783 34.528L24.2898 35.4658ZM12.2258 57.1283V41.2185H10.3548V57.1283H2.87097V38.4886C2.87097 36.192 4.51461 34.2501 6.77942 33.872L18.4533 31.9263L19.575 33.0484L18.8219 35.3076C18.7302 35.5818 18.7705 35.8822 18.9314 36.1227L20.5292 38.5204L18.8406 42.7431C18.7695 42.9199 18.7555 43.1146 18.7976 43.3008L21.604 55.4671C21.7023 55.892 22.0802 56.1924 22.5161 56.1924C22.9521 56.1924 23.33 55.892 23.4282 55.4671L26.2347 43.3008C26.2768 43.1155 26.2627 42.9209 26.1916 42.7431L24.5031 38.5204L26.1009 36.1227C26.2609 35.8822 26.3011 35.5818 26.2104 35.3076L25.4573 33.0484L26.5789 31.9263L36.5624 33.5903C36.5605 33.638 36.5484 33.6829 36.5484 33.7316V36.5392H30.9355C29.9036 36.5392 29.0645 37.3787 29.0645 38.4109V57.1283H12.2258ZM31.871 57.1283H30.9355V55.2565H57.13V57.1283H31.871ZM57.13 53.3848H30.9355V45.794C32.1254 47.0116 33.7812 47.7696 35.6129 47.7696H41.2258V48.7055C41.2258 50.2534 42.485 51.5131 44.0323 51.5131C45.5795 51.5131 46.8387 50.2534 46.8387 48.7055V47.7696H52.4516C54.2833 47.7696 55.94 47.0106 57.13 45.794V53.3848ZM43.0968 48.7055V44.0261H44.9677V48.7055C44.9677 49.2221 44.5477 49.6413 44.0323 49.6413C43.5168 49.6413 43.0968 49.2221 43.0968 48.7055ZM57.129 41.2185C57.129 43.7987 55.0307 45.8979 52.4516 45.8979H46.8387V43.0903C46.8387 42.5727 46.4196 42.1544 45.9032 42.1544H42.1613C41.6449 42.1544 41.2258 42.5727 41.2258 43.0903V45.8979H35.6129C33.0338 45.8979 30.9355 43.7987 30.9355 41.2185V38.4109H57.129V41.2185Z" fill="#034899"/>
<path fill-rule="evenodd" clip-rule="evenodd" d="M54 44.0743V40H51V45L54 44.0743Z" fill="#F44336"/>
<path fill-rule="evenodd" clip-rule="evenodd" d="M53.0246 42.259C53.0246 42.259 52.8768 42.259 52.5915 42.259C52.3063 42.259 51.8873 42.503 51.8873 43.0813C51.8873 43.5542 52.2148 43.7289 52.5387 43.7289C52.7218 43.7289 53.0246 43.4578 53.0246 43.1355V42.259ZM54 43.9066H53.0246V43.6867C52.8592 43.8163 52.5106 44 52.1197 44C51.7324 44 51 43.7651 51 43.0723C51 42.3825 51.9366 42.0392 52.4789 42.0392C53.0211 42.0392 53.0246 42.0392 53.0246 42.0392C53.0246 41.7861 53.0246 41.7259 53.0246 41.5482C53.0246 41.3735 52.8768 41.2169 52.6127 41.2169C52.3451 41.2169 52.0211 41.3675 52.0211 41.753H51.243C51.243 41.497 51.4472 41 52.6197 41C53.7958 41 53.919 41.4518 53.919 41.6536C53.919 41.8584 53.919 43.5301 53.919 43.6265C53.919 43.7922 54 43.9066 54 43.9066Z" fill="white"/>
</svg>
