<svg width="60" height="60" viewBox="0 0 60 60" fill="none" xmlns="http://www.w3.org/2000/svg">
<path d="M29 25C30.1046 25 31 24.1046 31 23C31 21.8954 30.1046 21 29 21C27.8954 21 27 21.8954 27 23C27 24.1046 27.8954 25 29 25Z" fill="#034899"/>
<path d="M40 25C41.1046 25 42 24.1046 42 23C42 21.8954 41.1046 21 40 21C38.8954 21 38 21.8954 38 23C38 24.1046 38.8954 25 40 25Z" fill="#034899"/>
<path d="M51.3396 42.2033L42.1613 39.5643V36.3408C44.5339 34.5127 46.5522 31.9693 47.3766 29.0667H50.1129C50.981 29.0657 51.8132 28.7212 52.427 28.1088C53.0409 27.4964 53.3861 26.6661 53.3871 25.8V20.2C53.3861 19.3339 53.0409 18.5036 52.427 17.8912C51.8132 17.2788 50.981 16.9343 50.1129 16.9333H47.7742V15.0667C47.7742 11.6012 46.3944 8.27761 43.9382 5.82714C41.4821 3.37666 38.1509 2 34.6774 2C31.2039 2 27.8727 3.37666 25.4166 5.82714C22.9605 8.27761 21.5806 11.6012 21.5806 15.0667V16.9333H19.2419C18.3739 16.9343 17.5416 17.2788 16.9278 17.8912C16.314 18.5036 15.9687 19.3339 15.9677 20.2V25.8C15.9687 26.6661 16.314 27.4964 16.9278 28.1088C17.5416 28.7212 18.3739 29.0657 19.2419 29.0667H19.7097V32.8C19.7097 33.0475 19.8082 33.2849 19.9837 33.46C20.1591 33.635 20.3971 33.7333 20.6452 33.7333H24.4935C25.2922 34.7012 26.1979 35.576 27.1935 36.3408V39.5643L25.3226 40.1022V37.9333C25.322 37.3147 25.0754 36.7215 24.6369 36.2841C24.1984 35.8466 23.6039 35.6006 22.9839 35.6H3.33871C2.71864 35.6006 2.12414 35.8466 1.68568 36.2841C1.24722 36.7215 1.00062 37.3147 1 37.9333V51.9333C1.00062 52.552 1.24722 53.1451 1.68568 53.5826C2.12414 54.02 2.71864 54.266 3.33871 54.2667H8.14944L7.73315 56.1333H2.06021C1.81211 56.1333 1.57417 56.2317 1.39873 56.4067C1.22329 56.5817 1.12473 56.8191 1.12473 57.0667C1.12473 57.3142 1.22329 57.5516 1.39873 57.7266C1.57417 57.9017 1.81211 58 2.06021 58H58.0645C58.3126 58 58.5506 57.9017 58.726 57.7266C58.9014 57.5516 59 57.3142 59 57.0667V52.1282C58.9992 49.8625 58.2475 47.6607 56.862 45.8656C55.4765 44.0705 53.5349 42.7829 51.3396 42.2033ZM50.5806 18.8817C50.8538 18.9783 51.0904 19.1568 51.2579 19.3929C51.4254 19.6289 51.5156 19.9108 51.5161 20.2V25.8C51.5156 26.0892 51.4254 26.3711 51.2579 26.6071C51.0904 26.8432 50.8538 27.0217 50.5806 27.1183V18.8817ZM47.7742 18.8H48.7097V27.2H47.7742V18.8ZM18.7742 27.1183C18.501 27.0217 18.2644 26.8432 18.097 26.6071C17.9295 26.3711 17.8393 26.0892 17.8387 25.8V20.2C17.8393 19.9108 17.9295 19.6289 18.097 19.3929C18.2644 19.1568 18.501 18.9783 18.7742 18.8817V27.1183ZM43.8077 41.9805L39.95 49.2967L36.1695 47.4487L41.538 41.3283L43.8077 41.9805ZM34.6774 46.3158L29.0645 39.9155V37.595C30.9799 38.701 32.9772 39.3333 34.6774 39.3333C36.3777 39.3333 38.3749 38.701 40.2903 37.595V39.9155L34.6774 46.3158ZM23.4516 15.0667C23.4516 12.0962 24.6343 9.24748 26.7396 7.14707C28.8448 5.04666 31.7001 3.86667 34.6774 3.86667C37.6547 3.86667 40.51 5.04666 42.6153 7.14707C44.7205 9.24748 45.9032 12.0962 45.9032 15.0667V18.2528C43.9247 17.6033 42.2233 16.3074 41.0738 14.5743C40.9393 14.3761 40.7337 14.2368 40.4994 14.1854C40.265 14.1339 40.0199 14.1742 39.8144 14.2978C39.7442 14.341 32.8871 18.4115 23.4516 18.6705V15.0667ZM20.6452 18.8H21.5806V27.2H20.6452V18.8ZM21.5806 31.8667V29.0667H21.9782C22.2611 30.0472 22.6674 30.988 23.1873 31.8667H21.5806ZM27.0193 33.7333H31.0969C31.2907 34.2788 31.649 34.7511 32.1226 35.0853C32.5962 35.4195 33.1618 35.5993 33.7419 35.6H35.6129C36.3572 35.6 37.071 35.305 37.5974 34.7799C38.1237 34.2548 38.4194 33.5426 38.4194 32.8C38.4194 32.0574 38.1237 31.3452 37.5974 30.8201C37.071 30.295 36.3572 30 35.6129 30H33.7419C33.1618 30.0007 32.5962 30.1805 32.1226 30.5147C31.649 30.8489 31.2907 31.3212 31.0969 31.8667H25.3951C23.7498 29.5707 23.4516 27.4765 23.4516 26.2667V20.5372C31.6675 20.3272 37.9317 17.421 40.0307 16.3138C41.5086 18.2147 43.5722 19.5778 45.9032 20.193V26.2667C45.9032 27.8708 45.3817 31.0267 41.8877 34.151C39.6355 36.1647 36.8045 37.4667 34.6774 37.4667C32.5504 37.4667 29.7194 36.1647 27.4672 34.151C27.3117 34.0122 27.1631 33.8722 27.0193 33.7333ZM32.8065 32.8C32.8068 32.5526 32.9055 32.3154 33.0808 32.1404C33.2562 31.9655 33.4939 31.867 33.7419 31.8667H35.6129C35.861 31.8667 36.099 31.965 36.2744 32.14C36.4498 32.3151 36.5484 32.5525 36.5484 32.8C36.5484 33.0475 36.4498 33.2849 36.2744 33.46C36.099 33.635 35.861 33.7333 35.6129 33.7333H33.7419C33.4939 33.733 33.2562 33.6346 33.0808 33.4596C32.9055 33.2846 32.8068 33.0474 32.8065 32.8ZM27.8168 41.3283L33.176 47.4393L29.4656 49.2897L25.6032 41.9642L27.8168 41.3283ZM9.64972 56.1333L10.2321 53.5223V53.5212L11.1056 49.6H15.217L16.0905 53.5212V53.5223L16.6729 56.1333H9.64972ZM17.758 52.4L16.881 48.4637C16.8348 48.2564 16.7192 48.071 16.5531 47.9382C16.3871 47.8055 16.1806 47.7332 15.9677 47.7333H10.3548C10.142 47.7332 9.93552 47.8055 9.76946 47.9382C9.6034 48.071 9.48774 48.2564 9.44157 48.4637L8.56456 52.4H3.33871C3.21466 52.4 3.09569 52.3508 3.00797 52.2633C2.92025 52.1758 2.87097 52.0571 2.87097 51.9333V37.9333C2.87097 37.8096 2.92025 37.6909 3.00797 37.6034C3.09569 37.5158 3.21466 37.4667 3.33871 37.4667H22.9839C23.1079 37.4667 23.2269 37.5158 23.3146 37.6034C23.4023 37.6909 23.4516 37.8096 23.4516 37.9333V51.9333C23.4516 52.0571 23.4023 52.1758 23.3146 52.2633C23.2269 52.3508 23.1079 52.4 22.9839 52.4H17.758ZM31.1963 56.1333H18.5894L18.1731 54.2667H22.9839C23.6039 54.266 24.1984 54.02 24.6369 53.5826C25.0754 53.1451 25.322 52.552 25.3226 51.9333V45.442L28.2366 50.9673C28.3506 51.1835 28.5449 51.3465 28.7779 51.4215C29.0109 51.4965 29.264 51.4775 29.4831 51.3687L30.1427 51.0385L31.7961 54.3378L31.1963 56.1333ZM33.169 56.1333L33.4812 55.2H35.9006L36.2514 56.1333H33.169ZM35.9707 53.3333H33.3841L31.816 50.2043L34.6552 48.788L37.5412 50.1973L35.9707 53.3333ZM57.129 56.1333H52.4516V53.3333C52.4516 53.0858 52.3531 52.8484 52.1776 52.6734C52.0022 52.4983 51.7642 52.4 51.5161 52.4C51.268 52.4 51.0301 52.4983 50.8546 52.6734C50.6792 52.8484 50.5806 53.0858 50.5806 53.3333V56.1333H38.2486L37.5681 54.3203L39.2215 51.0187L39.943 51.371C40.0706 51.4341 40.2111 51.4668 40.3535 51.4667C40.5242 51.4668 40.6917 51.4204 40.8378 51.3324C40.9839 51.2444 41.1032 51.1181 41.1825 50.9673L45.6436 42.5078L50.8321 44C50.8392 44.0014 50.8462 44.0033 50.8531 44.0058C52.6511 44.4787 54.2417 45.5318 55.377 47.0011C56.5122 48.4703 57.1282 50.273 57.129 52.1282V56.1333Z" fill="#034899"/>
<path d="M3 56H2C1.73478 56 1.48043 56.1054 1.29289 56.2929C1.10536 56.4804 1 56.7348 1 57C1 57.2652 1.10536 57.5196 1.29289 57.7071C1.48043 57.8946 1.73478 58 2 58H3C3.26522 58 3.51957 57.8946 3.70711 57.7071C3.89464 57.5196 4 57.2652 4 57C4 56.7348 3.89464 56.4804 3.70711 56.2929C3.51957 56.1054 3.26522 56 3 56Z" fill="#034899"/>
<path fill-rule="evenodd" clip-rule="evenodd" d="M9 44.704V39H4V46L9 44.704Z" fill="#F44336"/>
<path fill-rule="evenodd" clip-rule="evenodd" d="M6.69953 41.6787C6.69953 41.6787 6.50234 41.6787 6.12207 41.6787C5.74178 41.6787 5.18309 42.004 5.18309 42.7751C5.18309 43.4056 5.61971 43.6386 6.05164 43.6386C6.29577 43.6386 6.69953 43.2771 6.69953 42.8474V41.6787ZM8 43.8755H6.69953V43.5823C6.47887 43.755 6.01409 44 5.49296 44C4.97653 44 4 43.6867 4 42.7631C4 41.8434 5.24883 41.3855 5.97183 41.3855C6.69483 41.3855 6.69953 41.3855 6.69953 41.3855C6.69953 41.0482 6.69953 40.9679 6.69953 40.7309C6.69953 40.498 6.50234 40.2892 6.15023 40.2892C5.79343 40.2892 5.3615 40.49 5.3615 41.004H4.32394C4.32394 40.6627 4.59624 40 6.15962 40C7.7277 40 7.89201 40.6024 7.89201 40.8715C7.89201 41.1446 7.89201 43.3735 7.89201 43.502C7.89201 43.7229 8 43.8755 8 43.8755Z" fill="white"/>
</svg>
