<svg width="60" height="60" viewBox="0 0 60 60" fill="none" xmlns="http://www.w3.org/2000/svg">
<path d="M53.0714 22.7143C52.8252 22.7143 52.589 22.8121 52.4148 22.9863C52.2407 23.1604 52.1429 23.3966 52.1429 23.6429V34.7857C52.1429 35.5245 51.8494 36.2331 51.3269 36.7555C50.8045 37.2779 50.096 37.5714 49.3571 37.5714H28V32.9286C28 31.6972 27.5108 30.5163 26.6401 29.6456C25.7694 28.7749 24.5885 28.2857 23.3571 28.2857C22.1258 28.2857 20.9449 28.7749 20.0741 29.6456C19.2034 30.5163 18.7143 31.6972 18.7143 32.9286V37.5714H6.64286C5.90404 37.5714 5.19548 37.2779 4.67306 36.7555C4.15064 36.2331 3.85714 35.5245 3.85714 34.7857V10.6429C3.85714 9.90404 4.15064 9.19548 4.67306 8.67306C5.19548 8.15064 5.90404 7.85714 6.64286 7.85714H36.3571C36.6034 7.85714 36.8396 7.75931 37.0137 7.58517C37.1879 7.41103 37.2857 7.17484 37.2857 6.92857C37.2857 6.6823 37.1879 6.44611 37.0137 6.27197C36.8396 6.09783 36.6034 6 36.3571 6H6.64286C5.41195 6.00147 4.23188 6.4911 3.36149 7.36149C2.4911 8.23188 2.00147 9.41195 2 10.6429V34.7857C2.00147 36.0166 2.4911 37.1967 3.36149 38.0671C4.23188 38.9375 5.41195 39.4271 6.64286 39.4286H8.92807L6.55 44.7874C6.25981 45.4452 6.12558 46.1611 6.1578 46.8794C6.19001 47.5976 6.3878 48.2987 6.73571 48.9279L10.0117 54.8234C10.2396 55.2381 10.3584 55.704 10.3571 56.1772V57.0714C10.3571 57.3177 10.455 57.5539 10.6291 57.728C10.8033 57.9022 11.0394 58 11.2857 58C11.532 58 11.7682 57.9022 11.9423 57.728C12.1165 57.5539 12.2143 57.3177 12.2143 57.0714V56.1772C12.2136 55.3881 12.0126 54.612 11.6302 53.9217L8.35421 48.0262C8.14577 47.6485 8.02735 47.2277 8.00818 46.7967C7.98902 46.3657 8.06962 45.9361 8.24371 45.5414L10.9607 39.4286H18.7143V45.9286C18.7143 46.1748 18.8121 46.411 18.9863 46.5852C19.1604 46.7593 19.3966 46.8571 19.6429 46.8571C19.8891 46.8571 20.1253 46.7593 20.2995 46.5852C20.4736 46.411 20.5714 46.1748 20.5714 45.9286V32.9286C20.5714 32.1898 20.8649 31.4812 21.3873 30.9588C21.9098 30.4364 22.6183 30.1429 23.3571 30.1429C24.096 30.1429 24.8045 30.4364 25.3269 30.9588C25.8494 31.4812 26.1429 32.1898 26.1429 32.9286V57.0714C26.1429 57.3177 26.2407 57.5539 26.4148 57.728C26.589 57.9022 26.8252 58 27.0714 58C27.3177 58 27.5539 57.9022 27.728 57.728C27.9022 57.5539 28 57.3177 28 57.0714V43.57C29.0184 44.4901 30.3418 44.9996 31.7143 45H34.5C34.7463 45 34.9825 44.9022 35.1566 44.728C35.3307 44.5539 35.4286 44.3177 35.4286 44.0714V39.4286H49.3571C50.5881 39.4271 51.7681 38.9375 52.6385 38.0671C53.5089 37.1967 53.9985 36.0166 54 34.7857V23.6429C54 23.3966 53.9022 23.1604 53.728 22.9863C53.5539 22.8121 53.3177 22.7143 53.0714 22.7143ZM33.5714 43.1429H31.7143C30.7292 43.1429 29.7845 42.7515 29.0879 42.055C28.3913 41.3584 28 40.4137 28 39.4286H33.5714V43.1429Z" fill="#034899"/>
<path d="M47.5 2C45.4233 2 43.3932 2.61581 41.6665 3.76957C39.9398 4.92332 38.594 6.5632 37.7993 8.48182C37.0046 10.4004 36.7966 12.5116 37.2018 14.5484C37.6069 16.5852 38.6069 18.4562 40.0754 19.9246C41.5438 21.3931 43.4148 22.3931 45.4516 22.7982C47.4884 23.2034 49.5996 22.9955 51.5182 22.2007C53.4368 21.406 55.0767 20.0602 56.2304 18.3335C57.3842 16.6068 58 14.5767 58 12.5C57.9967 9.71623 56.8894 7.04743 54.921 5.07901C52.9526 3.11059 50.2838 2.00328 47.5 2ZM47.5 21.0909C45.8009 21.0909 44.1399 20.5871 42.7271 19.6431C41.3144 18.6991 40.2133 17.3574 39.563 15.7876C38.9128 14.2178 38.7427 12.4905 39.0742 10.824C39.4056 9.15752 40.2239 7.62677 41.4253 6.42531C42.6268 5.22385 44.1575 4.40564 45.824 4.07416C47.4905 3.74268 49.2178 3.91281 50.7876 4.56303C52.3574 5.21326 53.6991 6.31438 54.6431 7.72715C55.5871 9.13991 56.0909 10.8009 56.0909 12.5C56.0884 14.7777 55.1825 16.9613 53.5719 18.5719C51.9613 20.1825 49.7777 21.0884 47.5 21.0909Z" fill="#034899"/>
<path d="M51.4333 8.26889L45.6339 13.874L43.5443 11.8545C43.3725 11.694 43.1423 11.6052 42.9034 11.6072C42.6644 11.6093 42.4359 11.7019 42.2669 11.8652C42.0979 12.0285 42.0021 12.2494 42 12.4803C41.998 12.7113 42.0898 12.9337 42.2558 13.0998L44.9896 15.7421C45.1605 15.9072 45.3923 16 45.6339 16C45.8755 16 46.1073 15.9072 46.2782 15.7421L52.7218 9.51428C52.8088 9.43303 52.8783 9.33584 52.926 9.22839C52.9738 9.12093 52.9989 9.00536 53 8.88841C53.001 8.77147 52.978 8.65549 52.9321 8.54725C52.8863 8.439 52.8187 8.34067 52.7331 8.25797C52.6475 8.17527 52.5458 8.10987 52.4338 8.06559C52.3218 8.0213 52.2018 7.99902 52.0808 8.00003C51.9598 8.00105 51.8402 8.02535 51.729 8.07151C51.6179 8.11767 51.5173 8.18476 51.4333 8.26889Z" fill="#E6330F"/>
<path d="M19 13.7C19 12.9839 18.7103 12.2972 18.1945 11.7908C17.6788 11.2845 16.9793 11 16.25 11H10.75C10.0207 11 9.32118 11.2845 8.80546 11.7908C8.28973 12.2972 8 12.9839 8 13.7V17.3C8 18.0161 8.28973 18.7028 8.80546 19.2092C9.32118 19.7155 10.0207 20 10.75 20H16.25C16.9793 20 17.6788 19.7155 18.1945 19.2092C18.7103 18.7028 19 18.0161 19 17.3V13.7ZM17.1667 13.7V14.6H15.3333V12.8H16.25C16.4931 12.8 16.7263 12.8948 16.8982 13.0636C17.0701 13.2324 17.1667 13.4613 17.1667 13.7ZM9.83333 17.3V13.7C9.83333 13.4613 9.92991 13.2324 10.1018 13.0636C10.2737 12.8948 10.5069 12.8 10.75 12.8H13.5V18.2H10.75C10.5069 18.2 10.2737 18.1052 10.1018 17.9364C9.92991 17.7676 9.83333 17.5387 9.83333 17.3ZM16.25 18.2H15.3333V16.4H17.1667V17.3C17.1667 17.5387 17.0701 17.7676 16.8982 17.9364C16.7263 18.1052 16.4931 18.2 16.25 18.2Z" fill="#034899"/>
<path d="M26 14H28V18H26V14Z" fill="#034899"/>
<path d="M30 14H32V18H30V14Z" fill="#034899"/>
<path d="M23 14H25V18H23V14Z" fill="#034899"/>
<path d="M34 14H36V18H34V14Z" fill="#034899"/>
<path d="M38.6848 33C39.6969 32.9968 40.6801 32.6757 41.4844 32.0856C42.1794 32.5918 43.0076 32.9016 43.8759 32.9802C44.7442 33.0587 45.6181 32.9029 46.3992 32.5303C47.1803 32.1576 47.8376 31.5829 48.2971 30.8709C48.7565 30.1588 49 29.3377 49 28.5C49 27.6623 48.7565 26.8412 48.2971 26.1291C47.8376 25.4171 47.1803 24.8424 46.3992 24.4697C45.6181 24.0971 44.7442 23.9413 43.8759 24.0198C43.0076 24.0984 42.1794 24.4082 41.4844 24.9144C40.6801 24.3243 39.6969 24.0032 38.6848 24C37.4423 24 36.2507 24.4741 35.3721 25.318C34.4936 26.1619 34 27.3065 34 28.5C34 29.6935 34.4936 30.8381 35.3721 31.682C36.2507 32.5259 37.4423 33 38.6848 33ZM47.1174 28.5C47.1205 28.9911 46.9833 29.4736 46.7206 29.8949C46.458 30.3163 46.08 30.6603 45.6278 30.8896C45.1757 31.1189 44.6667 31.2246 44.1564 31.1952C43.646 31.1658 43.1538 31.0025 42.7334 30.723C43.1498 30.0505 43.3696 29.2825 43.3696 28.5C43.3696 27.7175 43.1498 26.9495 42.7334 26.277C43.1538 25.9975 43.646 25.8342 44.1564 25.8048C44.6667 25.7754 45.1757 25.8811 45.6278 26.1104C46.08 26.3397 46.458 26.6837 46.7206 27.1051C46.9833 27.5264 47.1205 28.0089 47.1174 28.5ZM38.6848 25.8C39.2407 25.8 39.7842 25.9584 40.2464 26.255C40.7087 26.5517 41.069 26.9734 41.2817 27.4668C41.4945 27.9601 41.5501 28.503 41.4417 29.0267C41.3332 29.5505 41.0655 30.0316 40.6724 30.4092C40.2793 30.7868 39.7784 31.0439 39.2332 31.1481C38.6879 31.2523 38.1227 31.1988 37.6091 30.9945C37.0955 30.7901 36.6565 30.4441 36.3476 30C36.0388 29.556 35.8739 29.034 35.8739 28.5C35.8739 27.7839 36.1701 27.0972 36.6972 26.5908C37.2244 26.0845 37.9393 25.8 38.6848 25.8Z" fill="#034899"/>
<path d="M8 32H17V34H8V32Z" fill="#034899"/>
<path d="M8 28H10V30H8V28Z" fill="#034899"/>
<path d="M11 28H13V30H11V28Z" fill="#034899"/>
<path d="M15 28H17V30H15V28Z" fill="#034899"/>
<path d="M29 32H31V34H29V32Z" fill="#034899"/>
<path d="M15 23H19V25H15V23Z" fill="#034899"/>
<path d="M23 23H27V25H23V23Z" fill="#034899"/>
<path d="M30 23H34V25H30V23Z" fill="#034899"/>
</svg>
