<svg width="60" height="60" viewBox="0 0 60 60" fill="none" xmlns="http://www.w3.org/2000/svg">
<path d="M53.249 17.4716H48.3059V13.6021L51.2637 14.8373C51.495 14.9339 51.7349 14.9796 51.971 14.9796C52.6941 14.9794 53.382 14.551 53.6769 13.8414L54.422 12.0493C54.6116 11.5932 54.6127 11.0904 54.4249 10.6335C54.2372 10.1767 53.8833 9.82043 53.4283 9.63047L30.7053 0.141333C30.2541 -0.0471111 29.7366 -0.0471111 29.2856 0.141333L13.9787 6.53356C13.5317 6.72024 13.3203 7.23483 13.5066 7.68297C13.6929 8.131 14.2063 8.34288 14.6534 8.15619L29.9604 1.76397C29.9826 1.75471 30.0084 1.75471 30.0308 1.76397L52.7539 11.2532C52.777 11.2629 52.7938 11.2797 52.8032 11.3029C52.8128 11.3262 52.8128 11.3498 52.8031 11.3731L52.0579 13.1653C52.0483 13.1885 52.0316 13.2052 52.0083 13.2148C51.9851 13.2245 51.9615 13.2244 51.9383 13.2147L30.7053 4.3477C30.2541 4.15925 29.7366 4.15925 29.2856 4.3477L8.05281 13.2147C8.02954 13.2244 8.00592 13.2244 7.98265 13.2148C7.95938 13.2052 7.94266 13.1885 7.93295 13.1652L7.18788 11.3731C7.17818 11.3498 7.17818 11.3262 7.18765 11.3028C7.19724 11.2795 7.21384 11.2627 7.23711 11.253L14.6534 8.15619C15.1004 7.96951 15.3118 7.45492 15.1256 7.00678C14.9393 6.55875 14.426 6.34664 13.9787 6.53356L6.56267 9.63047C6.10758 9.82043 5.75364 10.1767 5.56597 10.6336C5.3783 11.0904 5.37935 11.5932 5.56889 12.0493L6.31396 13.8414C6.70544 14.7828 7.78796 15.2295 8.72737 14.8374L11.6851 13.6022V17.4716H6.75104C4.13126 17.4716 2 19.6078 2 22.2334V51.3654C2 53.9911 4.13126 56.1271 6.75104 56.1271L18.1635 56.1272C18.6478 56.1272 19.0405 55.7337 19.0405 55.2483C19.0405 54.7629 18.6478 54.3694 18.1635 54.3694L6.75104 54.3692C5.09837 54.3692 3.75393 53.0216 3.75393 51.3654V22.2335C3.75393 20.5771 5.09837 19.2296 6.75104 19.2296H53.249C54.9016 19.2296 56.2461 20.5772 56.2461 22.2335V51.3655C56.2461 53.0219 54.9015 54.3694 53.249 54.3694H48.3059V52.2444H48.3885C49.2534 52.2444 50.0119 51.6296 50.192 50.7823C50.4482 49.5766 51.4666 48.5565 52.6686 48.3016C53.5131 48.1227 54.1259 47.3626 54.1259 46.4944V27.1046C54.1259 26.2364 53.513 25.4763 52.6686 25.2974C51.4666 25.0425 50.4482 24.0223 50.192 22.8165C50.0119 21.9694 49.2534 21.3546 48.3885 21.3546H11.6115C10.7466 21.3546 9.98809 21.9694 9.80802 22.8165C9.55183 24.0223 8.53338 25.0424 7.33136 25.2972C6.4869 25.4763 5.87408 26.2364 5.87408 27.1046V46.4944C5.87408 47.3626 6.48702 48.1227 7.33136 48.3016C8.53338 48.5565 9.55183 49.5767 9.80802 50.7825C9.98809 51.6296 10.7466 52.2444 11.6115 52.2444H34.9296V54.3694H18.1635C17.6792 54.3694 17.2865 54.7629 17.2865 55.2483C17.2865 55.7337 17.6792 56.1272 18.1635 56.1272H34.9296V58.1508C34.9296 58.7438 35.2161 59.3046 35.6961 59.6513C36.0138 59.8808 36.3935 59.9999 36.7766 59.9999C36.9724 59.9999 37.1689 59.9689 37.3587 59.9055L41.5887 58.4923C41.6077 58.4858 41.6277 58.4858 41.6467 58.4923L45.8767 59.9054C46.438 60.0931 47.0595 59.998 47.5395 59.6513C48.0194 59.3046 48.3059 58.7436 48.3059 58.1508V56.1272H53.249C55.8687 56.1272 58 53.9911 58 51.3655V22.2335C58 19.6078 55.8687 17.4716 53.249 17.4716ZM13.439 12.8698L29.9603 5.97033C29.9825 5.96108 30.0082 5.96108 30.0307 5.97033L46.5519 12.8698V17.4718H13.439V12.8698ZM41.6177 48.5364C37.8289 48.5364 34.7465 45.4471 34.7465 41.6497C34.7465 37.8524 37.8289 34.7631 41.6177 34.7631C45.4066 34.7631 48.4889 37.8524 48.4889 41.6497C48.4889 45.4471 45.4066 48.5364 41.6177 48.5364ZM11.6115 50.4866C11.5692 50.4866 11.5321 50.4569 11.5235 50.4161C11.1211 48.5231 9.58235 46.9822 7.69442 46.5818C7.65595 46.5736 7.628 46.5368 7.628 46.4943V27.1046C7.628 27.062 7.65595 27.0252 7.69442 27.017C9.58235 26.6167 11.1211 25.0758 11.5235 23.1828C11.5321 23.142 11.5692 23.1123 11.6115 23.1123H48.3884C48.4307 23.1123 48.4678 23.142 48.4764 23.1826C48.8788 25.0756 50.4175 26.6166 52.3055 27.0169C52.3439 27.0251 52.3719 27.0619 52.3719 27.1045V46.4943C52.3719 46.5368 52.3439 46.5736 52.3055 46.5818C50.4175 46.9822 48.8788 48.5231 48.4764 50.4161C48.4678 50.4569 48.4307 50.4866 48.3884 50.4866H48.3058V49.8736C48.3058 49.4382 48.203 49.002 48.0087 48.6123L47.6254 47.8439C49.2382 46.2722 50.2428 44.0769 50.2428 41.6497C50.2428 36.9129 46.4215 33.0556 41.7065 33.0074C41.6772 33.0045 41.6477 33.003 41.6177 33.003H12.5532C12.0688 33.003 11.6762 33.3965 11.6762 33.8819C11.6762 34.3673 12.0688 34.7608 12.5532 34.7608H36.4148C35.6385 35.3512 34.9651 36.0702 34.4255 36.8857H12.5532C12.0688 36.8857 11.6762 37.2793 11.6762 37.7647C11.6762 38.2501 12.0688 38.6436 12.5532 38.6436H33.5314C33.2815 39.3167 33.1122 40.0288 33.0372 40.7685H18.3643C17.8799 40.7685 17.4873 41.1621 17.4873 41.6475C17.4873 42.1329 17.8799 42.5264 18.3643 42.5264H33.0368C33.2465 44.6033 34.1939 46.4638 35.6101 47.8439L35.2268 48.6122C35.0324 49.0017 34.9296 49.4379 34.9296 49.8735V50.4864L11.6115 50.4866ZM36.804 58.2379C36.7931 58.2415 36.7597 58.2529 36.7216 58.2252C36.6836 58.1978 36.6836 58.1624 36.6836 58.1508V49.8735C36.6836 49.7095 36.7223 49.5452 36.7955 49.3983L37.0162 48.9557C37.5726 49.3089 38.1714 49.5998 38.8037 49.8191V57.5696L36.804 58.2379ZM41.0341 56.8246L40.5577 56.9838V50.2265C40.9054 50.2694 41.2586 50.2941 41.6177 50.2941C41.9768 50.2941 42.3301 50.2694 42.6778 50.2265V56.9838L42.2014 56.8246C41.8249 56.699 41.4105 56.699 41.0341 56.8246ZM46.5139 58.2253C46.4759 58.2529 46.4425 58.2417 46.4313 58.2379L44.4316 57.5699V49.8194C45.064 49.6 45.6628 49.309 46.2191 48.9559L46.4399 49.3984C46.5131 49.5453 46.5519 49.7096 46.5519 49.8736V58.1509C46.5519 58.1625 46.5519 58.1978 46.5139 58.2253Z" fill="#034899"/>
<path d="M54.2163 23C54.6491 23 55 22.5523 55 22C55 21.4477 54.6491 21 54.2163 21H53.7837C53.3509 21 53 21.4477 53 22C53 22.5523 53.3509 23 53.7837 23H54.2163Z" fill="#034899"/>
<path d="M6.78366 23H7.21634C7.64913 23 8 22.5523 8 22C8 21.4477 7.64913 21 7.21634 21H6.78366C6.35087 21 6 21.4477 6 22C6 22.5523 6.35087 23 6.78366 23Z" fill="#034899"/>
<path d="M6.78366 50C6.35087 50 6 50.4477 6 51C6 51.5523 6.35087 52 6.78366 52H7.21634C7.64913 52 8 51.5523 8 51C8 50.4477 7.64913 50 7.21634 50H6.78366Z" fill="#034899"/>
<path d="M54.2164 50H53.7836C53.3509 50 53 50.4477 53 51C53 51.5523 53.3509 52 53.7836 52H54.2164C54.6491 52 55 51.5523 55 51C55 50.4477 54.6491 50 54.2164 50Z" fill="#034899"/>
<path d="M42 37C39.2429 37 37 39.2431 37 42C37 44.7569 39.2431 47 42 47C44.7569 47 47 44.7569 47 42C47 39.2431 44.7569 37 42 37ZM42 45.1543C40.2607 45.1543 38.8458 43.7393 38.8458 42.0001C38.8458 40.2609 40.2609 38.846 42 38.846C43.7391 38.846 45.1542 40.261 45.1542 42.0001C45.1542 43.7393 43.7391 45.1543 42 45.1543Z" fill="#034899"/>
<path d="M42.2164 41H41.7836C41.3509 41 41 41.4477 41 42C41 42.5523 41.3509 43 41.7836 43H42.2164C42.6491 43 43 42.5523 43 42C43 41.4477 42.6491 41 42.2164 41Z" fill="#034899"/>
<path d="M19.0636 46H14.9364C14.4193 46 14 46.4477 14 47C14 47.5523 14.4193 48 14.9364 48H19.0636C19.5807 48 20 47.5523 20 47C20 46.4477 19.5807 46 19.0636 46Z" fill="#034899"/>
<path fill-rule="evenodd" clip-rule="evenodd" d="M22 29.8891V25H19V31L22 29.8891Z" fill="#F44336"/>
<path fill-rule="evenodd" clip-rule="evenodd" d="M21.0246 27.259C21.0246 27.259 20.8768 27.259 20.5915 27.259C20.3063 27.259 19.8873 27.503 19.8873 28.0813C19.8873 28.5542 20.2148 28.7289 20.5387 28.7289C20.7218 28.7289 21.0246 28.4578 21.0246 28.1355V27.259ZM22 28.9066H21.0246V28.6867C20.8592 28.8163 20.5106 29 20.1197 29C19.7324 29 19 28.7651 19 28.0723C19 27.3825 19.9366 27.0392 20.4789 27.0392C21.0211 27.0392 21.0246 27.0392 21.0246 27.0392C21.0246 26.7861 21.0246 26.7259 21.0246 26.5482C21.0246 26.3735 20.8768 26.2169 20.6127 26.2169C20.3451 26.2169 20.0211 26.3675 20.0211 26.753H19.243C19.243 26.497 19.4472 26 20.6197 26C21.7958 26 21.919 26.4518 21.919 26.6536C21.919 26.8584 21.919 28.5301 21.919 28.6265C21.919 28.7922 22 28.9066 22 28.9066Z" fill="white"/>
<path fill-rule="evenodd" clip-rule="evenodd" d="M28.5297 27.9359H28.0721V27.8974L28.0792 27.8622L28.0863 27.8301L28.097 27.7981L28.1076 27.766L28.1253 27.7404L28.143 27.7115L28.1643 27.6891L28.1891 27.6667L28.2104 27.6442L28.2388 27.6282L28.2672 27.609L28.2956 27.5962L28.3239 27.5833L28.3594 27.5705L28.3913 27.5609L28.4232 27.5545L28.4587 27.5481L28.4906 27.5449L28.5261 27.5417H28.5297L28.558 27.5449L28.5935 27.5481L28.6254 27.5513L28.6609 27.5577L28.6928 27.5673L28.7247 27.5769L28.7532 27.5897L28.7815 27.6026L28.8134 27.6218L28.8382 27.6378L28.8631 27.6603L28.8844 27.6827L28.9092 27.7083L28.9269 27.734L28.9411 27.7628L28.9553 27.7917L28.966 27.8269L28.9766 27.859L28.9801 27.8974L28.9837 27.9359H28.5297ZM23.9896 26.0064H23V29H23.9896V26.0064ZM37.9929 27.5577L37.9858 27.5288L37.9787 27.4968L37.9681 27.4712L37.961 27.4423L37.9503 27.4167L37.9397 27.391L37.9255 27.3654L37.9149 27.3429L37.9007 27.3205L37.8865 27.2981L37.8688 27.2756L37.851 27.2564L37.8333 27.2404L37.812 27.2212L37.7943 27.2019L37.7729 27.1859L37.7517 27.1699L37.7304 27.1538L37.7056 27.141L37.6843 27.125L37.6595 27.1122L37.6347 27.0994L37.6098 27.0833L37.585 27.0737L37.5566 27.0609L37.5282 27.0513L37.5034 27.0385L37.475 27.0288L37.4467 27.0192L37.4183 27.0096L37.3899 27L37.358 26.9904L37.326 26.984L37.2977 26.9776L37.2658 26.9679L37.2339 26.9615L37.2019 26.9551L37.17 26.9487L37.1381 26.9423L37.1026 26.9391L37.0672 26.9327L37.0352 26.9295L36.9998 26.9231L36.9678 26.9199L36.9324 26.9135L36.8969 26.9103L36.8578 26.9071H36.8224L36.787 26.9038H36.7515L36.7196 26.9006H36.6841H36.645H36.606H36.567H36.528H36.489H36.45L36.4145 26.9038L36.3755 26.9071L36.3365 26.9103H36.2975L36.262 26.9135L36.2265 26.9199L36.1946 26.9231L36.1591 26.9295L36.1272 26.9327L36.0917 26.9391L36.0598 26.9423L36.0243 26.9487L35.9924 26.9551L35.9605 26.9615L35.9321 26.9712L35.9002 26.9776L35.8718 26.984L35.8399 26.9936L35.8115 27.0032L35.7796 27.0128L35.7512 27.0224L35.7228 27.0321L35.698 27.0417L35.6697 27.0545L35.6412 27.0641L35.6165 27.0769L35.588 27.0897L35.5668 27.1026L35.5419 27.1154L35.5171 27.1282L35.4923 27.141L35.4675 27.1571L35.4462 27.1731L35.4249 27.1859L35.4001 27.2019L35.3824 27.2212L35.3611 27.2372L35.3398 27.2532L35.322 27.2692L35.3008 27.2885L35.2795 27.3077L35.2617 27.3237L35.244 27.3462L35.2263 27.3654L35.2121 27.3846L35.1943 27.4071L35.1802 27.4295L35.1624 27.4487L35.1483 27.4744L35.1341 27.4968L35.1234 27.5192L35.1128 27.5481L35.0986 27.5705L35.0915 27.5994L35.0809 27.625L35.0702 27.6538L35.0667 27.6827L35.0596 27.7115L35.056 27.734L35.0525 27.75L35.0489 27.8013H36.1449V27.7564L36.1485 27.7436L36.1555 27.7244L36.1662 27.6987L36.1804 27.6731L36.1946 27.6538L36.2159 27.6346L36.2336 27.6186L36.2584 27.6026L36.2868 27.5929L36.3116 27.5833L36.3436 27.5737L36.3755 27.5641L36.4074 27.5577L36.4429 27.5545H36.4783L36.5174 27.5513L36.5529 27.5545H36.5918L36.6237 27.5609L36.6557 27.5673L36.6877 27.5737L36.716 27.5833L36.7444 27.5929L36.7692 27.6058L36.794 27.6218L36.8118 27.6378L36.8295 27.6603L36.8401 27.6859L36.8472 27.7147V27.7436V27.7756L36.8366 27.8013L36.8224 27.8237L36.8011 27.8397L36.7798 27.8526L36.7515 27.8654L36.7231 27.875L36.6947 27.8846L36.6628 27.891L36.6309 27.8974L36.599 27.9038L36.5635 27.9103L36.5316 27.9135L36.3932 27.9327L36.2549 27.9519L36.1166 27.9679L35.9818 27.9872L35.9463 27.9904L35.9144 27.9968L35.8789 28.0032L35.847 28.0064L35.8151 28.0128L35.7796 28.0192L35.7477 28.0256L35.7158 28.0321L35.6839 28.0385L35.6554 28.0481L35.6235 28.0545L35.5916 28.0609L35.5632 28.0705L35.5313 28.0801L35.503 28.0865L35.4745 28.0962L35.4426 28.1058L35.4143 28.1154L35.3859 28.125L35.3611 28.1378L35.3327 28.1474L35.3044 28.1571L35.2795 28.1699L35.2547 28.1827L35.2298 28.1955L35.205 28.2115L35.1802 28.2244L35.1589 28.2372L35.1376 28.2532L35.1163 28.2724L35.095 28.2885L35.0773 28.3077L35.0596 28.3269L35.0418 28.3462L35.0241 28.3654L35.0099 28.3878L34.9957 28.4135L34.9851 28.4359L34.9709 28.4615L34.9638 28.4872L34.9532 28.516L34.9461 28.5449L34.9389 28.5737L34.9319 28.6058L34.9283 28.6346L34.9248 28.6667V28.6955L34.9283 28.7244L34.9319 28.7532L34.9389 28.7788L34.9496 28.8077L34.9602 28.8301L34.9744 28.8558L34.9886 28.8782L35.0063 28.8974L35.0241 28.9167L35.0454 28.9327L35.0667 28.9487L35.0879 28.9647L35.1128 28.9776L35.1411 28.9872L35.173 28.9936L35.205 28.9968L35.2404 29H36.3116L36.2584 28.9679L36.2478 28.9583L36.2336 28.9423L36.2195 28.9263L36.2017 28.9038L36.1875 28.8846L36.1733 28.859L36.1627 28.8301L36.1555 28.8013V28.7724L36.1627 28.7436L36.1698 28.7147L36.1804 28.6923L36.1946 28.6699L36.2159 28.6506L36.2336 28.6346L36.2549 28.6154L36.2797 28.6026L36.3046 28.5897L36.3294 28.5769L36.3577 28.5673L36.3862 28.5577L36.5067 28.5224L36.6237 28.4872L36.6522 28.4776L36.6841 28.4712L36.7124 28.4615L36.7444 28.4519L36.7727 28.4423L36.794 28.4359L36.8082 28.4327L36.8259 28.4295L36.8578 28.4135V29H38V27.6571V27.625L37.9964 27.5897L37.9929 27.5577ZM26.1 26H24.9508V26.9519H24.4862V27.5962H24.9508V28.4647V28.4936V28.5256V28.5545L24.9544 28.5833L24.9579 28.609L24.9615 28.6346L24.9685 28.6603L24.9756 28.6859L24.9827 28.7083L24.9898 28.7308L25.0005 28.7532L25.0111 28.7756L25.0253 28.7949L25.0359 28.8141L25.0501 28.8301L25.0643 28.8494L25.0821 28.8622L25.0962 28.8782L25.114 28.8942L25.1317 28.9103L25.1494 28.9231L25.1707 28.9327L25.192 28.9455L25.2204 28.9519L25.2452 28.9583L25.27 28.9679L25.2949 28.9744L25.3268 28.9776L25.3552 28.9808L25.3871 28.984L25.4155 28.9872H25.4474L25.4829 28.9904H26.1V27.5962H26.7598V26.9519H26.1V26ZM32.3923 26.9359L32.3639 26.9295L32.339 26.9231L32.3143 26.9167L32.2859 26.9135L32.261 26.9103L32.2327 26.9071L32.2043 26.9038H32.1759H32.1511H32.1227L32.0979 26.9071L32.0695 26.9103L32.0447 26.9135L32.0163 26.9199L31.995 26.9231L31.9702 26.9295L31.9454 26.9359L31.9241 26.9423L31.9028 26.9487L31.878 26.9551L31.8567 26.9647L31.8354 26.9744L31.8141 26.984L31.7928 26.9936L31.7715 27.0064L31.7503 27.016L31.7326 27.0288L31.7113 27.0417L31.6935 27.0545L31.6722 27.0673L31.658 27.0833L31.6403 27.0994L31.6226 27.1122L31.6048 27.1282L31.5906 27.1442L31.5729 27.1603L31.5587 27.1795L31.5446 27.1955V26.9519H30.4876V29H31.651V27.984V27.9551L31.6545 27.9263L31.658 27.9006L31.6652 27.8782L31.6722 27.8526L31.6829 27.8301L31.6935 27.8077L31.7042 27.7885L31.7148 27.7692L31.729 27.75L31.7467 27.734L31.7609 27.7179L31.7787 27.7051L31.7964 27.6891L31.8141 27.6763L31.8354 27.6667L31.8567 27.6538L31.878 27.6442L31.9028 27.6346L31.9276 27.625L31.9525 27.6186L31.9808 27.6122L32.0056 27.6058L32.0376 27.6026L32.066 27.5994L32.0979 27.5962H32.4419V26.9519L32.4171 26.9423L32.3923 26.9359ZM34.712 26.9359L34.6872 26.9295L34.6623 26.9231L34.634 26.9167L34.6091 26.9135L34.5807 26.9103L34.5559 26.9071L34.5275 26.9038H34.4992H34.4743H34.446L34.4176 26.9071L34.3927 26.9103L34.3644 26.9135L34.3395 26.9199L34.3147 26.9231L34.2899 26.9295L34.2686 26.9359L34.2438 26.9423L34.2225 26.9487L34.2012 26.9551L34.1764 26.9647L34.1551 26.9744L34.1338 26.984L34.1125 26.9936L34.0948 27.0064L34.0735 27.016L34.0523 27.0288L34.031 27.0417L34.0132 27.0545L33.9955 27.0673L33.9778 27.0833L33.96 27.0994L33.9423 27.1122L33.9245 27.1282L33.9104 27.1442L33.8962 27.1603L33.8784 27.1795L33.8643 27.1955L33.8678 26.9519H32.8108V29H33.9707V27.984V27.9551L33.9742 27.9263L33.9813 27.9006L33.9884 27.8782L33.9955 27.8526L34.0026 27.8301L34.0132 27.8077L34.0238 27.7885L34.038 27.7692L34.0523 27.75L34.0665 27.734L34.0806 27.7179L34.0984 27.7051L34.1161 27.6891L34.1374 27.6763L34.1586 27.6667L34.1764 27.6538L34.2012 27.6442L34.2225 27.6346L34.2473 27.625L34.2721 27.6186L34.3006 27.6122L34.3289 27.6058L34.3573 27.6026L34.3892 27.5994L34.4176 27.5962H34.7652V26.9519L34.7368 26.9423L34.712 26.9359ZM30.1222 28.1314V28.1026L30.1187 28.0769V28.0513L30.1116 28.0224L30.108 27.9968L30.1045 27.9679L30.0974 27.9391L30.0903 27.9135L30.0868 27.8814L30.0797 27.8526L30.0726 27.8269L30.0655 27.7981L30.0548 27.7692L30.0442 27.7404L30.0336 27.7147L30.0229 27.6859L30.0123 27.6571L30.0017 27.6314L29.9875 27.6026L29.9768 27.5801L29.9626 27.5545L29.9485 27.5321L29.9343 27.5064L29.9201 27.484L29.9024 27.4615L29.8846 27.4391L29.8704 27.4167L29.8527 27.3974L29.8314 27.375L29.8137 27.3558L29.7959 27.3333L29.7746 27.3141L29.7534 27.2949L29.7321 27.2756L29.7108 27.2564L29.6895 27.2404L29.6683 27.2212L29.6434 27.2051L29.6186 27.1891L29.5973 27.1699L29.5724 27.1538L29.5476 27.141L29.5193 27.125L29.498 27.1122L29.4696 27.0994L29.4448 27.0833L29.4164 27.0705L29.3916 27.0577L29.3632 27.0481L29.3349 27.0353L29.31 27.0256L29.2816 27.016L29.2533 27.0064L29.2248 26.9968L29.1965 26.9872L29.1681 26.9808L29.1362 26.9744L29.1078 26.9679L29.0794 26.9615L29.0511 26.9551L29.0192 26.9487L28.9907 26.9455L28.9588 26.9391L28.9269 26.9359L28.895 26.9295L28.8631 26.9231L28.8312 26.9199L28.7993 26.9167L28.7673 26.9135L28.7354 26.9103L28.7035 26.9071L28.6715 26.9038H28.6361L28.6077 26.9006H28.5722H28.5403H28.5297H28.5084H28.4765H28.4445L28.4126 26.9038H28.3807L28.3488 26.9071L28.3169 26.9103L28.2814 26.9135L28.2495 26.9167L28.2176 26.9199L28.1891 26.9231L28.1572 26.9295L28.1217 26.9359L28.0934 26.9423L28.0615 26.9487L28.0296 26.9551L27.9976 26.9615L27.9657 26.9712L27.9338 26.9776L27.9019 26.9872L27.8735 26.9968L27.8415 27.0064L27.8132 27.016L27.7813 27.0256L27.7529 27.0385L27.7209 27.0513L27.6926 27.0641L27.6607 27.0737L27.6323 27.0897L27.604 27.1026L27.5755 27.1154L27.5472 27.1282L27.5188 27.1442L27.4904 27.1603L27.462 27.1731L27.4373 27.1891L27.4088 27.2051L27.384 27.2244L27.3592 27.2404L27.3379 27.2596L27.3166 27.2756L27.2953 27.2949L27.274 27.3141L27.2563 27.3333L27.2351 27.3558L27.2173 27.375L27.196 27.3974L27.1818 27.4167L27.1605 27.4391L27.1464 27.4615L27.1286 27.484L27.1145 27.5064L27.1003 27.5321L27.0861 27.5545L27.0718 27.5801L27.0577 27.6026L27.0471 27.6282L27.0329 27.6506L27.0222 27.6763L27.0116 27.7019L27.001 27.7244L26.9938 27.75L26.9832 27.7756L26.9761 27.8013L26.9691 27.8269L26.9619 27.8526L26.9548 27.8782L26.9513 27.9071L26.9477 27.9327L26.9406 27.9615L26.9371 27.9872L26.9336 28.016V28.0417L26.93 28.0705L26.9264 28.0962V28.125V28.1506V28.1795V28.2083L26.93 28.234L26.9336 28.2628V28.2885L26.9406 28.3173L26.9442 28.3429L26.9477 28.3718L26.9548 28.4006L26.9584 28.4263L26.9691 28.4519L26.9761 28.4776L26.9832 28.5064L26.9938 28.532L27.001 28.5577L27.0116 28.5833L27.0222 28.609L27.0329 28.6346L27.0471 28.6603L27.0577 28.6859L27.0718 28.7115L27.0861 28.734L27.1003 28.7596L27.1145 28.782L27.1286 28.8077L27.1464 28.8301L27.1605 28.8558L27.1818 28.875L27.196 28.8974L27.2173 28.9199L27.2351 28.9423L27.2528 28.9647L27.274 28.9872H28.1005V28.4615H28.5297H30.0903L30.0974 28.4327L30.1045 28.407L30.108 28.3814L30.1116 28.3526L30.1152 28.3237L30.1187 28.2981L30.1222 28.2692V28.2436L30.1258 28.2147V28.1859V28.1603L30.1222 28.1314Z" fill="#034899"/>
<path fill-rule="evenodd" clip-rule="evenodd" d="M37.8429 30.7887V30.6408H37.9929V30.7887H37.8429ZM37.875 30.588L37.8357 30.1937V30.0141H38V30.1937L37.9608 30.588H37.875ZM37.5214 30.5211C37.5035 30.5246 37.4713 30.5317 37.432 30.5422C37.3892 30.5493 37.3641 30.5599 37.3499 30.5669C37.332 30.581 37.3213 30.5986 37.3213 30.6197C37.3213 30.6408 37.3284 30.6585 37.3427 30.6725C37.3606 30.6866 37.3784 30.6972 37.4035 30.6972C37.432 30.6972 37.4571 30.6866 37.482 30.669C37.4999 30.6549 37.5106 30.6408 37.5178 30.6197C37.5214 30.6092 37.5214 30.5845 37.5214 30.5493V30.5211ZM37.3213 30.4014L37.1856 30.3768C37.1998 30.3204 37.2284 30.2817 37.2641 30.2535C37.3034 30.2254 37.357 30.2148 37.432 30.2148C37.4999 30.2148 37.5463 30.2218 37.5821 30.2394C37.6142 30.2535 37.6356 30.2746 37.6499 30.2993C37.6642 30.3204 37.6714 30.3662 37.6714 30.4296L37.6678 30.6021C37.6678 30.6514 37.6714 30.6866 37.675 30.7113C37.6785 30.7359 37.6892 30.7606 37.7035 30.7887H37.5535C37.5499 30.7782 37.5428 30.7641 37.5392 30.743C37.5356 30.7359 37.5356 30.7289 37.532 30.7254C37.5071 30.7535 37.4784 30.7711 37.4535 30.7817C37.4213 30.7958 37.3927 30.8028 37.357 30.8028C37.2999 30.8028 37.2534 30.7852 37.2213 30.7535C37.1891 30.7218 37.1713 30.6831 37.1713 30.6338C37.1713 30.6056 37.1784 30.5739 37.1927 30.5493C37.207 30.5282 37.2284 30.507 37.257 30.493C37.2856 30.4789 37.3249 30.4683 37.3784 30.4613C37.4463 30.4472 37.4963 30.4331 37.5214 30.4225V30.4084C37.5214 30.3803 37.5142 30.3592 37.4999 30.3451C37.4856 30.3345 37.4606 30.3275 37.4213 30.3275C37.3927 30.3275 37.3713 30.3345 37.357 30.3451C37.3427 30.3556 37.332 30.3732 37.3213 30.4014ZM36.6068 30.2254H37.1213V30.3451H36.9391V30.7887H36.789V30.3451H36.6068V30.2254ZM36.0067 30.2254H36.1567V30.4331H36.3746V30.2254H36.5247V30.7887H36.3746V30.5528H36.1567V30.7887H36.0067V30.2254ZM35.4637 30.507C35.4637 30.5634 35.478 30.6056 35.5066 30.6338C35.5315 30.6655 35.5637 30.6796 35.603 30.6796C35.6423 30.6796 35.6745 30.6655 35.703 30.6338C35.7281 30.6056 35.7424 30.5634 35.7424 30.507C35.7424 30.4507 35.7281 30.4084 35.703 30.3803C35.6745 30.3521 35.6423 30.3345 35.603 30.3345C35.5637 30.3345 35.5315 30.3521 35.5066 30.3803C35.478 30.4084 35.4637 30.4542 35.4637 30.507ZM35.3101 30.5C35.3101 30.4507 35.3244 30.4049 35.3458 30.3556C35.3744 30.3099 35.4066 30.2746 35.453 30.2535C35.4958 30.2254 35.5494 30.2148 35.603 30.2148C35.6888 30.2148 35.7602 30.243 35.8138 30.2993C35.8673 30.3521 35.896 30.4225 35.896 30.507C35.896 30.5915 35.8673 30.662 35.8138 30.7183C35.7566 30.7746 35.6888 30.8028 35.603 30.8028C35.553 30.8028 35.503 30.7887 35.4566 30.7676C35.4066 30.743 35.3744 30.7077 35.3458 30.662C35.3244 30.6197 35.3101 30.5634 35.3101 30.5ZM34.5563 30.2254H34.7421L34.8814 30.6162L35.0243 30.2254H35.21V30.7887H35.0815V30.419L34.9457 30.7887H34.8171L34.685 30.419V30.7887H34.5563V30.2254ZM34.2956 30.4613C34.292 30.4155 34.2813 30.3838 34.2598 30.3627C34.2384 30.3415 34.2134 30.3275 34.1849 30.3275C34.1491 30.3275 34.1241 30.3415 34.1026 30.3627C34.0812 30.3873 34.0705 30.419 34.0705 30.4613H34.2956ZM34.2849 30.6092L34.4349 30.6338C34.417 30.6866 34.3849 30.7289 34.3456 30.7606C34.3027 30.7852 34.2527 30.8028 34.1884 30.8028C34.0883 30.8028 34.017 30.7711 33.9705 30.7042C33.9312 30.6549 33.9134 30.588 33.9134 30.5141C33.9134 30.419 33.9383 30.3451 33.9883 30.2923C34.0348 30.2394 34.0991 30.2148 34.1741 30.2148C34.2562 30.2148 34.3241 30.243 34.3741 30.2993C34.4206 30.3521 34.4456 30.4366 34.442 30.5493H34.067C34.067 30.5951 34.0812 30.6268 34.1026 30.6549C34.1277 30.6761 34.1562 30.6901 34.1884 30.6901C34.2134 30.6901 34.2313 30.6831 34.2491 30.669C34.267 30.6585 34.2777 30.6373 34.2849 30.6092ZM33.431 30.5C33.431 30.5599 33.4454 30.6056 33.4704 30.6373C33.4954 30.669 33.5275 30.6831 33.5633 30.6831C33.5989 30.6831 33.6276 30.669 33.6489 30.6408C33.674 30.6127 33.6847 30.5669 33.6847 30.507C33.6847 30.4472 33.6704 30.4014 33.6489 30.3732C33.624 30.3451 33.5954 30.331 33.5597 30.331C33.524 30.331 33.4918 30.3451 33.4704 30.3732C33.4454 30.4014 33.431 30.4437 33.431 30.5ZM33.2846 30.2254H33.4239V30.3099C33.4418 30.2817 33.4668 30.2606 33.4989 30.2394C33.5311 30.2218 33.5633 30.2148 33.6025 30.2148C33.6668 30.2148 33.724 30.2394 33.7704 30.2923C33.8168 30.3415 33.8383 30.412 33.8383 30.5035C33.8383 30.5986 33.8168 30.6725 33.7704 30.7218C33.724 30.7746 33.6668 30.8028 33.6025 30.8028C33.5704 30.8028 33.5418 30.7958 33.5133 30.7817C33.4882 30.7711 33.4633 30.75 33.4346 30.7183V31H33.2846V30.2254ZM32.3094 30.2254H32.4523V30.5775L32.6845 30.2254H32.8309V30.7887H32.6881V30.4296L32.4523 30.7887H32.3094V30.2254ZM31.3341 30.2254H31.477V30.5775L31.7092 30.2254H31.8557V30.7887H31.7128V30.4296L31.477 30.7887H31.3341V30.2254ZM30.784 30.2254H30.934V30.4542C30.9591 30.4542 30.9769 30.4472 30.9876 30.4331C30.9983 30.419 31.0091 30.3944 31.0234 30.3521C31.0412 30.2993 31.0627 30.2641 31.0876 30.2465C31.1091 30.2324 31.1412 30.2218 31.177 30.2218C31.1877 30.2218 31.2091 30.2254 31.2377 30.2254V30.3239C31.1984 30.3239 31.1698 30.3275 31.1627 30.3345C31.1519 30.3415 31.1377 30.3662 31.1234 30.4049C31.1091 30.4542 31.0841 30.4859 31.0483 30.5C31.0983 30.5141 31.1377 30.5528 31.1698 30.6197C31.1698 30.6268 31.1734 30.6268 31.177 30.6338L31.2591 30.7887H31.0983L31.0234 30.6232C31.0091 30.5915 30.9948 30.5704 30.984 30.5599C30.9734 30.5528 30.9555 30.5458 30.934 30.5458V30.7887H30.784V30.2254ZM30.4732 30H30.5446C30.5411 30.0493 30.5233 30.088 30.4946 30.1127C30.4625 30.1408 30.4267 30.1549 30.3803 30.1549C30.3303 30.1549 30.2911 30.1408 30.2624 30.1127C30.2339 30.088 30.216 30.0493 30.2124 30H30.2839C30.2875 30.0246 30.2982 30.0458 30.3124 30.0563C30.3267 30.0704 30.3482 30.0775 30.3803 30.0775C30.4054 30.0775 30.4303 30.0704 30.4446 30.0563C30.459 30.0458 30.4697 30.0246 30.4732 30ZM30.116 30.2254H30.2588V30.5775L30.4875 30.2254H30.6376V30.7887H30.4911V30.4296L30.2588 30.7887H30.116V30.2254ZM29.5694 30.507C29.5694 30.5634 29.5837 30.6056 29.6087 30.6338C29.6373 30.6655 29.6695 30.6796 29.7087 30.6796C29.7481 30.6796 29.7802 30.6655 29.8052 30.6338C29.8338 30.6056 29.8445 30.5634 29.8445 30.507C29.8445 30.4507 29.8338 30.4084 29.8052 30.3803C29.7802 30.3521 29.7481 30.3345 29.7087 30.3345C29.6695 30.3345 29.6373 30.3521 29.6087 30.3803C29.5837 30.4084 29.5694 30.4542 29.5694 30.507ZM29.4159 30.5C29.4159 30.4507 29.4265 30.4049 29.4516 30.3556C29.4766 30.3099 29.5123 30.2746 29.5551 30.2535C29.6016 30.2254 29.6516 30.2148 29.7087 30.2148C29.7945 30.2148 29.8624 30.243 29.9195 30.2993C29.9731 30.3521 30.0017 30.4225 30.0017 30.507C30.0017 30.5915 29.9731 30.662 29.9195 30.7183C29.8624 30.7746 29.7909 30.8028 29.7087 30.8028C29.6551 30.8028 29.6087 30.7887 29.5587 30.7676C29.5123 30.743 29.4766 30.7077 29.4516 30.662C29.4265 30.6197 29.4159 30.5634 29.4159 30.5ZM28.9264 30.5C28.9264 30.5599 28.9371 30.6056 28.9657 30.6373C28.9907 30.669 29.0193 30.6831 29.055 30.6831C29.0907 30.6831 29.1193 30.669 29.1408 30.6408C29.1658 30.6127 29.1765 30.5669 29.1765 30.507C29.1765 30.4472 29.1658 30.4014 29.1408 30.3732C29.1193 30.3451 29.0872 30.331 29.0514 30.331C29.0157 30.331 28.9871 30.3451 28.9622 30.3732C28.9371 30.4014 28.9264 30.4437 28.9264 30.5ZM28.78 30.2254H28.9193V30.3099C28.9371 30.2817 28.9622 30.2606 28.9907 30.2394C29.0229 30.2218 29.0586 30.2148 29.0943 30.2148C29.1622 30.2148 29.2158 30.2394 29.2622 30.2923C29.3087 30.3415 29.3301 30.412 29.3301 30.5035C29.3301 30.5986 29.3087 30.6725 29.2622 30.7218C29.2158 30.7746 29.1586 30.8028 29.0943 30.8028C29.0622 30.8028 29.0336 30.7958 29.0086 30.7817C28.9835 30.7711 28.955 30.75 28.9264 30.7183V31H28.78V30.2254ZM28.1798 30.2254H28.6943V30.3451H28.512V30.7887H28.362V30.3451H28.1798V30.2254ZM28.1334 30.3944L27.9869 30.419C27.9798 30.3908 27.9691 30.3697 27.9512 30.3521C27.9333 30.338 27.9119 30.331 27.8833 30.331C27.8476 30.331 27.8154 30.3451 27.794 30.3697C27.7726 30.3944 27.7618 30.4366 27.7618 30.4965C27.7618 30.5634 27.7726 30.6127 27.794 30.6373C27.8154 30.6655 27.8476 30.6796 27.8869 30.6796C27.9155 30.6796 27.9369 30.6725 27.9548 30.6549C27.9727 30.6408 27.9869 30.6127 27.994 30.5739L28.1405 30.5986C28.1262 30.6655 28.0976 30.7148 28.0512 30.75C28.0119 30.7852 27.9512 30.8028 27.8797 30.8028C27.794 30.8028 27.7297 30.7746 27.6797 30.7218C27.6297 30.6725 27.6047 30.5986 27.6047 30.507C27.6047 30.4155 27.6297 30.3451 27.6797 30.2923C27.7297 30.2394 27.7976 30.2148 27.8833 30.2148C27.9512 30.2148 28.0048 30.2289 28.044 30.2606C28.0869 30.2887 28.1155 30.3345 28.1334 30.3944ZM27.0331 30.3204H26.9259C26.8866 30.3204 26.8581 30.3275 26.8438 30.338C26.8259 30.3486 26.8187 30.3662 26.8187 30.3944C26.8187 30.419 26.8259 30.4401 26.8474 30.4507C26.8652 30.4613 26.8938 30.4683 26.9366 30.4683H27.0331V30.3204ZM27.1832 30.2254V30.7887H27.0331V30.5528H27.0224C26.9866 30.5528 26.9653 30.5599 26.9474 30.5669C26.9331 30.5739 26.9153 30.5951 26.8974 30.6197L26.8902 30.6303L26.7902 30.7887H26.6152L26.7223 30.6232C26.7545 30.5775 26.7795 30.5528 26.8045 30.5458C26.7652 30.5422 26.7295 30.5282 26.7045 30.4965C26.6759 30.4683 26.6616 30.4331 26.6616 30.3873C26.6616 30.3486 26.6723 30.3204 26.6902 30.2923C26.708 30.2676 26.7295 30.25 26.758 30.2394C26.7866 30.2324 26.8331 30.2254 26.8866 30.2254H27.1832ZM26.0436 30.2254H26.5437V30.7887H26.3937V30.3451H26.1901V30.5986C26.1901 30.662 26.1829 30.7077 26.1686 30.7324C26.1543 30.7606 26.1365 30.7782 26.1186 30.7852C26.1007 30.7923 26.0722 30.7958 26.0293 30.7958C26.0079 30.7958 25.9757 30.7923 25.9364 30.7887V30.6796C25.94 30.6796 25.9471 30.6796 25.9614 30.6796C25.9757 30.6796 25.99 30.6796 25.9971 30.6796C26.0186 30.6796 26.0293 30.6725 26.0364 30.662C26.04 30.6479 26.0436 30.6127 26.0436 30.5528V30.2254ZM25.6899 30.6655V30.3486H25.5078C25.5006 30.5035 25.4756 30.6092 25.4327 30.6655H25.6899ZM25.7757 30.7887H25.347V30.9331H25.2255V30.6655H25.2863C25.3113 30.6373 25.3327 30.5951 25.3506 30.5352C25.3684 30.4753 25.3756 30.3732 25.3791 30.2254H25.8364V30.6655H25.8971V30.9331H25.7757V30.7887ZM24.6683 30.1549V30.0246H24.7969V30.1549H24.6683ZM24.4361 30.1549V30.0246H24.5682V30.1549H24.4361ZM24.7326 30.4613C24.7326 30.4155 24.7218 30.3838 24.7004 30.3627C24.679 30.3415 24.654 30.3275 24.6218 30.3275C24.5897 30.3275 24.5611 30.3415 24.5397 30.3627C24.5182 30.3873 24.5075 30.419 24.5075 30.4613H24.7326ZM24.7254 30.6092L24.8755 30.6338C24.854 30.6866 24.8254 30.7289 24.7826 30.7606C24.7397 30.7852 24.6897 30.8028 24.6254 30.8028C24.5289 30.8028 24.4575 30.7711 24.4075 30.7042C24.3718 30.6549 24.3539 30.588 24.3539 30.5141C24.3539 30.419 24.3753 30.3451 24.4253 30.2923C24.4754 30.2394 24.5361 30.2148 24.6111 30.2148C24.6968 30.2148 24.7611 30.243 24.8112 30.2993C24.8612 30.3521 24.8826 30.4366 24.8826 30.5493H24.5075C24.5075 30.5951 24.5182 30.6268 24.5432 30.6549C24.5647 30.6761 24.5932 30.6901 24.629 30.6901C24.654 30.6901 24.6718 30.6831 24.6861 30.669C24.704 30.6585 24.7147 30.6373 24.7254 30.6092ZM24.2824 30.3944L24.1324 30.419C24.1288 30.3908 24.1181 30.3697 24.1003 30.3521C24.0824 30.338 24.061 30.331 24.0324 30.331C23.9931 30.331 23.9645 30.3451 23.9431 30.3697C23.9216 30.3944 23.9074 30.4366 23.9074 30.4965C23.9074 30.5634 23.9216 30.6127 23.9431 30.6373C23.9645 30.6655 23.9967 30.6796 24.0324 30.6796C24.061 30.6796 24.086 30.6725 24.1038 30.6549C24.1217 30.6408 24.136 30.6127 24.1431 30.5739L24.2896 30.5986C24.2753 30.6655 24.2467 30.7148 24.2003 30.75C24.1574 30.7852 24.1003 30.8028 24.0253 30.8028C23.9431 30.8028 23.8788 30.7746 23.8288 30.7218C23.7788 30.6725 23.7538 30.5986 23.7538 30.507C23.7538 30.4155 23.7788 30.3451 23.8288 30.2923C23.8788 30.2394 23.9467 30.2148 24.0288 30.2148C24.0967 30.2148 24.1539 30.2289 24.1931 30.2606C24.236 30.2887 24.2646 30.3345 24.2824 30.3944ZM23.1572 30.4507V30.6549H23.3037C23.3608 30.6549 23.3965 30.6549 23.4144 30.6514C23.4358 30.6479 23.4537 30.6373 23.4715 30.6197C23.4858 30.6056 23.493 30.581 23.493 30.5528C23.493 30.5317 23.4858 30.5106 23.4751 30.4965C23.4644 30.4789 23.4465 30.4683 23.4251 30.4613C23.4037 30.4542 23.3572 30.4507 23.2858 30.4507H23.1572ZM23.1572 30.1408V30.3204H23.2608C23.3215 30.3204 23.3608 30.3204 23.3751 30.3169C23.4037 30.3134 23.4251 30.3063 23.4394 30.2923C23.4537 30.2746 23.4608 30.257 23.4608 30.2289C23.4608 30.2077 23.4573 30.1866 23.443 30.1725C23.4287 30.1584 23.4108 30.1479 23.3822 30.1444C23.3679 30.1444 23.3215 30.1408 23.2501 30.1408H23.1572ZM23 30.0141H23.3144C23.3751 30.0141 23.4215 30.0176 23.4501 30.0211C23.4823 30.0246 23.5108 30.0387 23.5323 30.0528C23.5573 30.0704 23.5751 30.0915 23.593 30.1162C23.6109 30.1444 23.618 30.1725 23.618 30.2077C23.618 30.243 23.6073 30.2782 23.5859 30.3063C23.568 30.338 23.543 30.3592 23.5073 30.3768C23.5537 30.3908 23.5894 30.412 23.618 30.4472C23.643 30.4789 23.6537 30.5176 23.6537 30.5634C23.6537 30.5986 23.6466 30.6303 23.6323 30.6655C23.6144 30.6972 23.5894 30.7254 23.5644 30.7465C23.5323 30.7641 23.5001 30.7782 23.4573 30.7817C23.4287 30.7852 23.3679 30.7852 23.2644 30.7887H23V30.0141Z" fill="#034899"/>
</svg>
