<svg width="60" height="60" viewBox="0 0 60 60" fill="none" xmlns="http://www.w3.org/2000/svg">
<path d="M35.5 39C37.4299 39 39 37.4299 39 35.5C39 33.5701 37.4299 32 35.5 32C33.5701 32 32 33.5701 32 35.5C32 37.4299 33.5701 39 35.5 39ZM35.5 33.6667C36.5109 33.6667 37.3333 34.489 37.3333 35.5C37.3333 36.5109 36.5109 37.3333 35.5 37.3333C34.4891 37.3333 33.6667 36.5109 33.6667 35.5C33.6667 34.4891 34.4891 33.6667 35.5 33.6667Z" fill="#E6330F"/>
<path d="M59.1194 40.6889H57.182V35.0051C57.182 34.5196 56.7877 34.1262 56.3014 34.1262C55.815 34.1262 55.4207 34.5196 55.4207 35.0051V40.6889H52.4876L53.3141 39.665C53.4999 39.4347 53.5573 39.1266 53.4668 38.845L53.0516 37.5537L53.6953 36.3589C53.8354 36.099 53.8354 35.7862 53.6953 35.5264L53.0517 34.332L53.4569 33.0716H54.0454C54.3097 33.0716 54.56 32.9531 54.7273 32.7488C54.8945 32.5447 54.9611 32.2762 54.9085 32.0178C54.0191 27.6455 51.6215 23.6636 48.1572 20.8054C45.0086 18.2076 41.1073 16.6572 37.0445 16.3646L35.9203 13.3723C37.8274 13.2268 39.3346 11.6316 39.3346 9.69156C39.3346 7.65605 37.6754 6 35.636 6C24.8313 6 16.9242 11.3256 12.0512 16.025C11.5707 15.6201 10.9505 15.3754 10.274 15.3754H2.7593C1.23781 15.3754 0 16.6108 0 18.1294V35.0051C0 36.5237 1.23781 37.7591 2.7593 37.7591H10.274C11.4876 37.7591 12.5199 36.9728 12.8884 35.8841H17.4753C17.4643 36.0465 17.4971 36.2113 17.5767 36.3589L18.2203 37.5533L17.8051 38.8447C17.7146 39.1263 17.772 39.4344 17.9578 39.6648L18.7847 40.6889H12.1526C11.6663 40.6889 11.272 41.0824 11.272 41.5679C11.272 42.0533 11.6663 42.4468 12.1526 42.4468H18.679C18.7285 42.5991 18.8179 42.7377 18.9436 42.8448L19.9768 43.7247L20.0596 45.0781C20.0776 45.3732 20.2431 45.6396 20.4999 45.7868L21.6778 46.462L22.0079 47.7772C22.0799 48.0639 22.2912 48.2952 22.5706 48.3931L23.8523 48.8419L24.4175 50.0748C24.5407 50.3435 24.791 50.5324 25.0836 50.5776L26.4265 50.7852L27.209 51.8939C27.3796 52.1357 27.6595 52.2755 27.9568 52.2663L29.3155 52.2234L30.2901 53.1691C30.5027 53.3752 30.805 53.4609 31.0942 53.397L32.4213 53.1041L33.554 53.8536C33.8007 54.0169 34.113 54.0455 34.3854 53.9298L35.6359 53.3987L36.8859 53.9298C36.9966 53.9768 37.1139 54 37.2308 54C37.4014 54 37.5709 53.9505 37.7175 53.8536L38.8502 53.1042L40.1769 53.3973C40.4664 53.4612 40.7685 53.3755 40.9811 53.1693L41.9554 52.2239L43.3131 52.2671C43.6105 52.2765 43.8904 52.1365 44.061 51.8948L44.8434 50.7862L46.1859 50.5792C46.4785 50.5339 46.729 50.345 46.8521 50.0763L47.4175 48.8435L48.6993 48.3949C48.9787 48.2971 49.1901 48.0657 49.2621 47.7792L49.5924 46.4639L50.7707 45.7886C51.0276 45.6414 51.193 45.3752 51.2111 45.0801L51.2942 43.7263L52.3281 42.8457C52.454 42.7385 52.5433 42.5994 52.5928 42.4471H59.1194C59.6057 42.4471 60 42.0535 60 41.5681C60 41.0825 59.6057 40.6889 59.1194 40.6889ZM52.9339 31.3136H46.8575C45.9376 29.1012 44.3487 27.1723 42.3326 25.8352C42.1882 25.7394 42.0187 25.6883 41.8452 25.6883H29.4268C29.2533 25.6883 29.0838 25.7394 28.9394 25.8352C26.9233 27.1723 25.3344 29.1012 24.4145 31.3136H18.3382C19.2953 27.7506 21.3629 24.5314 24.2369 22.1602C27.4331 19.5232 31.4814 18.0708 35.636 18.0708C39.7906 18.0708 43.8389 19.5231 47.0351 22.1602C49.9091 24.5314 51.9767 27.7507 52.9339 31.3136ZM18.1543 34.1262H13.0333V28.3837H17.485C16.9951 29.5518 16.6175 30.7687 16.3634 32.0176C16.3108 32.2762 16.3774 32.5445 16.5446 32.7487C16.7119 32.953 16.9622 33.0714 17.2265 33.0714H17.8151L18.1543 34.1262ZM18.3272 26.6259H13.0333V26.0637C13.1702 25.9963 13.2916 25.8935 13.3809 25.7569C13.4361 25.6725 18.8661 17.5054 28.4413 14.4946L29.4943 17.2973C27.1809 18.0564 25.0112 19.2405 23.1147 20.8053C21.1481 22.428 19.5256 24.4131 18.3272 26.6259ZM37.5734 9.69156C37.5734 10.7578 36.7043 11.6252 35.636 11.6252C35.3121 11.6252 34.9976 11.6375 34.6935 11.6495L34.629 11.652C34.3465 11.663 34.0865 11.8088 33.9299 12.0438C33.7734 12.2789 33.7396 12.5746 33.8389 12.8389L35.1467 16.3195C33.8106 16.3529 32.4872 16.5233 31.1968 16.8221L29.8023 13.1103C29.6419 12.6834 29.1815 12.4499 28.7411 12.5723C20.6655 14.8204 15.2497 20.5473 13.0333 23.2909V18.1295C13.0333 17.941 13.0141 17.7567 12.9777 17.5787C17.585 13.0421 25.1945 7.758 35.636 7.758C36.7043 7.75789 37.5734 8.62534 37.5734 9.69156ZM10.274 36.0012H9.27593V21.8796C9.27593 21.394 8.88164 21.0006 8.3953 21.0006C7.90896 21.0006 7.51468 21.394 7.51468 21.8796V36.0012H2.7593C2.20896 36.0012 1.76125 35.5544 1.76125 35.0051V18.1294C1.76125 17.58 2.20896 17.1333 2.7593 17.1333H7.51468V21.8796C7.51468 22.365 7.90896 22.7585 8.3953 22.7585C8.88164 22.7585 9.27593 22.365 9.27593 21.8796V17.1333H10.274C10.8243 17.1333 11.272 17.5801 11.272 18.1294V35.0051C11.272 35.5544 10.8243 36.0012 10.274 36.0012ZM20.4164 39.9084L19.627 38.9307L20.0116 37.7346C20.0847 37.5073 20.062 37.26 19.9486 37.0498L19.3519 35.9425L19.9486 34.8349C20.062 34.6247 20.0846 34.3774 20.0116 34.1501L19.6647 33.0713H25.0189C25.392 33.0713 25.7246 32.8367 25.8491 32.4857C26.5653 30.4667 27.9271 28.6864 29.6985 27.4461H41.5732C43.3445 28.6863 44.7065 30.4667 45.4226 32.4857C45.547 32.8367 45.8797 33.0713 46.2527 33.0713H51.607L51.2601 34.1504C51.1869 34.3778 51.2097 34.6251 51.323 34.8353L51.9197 35.9425L51.323 37.0501C51.2097 37.2604 51.187 37.5076 51.2601 37.735L51.6446 38.9311L50.8551 39.9091C50.7053 40.0948 50.6374 40.3333 50.667 40.5699L50.6819 40.6891H20.5895L20.6045 40.5694C20.6342 40.3327 20.5664 40.0942 20.4164 39.9084ZM49.8665 42.6313C49.6847 42.7861 49.5737 43.0081 49.5592 43.2462L49.4823 44.4999L48.3909 45.1255C48.1834 45.2444 48.0333 45.4425 47.9752 45.6741L47.6692 46.8926L46.4814 47.3083C46.2557 47.3873 46.0718 47.5548 45.9722 47.7719L45.4484 48.9141L44.2049 49.1059C43.9685 49.1424 43.7571 49.2733 43.6194 49.4684L42.895 50.4949L41.638 50.4549C41.3993 50.4473 41.1675 50.5368 40.9961 50.7031L40.0941 51.5783L38.866 51.307C38.6328 51.2556 38.3884 51.3008 38.1891 51.4327L37.1398 52.1269L35.9812 51.6347C35.7608 51.5411 35.5118 51.5411 35.2915 51.6347L34.1324 52.1269L33.083 51.4327C32.8839 51.3008 32.6395 51.2556 32.4062 51.307L31.1777 51.5783L30.2755 50.7029C30.1042 50.5367 29.8711 50.4471 29.6338 50.4547L28.376 50.4943L27.6514 49.4676C27.5137 49.2725 27.3025 49.1416 27.0661 49.1051L25.8221 48.9129L25.2984 47.7705C25.1988 47.5534 25.0149 47.386 24.7892 47.3069L23.6015 46.891L23.2957 45.6725C23.2376 45.4409 23.0876 45.2428 22.8801 45.1239L21.7889 44.4984L21.7122 43.245C21.6977 43.0068 21.5867 42.7847 21.4049 42.6299L21.1901 42.4469H50.0832L49.8665 42.6313Z" fill="#034899"/>
</svg>
