<svg width="60" height="60" viewBox="0 0 60 60" fill="none" xmlns="http://www.w3.org/2000/svg">
<path d="M56.0536 38.4194H43.2768C44.7134 37.4804 45.9148 36.2305 46.79 34.7643C47.6652 33.2981 48.1911 31.6542 48.328 29.9573C48.4648 28.2603 48.2089 26.5548 47.5797 24.9701C46.9505 23.3855 45.9645 21.9632 44.6964 20.8112V1.93548C44.6964 1.68738 44.5967 1.44943 44.4192 1.274C44.2417 1.09856 44.001 1 43.75 1H4.94643C4.69542 1 4.45469 1.09856 4.2772 1.274C4.09971 1.44943 4 1.68738 4 1.93548V58.0645C4 58.3126 4.09971 58.5506 4.2772 58.726C4.45469 58.9014 4.69542 59 4.94643 59H56.0536C56.3046 59 56.5453 58.9014 56.7228 58.726C56.9003 58.5506 57 58.3126 57 58.0645V39.3548C57 39.1067 56.9003 38.8688 56.7228 38.6934C56.5453 38.5179 56.3046 38.4194 56.0536 38.4194ZM43.75 40.2903H49.4286V47.1965L47.0128 46.0014C46.8812 45.9368 46.7362 45.9032 46.5893 45.9032C46.4423 45.9032 46.2974 45.9368 46.1658 46.0014L43.75 47.1965V40.2903ZM31.4464 2.87097H42.8036V19.415C42.4972 19.2337 42.1817 19.0673 41.8571 18.9157V4.74194C41.8571 4.49383 41.7574 4.25589 41.5799 4.08045C41.4025 3.90501 41.1617 3.80645 40.9107 3.80645H31.4464V2.87097ZM18.1964 2.87097H29.5536V6.6129H18.1964V2.87097ZM17.25 57.129H5.89286V2.87097H16.3036V3.80645H7.78571C7.53471 3.80645 7.29398 3.90501 7.11649 4.08045C6.939 4.25589 6.83929 4.49383 6.83929 4.74194V55.2581C6.83929 55.5062 6.939 55.7441 7.11649 55.9196C7.29398 56.095 7.53471 56.1936 7.78571 56.1936H17.25V57.129ZM18.1964 38.4194C17.9454 38.4194 17.7047 38.5179 17.5272 38.6934C17.3497 38.8688 17.25 39.1067 17.25 39.3548V54.3226H8.73214V5.67742H16.3036V7.54839C16.3036 7.79649 16.4033 8.03444 16.5808 8.20987C16.7583 8.38531 16.999 8.48387 17.25 8.48387H30.5C30.751 8.48387 30.9917 8.38531 31.1692 8.20987C31.3467 8.03444 31.4464 7.79649 31.4464 7.54839V5.67742H39.9643V18.2258C37.3607 17.5309 34.5919 17.7747 32.1535 18.9135C29.7152 20.0523 27.7665 22.0117 26.6564 24.4411C25.5463 26.8704 25.3472 29.611 26.0948 32.1722C26.8424 34.7334 28.4879 36.9479 30.7366 38.4194H18.1964ZM30.5 40.2903V47.1965L28.0842 46.0014C27.9526 45.9368 27.8077 45.9032 27.6607 45.9032C27.5138 45.9032 27.3688 45.9368 27.2372 46.0014L24.8214 47.1965V40.2903H30.5ZM36.1786 57.129H19.1429V40.2903H22.9286V48.7097C22.9285 48.8692 22.9696 49.0261 23.0482 49.1655C23.1267 49.3049 23.24 49.4221 23.3773 49.506C23.5146 49.5899 23.6713 49.6377 23.8325 49.6449C23.9938 49.6521 24.1542 49.6183 24.2985 49.5469L27.6607 47.8841L31.0229 49.5469C31.1672 49.6183 31.3277 49.6521 31.4889 49.6449C31.6502 49.6377 31.8069 49.5899 31.9442 49.506C32.0814 49.4221 32.1947 49.3049 32.2733 49.1655C32.3518 49.0261 32.393 48.8692 32.3929 48.7097V40.2903H36.1786V57.129ZM37.0067 38.4194C35.1348 38.4194 33.305 37.8707 31.7486 36.8428C30.1922 35.8149 28.9792 34.3538 28.2628 32.6445C27.5465 30.9351 27.3591 29.0541 27.7243 27.2395C28.0894 25.4248 28.9908 23.7579 30.3144 22.4496C31.638 21.1413 33.3244 20.2504 35.1603 19.8894C36.9962 19.5285 38.8992 19.7137 40.6285 20.4218C42.3579 21.1298 43.836 22.3289 44.876 23.8672C45.9159 25.4056 46.471 27.2143 46.471 29.0645C46.4681 31.5447 45.47 33.9225 43.6957 35.6762C41.9215 37.43 39.5159 38.4165 37.0067 38.4194ZM55.1071 57.129H38.0714V40.2903H41.8571V48.7097C41.857 48.8692 41.8982 49.0261 41.9767 49.1655C42.0553 49.3049 42.1686 49.4221 42.3058 49.506C42.4431 49.5899 42.5998 49.6377 42.7611 49.6449C42.9223 49.6521 43.0828 49.6183 43.2271 49.5469L46.5893 47.8841L49.9515 49.5469C50.0958 49.6183 50.2562 49.6521 50.4175 49.6449C50.5787 49.6377 50.7354 49.5899 50.8727 49.506C51.01 49.4221 51.1233 49.3049 51.2018 49.1655C51.2804 49.0261 51.3215 48.8692 51.3214 48.7097V40.2903H55.1071V57.129Z" fill="#034899"/>
<path d="M37.6917 29.2066L37.7897 23.961C37.792 23.8374 37.7725 23.7145 37.7323 23.5993C37.6921 23.4842 37.632 23.379 37.5554 23.2898C37.4789 23.2005 37.3873 23.129 37.2861 23.0794C37.1848 23.0297 37.0757 23.0028 36.9651 23.0002C36.8545 22.9976 36.7446 23.0194 36.6415 23.0643C36.5385 23.1092 36.4444 23.1764 36.3645 23.262C36.2847 23.3475 36.2207 23.4498 36.1763 23.563C36.1318 23.6762 36.1078 23.7981 36.1054 23.9217L36.0002 29.5686C35.9978 29.6955 36.0184 29.8216 36.0608 29.9393C36.1031 30.0571 36.1663 30.164 36.2466 30.2538L37.5624 31.7243C37.7203 31.9008 37.9345 32 38.1579 32C38.3812 32 38.5954 31.9008 38.7533 31.7243C38.9113 31.5478 39 31.3084 39 31.0588C39 30.8092 38.9113 30.5698 38.7533 30.3933L37.6917 29.2066Z" fill="#034899"/>
<path d="M30 16.65V10.95C30 10.698 29.8999 10.4564 29.7218 10.2782C29.5436 10.1001 29.302 10 29.05 10H23.35C23.098 10 22.8564 10.1001 22.6782 10.2782C22.5001 10.4564 22.4 10.698 22.4 10.95V12.85H18.6V10.95C18.6 10.698 18.4999 10.4564 18.3218 10.2782C18.1436 10.1001 17.902 10 17.65 10H11.95C11.698 10 11.4564 10.1001 11.2782 10.2782C11.1001 10.4564 11 10.698 11 10.95V16.65C11 16.902 11.1001 17.1436 11.2782 17.3218C11.4564 17.4999 11.698 17.6 11.95 17.6H13.85V21.4H11.95C11.698 21.4 11.4564 21.5001 11.2782 21.6782C11.1001 21.8564 11 22.098 11 22.35V28.05C11 28.302 11.1001 28.5436 11.2782 28.7218C11.4564 28.8999 11.698 29 11.95 29H17.65C17.902 29 18.1436 28.8999 18.3218 28.7218C18.4999 28.5436 18.6 28.302 18.6 28.05V22.35C18.6 22.098 18.4999 21.8564 18.3218 21.6782C18.1436 21.5001 17.902 21.4 17.65 21.4H15.75V17.6H17.65C17.902 17.6 18.1436 17.4999 18.3218 17.3218C18.4999 17.1436 18.6 16.902 18.6 16.65V14.75H22.4V16.65C22.4 16.902 22.5001 17.1436 22.6782 17.3218C22.8564 17.4999 23.098 17.6 23.35 17.6H29.05C29.302 17.6 29.5436 17.4999 29.7218 17.3218C29.8999 17.1436 30 16.902 30 16.65ZM16.7 27.1H12.9V23.3H16.7V27.1ZM16.7 15.7H12.9V11.9H16.7V15.7ZM28.1 15.7H24.3V11.9H28.1V15.7Z" fill="#034899"/>
<path fill-rule="evenodd" clip-rule="evenodd" d="M23 55.0743V51H20V56L23 55.0743Z" fill="#F44336"/>
<path fill-rule="evenodd" clip-rule="evenodd" d="M42 55.0743V51H39V56L42 55.0743Z" fill="#F44336"/>
<path fill-rule="evenodd" clip-rule="evenodd" d="M21.3498 53.259C21.3498 53.259 21.2512 53.259 21.061 53.259C20.8709 53.259 20.5915 53.503 20.5915 54.0813C20.5915 54.5542 20.8099 54.7289 21.0258 54.7289C21.1479 54.7289 21.3498 54.4578 21.3498 54.1355V53.259ZM22 54.9066H21.3498V54.6867C21.2394 54.8163 21.007 55 20.7465 55C20.4883 55 20 54.7651 20 54.0723C20 53.3825 20.6244 53.0392 20.9859 53.0392C21.3474 53.0392 21.3498 53.0392 21.3498 53.0392C21.3498 52.7861 21.3498 52.7259 21.3498 52.5482C21.3498 52.3735 21.2512 52.2169 21.0751 52.2169C20.8967 52.2169 20.6807 52.3675 20.6807 52.753H20.162C20.162 52.497 20.2981 52 21.0798 52C21.8638 52 21.946 52.4518 21.946 52.6536C21.946 52.8584 21.946 54.5301 21.946 54.6265C21.946 54.7922 22 54.9066 22 54.9066Z" fill="white"/>
<path fill-rule="evenodd" clip-rule="evenodd" d="M40.3498 53.259C40.3498 53.259 40.2512 53.259 40.061 53.259C39.8709 53.259 39.5915 53.503 39.5915 54.0813C39.5915 54.5542 39.8099 54.7289 40.0258 54.7289C40.1479 54.7289 40.3498 54.4578 40.3498 54.1355V53.259ZM41 54.9066H40.3498V54.6867C40.2394 54.8163 40.007 55 39.7465 55C39.4883 55 39 54.7651 39 54.0723C39 53.3825 39.6244 53.0392 39.9859 53.0392C40.3474 53.0392 40.3498 53.0392 40.3498 53.0392C40.3498 52.7861 40.3498 52.7259 40.3498 52.5482C40.3498 52.3735 40.2512 52.2169 40.0751 52.2169C39.8967 52.2169 39.6807 52.3675 39.6807 52.753H39.162C39.162 52.497 39.2981 52 40.0798 52C40.8638 52 40.946 52.4518 40.946 52.6536C40.946 52.8584 40.946 54.5301 40.946 54.6265C40.946 54.7922 41 54.9066 41 54.9066Z" fill="white"/>
</svg>
