<svg width="60" height="60" viewBox="0 0 60 60" fill="none" xmlns="http://www.w3.org/2000/svg">
<path d="M46.7279 5.85341L41.1565 0.272793C40.9829 0.0977586 40.7461 0 40.5 0H8.92857C8.41507 0 8 0.416172 8 0.931035V53.0634C8 53.5773 8.41507 53.9944 8.92857 53.9944L46.0714 54C46.3184 54 46.5534 53.9013 46.7279 53.7272C46.9025 53.5531 47 53.3166 47 53.069V6.51166C47 6.264 46.9025 6.02845 46.7279 5.85341ZM45.1429 52.1379L9.85714 52.1323V1.86207H40.1156L45.1429 6.8971V52.1379Z" fill="#034899"/>
<path d="M43.0714 52.342C42.5579 52.342 42.1429 52.7582 42.1429 53.2731V55.1379L6.85714 55.1323V4.86207H8.7115C9.225 4.86207 9.64007 4.4459 9.64007 3.93103C9.64007 3.41617 9.225 3 8.7115 3H5.92857C5.41507 3 5 3.41617 5 3.93103V56.0634C5 56.5773 5.41507 56.9944 5.92857 56.9944L43.0714 57C43.3184 57 43.5534 56.9013 43.7279 56.7272C43.9025 56.5531 44 56.3166 44 56.069V53.2731C44 52.7582 43.5849 52.342 43.0714 52.342Z" fill="#034899"/>
<path d="M40.0714 55.342C39.5579 55.342 39.1429 55.7582 39.1429 56.2731V58.1379L3.85714 58.1323V7.86207H5.7115C6.225 7.86207 6.64007 7.4459 6.64007 6.93103C6.64007 6.41617 6.225 6 5.7115 6H2.92857C2.41507 6 2 6.41617 2 6.93103V59.0634C2 59.5773 2.41507 59.9944 2.92857 59.9944L40.0714 60C40.3184 60 40.5534 59.9013 40.7279 59.7272C40.9025 59.5531 41 59.3166 41 59.069V56.2731C41 55.7582 40.5849 55.342 40.0714 55.342Z" fill="#034899"/>
<path d="M47 6H41C40.447 6 40 6.447 40 7C40 7.553 40.447 8 41 8H47C47.553 8 48 7.553 48 7C48 6.447 47.553 6 47 6Z" fill="#034899"/>
<path d="M41 0C40.447 0 40 0.391419 40 0.875657V6.12434C40 6.60858 40.447 7 41 7C41.553 7 42 6.60858 42 6.12434V0.875657C42 0.391419 41.553 0 41 0Z" fill="#034899"/>
<path d="M52 9C50.346 9 49 10.346 49 12C49 12.553 49.447 13 50 13C50.553 13 51 12.553 51 12C51 11.448 51.448 11 52 11C52.552 11 53 11.448 53 12C53 12.553 53.447 13 54 13C54.553 13 55 12.553 55 12C55 10.346 53.654 9 52 9Z" fill="#034899"/>
<path d="M50 11C49.447 11 49 11.4222 49 11.9444V44.0556C49 44.5778 49.447 45 50 45C50.553 45 51 44.5778 51 44.0556V11.9444C51 11.4222 50.553 11 50 11Z" fill="#034899"/>
<path d="M54 11C53.447 11 53 11.4222 53 11.9444V44.0556C53 44.5778 53.447 45 54 45C54.553 45 55 44.5778 55 44.0556V11.9444C55 11.4222 54.553 11 54 11Z" fill="#034899"/>
<path d="M52.8315 46.445L50.832 43.4449C50.5251 42.9859 49.9063 42.8619 49.4454 43.1679C48.9856 43.4749 48.8616 44.0949 49.1685 44.5549L51.168 47.555C51.3599 47.844 51.6778 48 52.0007 48C52.1907 48 52.3836 47.946 52.5546 47.832C53.0144 47.525 53.1384 46.905 52.8315 46.445Z" fill="#034899"/>
<path d="M54.5546 43.1679C54.0937 42.8619 53.4729 42.9859 53.168 43.4449L51.1685 46.445C50.8616 46.905 50.9856 47.525 51.4454 47.832C51.6164 47.945 51.8093 48 51.9993 48C52.3222 48 52.6401 47.844 52.832 47.555L54.8315 44.5549C55.1384 44.0949 55.0144 43.4749 54.5546 43.1679Z" fill="#034899"/>
<path d="M52 46C51.447 46 51 46.447 51 47V48C51 48.553 51.447 49 52 49C52.553 49 53 48.553 53 48V47C53 46.447 52.553 46 52 46Z" fill="#034899"/>
<path d="M54 41H50C49.447 41 49 41.447 49 42C49 42.553 49.447 43 50 43H54C54.553 43 55 42.553 55 42C55 41.447 54.553 41 54 41Z" fill="#034899"/>
<path d="M55 12C54.447 12 54 12.447 54 13C54 13.553 54.447 14 55 14C55.552 14 56 14.448 56 15C56 15.553 56.447 16 57 16C57.553 16 58 15.553 58 15C58 13.346 56.654 12 55 12Z" fill="#034899"/>
<path d="M57 14C56.447 14 56 14.4151 56 14.9286V26.0714C56 26.5849 56.447 27 57 27C57.553 27 58 26.5849 58 26.0714V14.9286C58 14.4151 57.553 14 57 14Z" fill="#034899"/>
<path d="M55 12H54C53.447 12 53 12.447 53 13C53 13.553 53.447 14 54 14H55C55.553 14 56 13.553 56 13C56 12.447 55.553 12 55 12Z" fill="#034899"/>
<path d="M54 21H50C49.447 21 49 21.447 49 22C49 22.553 49.447 23 50 23H54C54.553 23 55 22.553 55 22C55 21.447 54.553 21 54 21Z" fill="#034899"/>
<path d="M40.0714 23H15.9286C15.4151 23 15 23.447 15 24C15 24.553 15.4151 25 15.9286 25H40.0714C40.5849 25 41 24.553 41 24C41 23.447 40.5849 23 40.0714 23Z" fill="#034899"/>
<path d="M40.0714 28H15.9286C15.4151 28 15 28.447 15 29C15 29.553 15.4151 30 15.9286 30H40.0714C40.5849 30 41 29.553 41 29C41 28.447 40.5849 28 40.0714 28Z" fill="#034899"/>
<path d="M40.0714 33H15.9286C15.4151 33 15 33.447 15 34C15 34.553 15.4151 35 15.9286 35H40.0714C40.5849 35 41 34.553 41 34C41 33.447 40.5849 33 40.0714 33Z" fill="#034899"/>
<path d="M28.0667 37H15.9333C15.4172 37 15 37.447 15 38C15 38.553 15.4172 39 15.9333 39H28.0667C28.5828 39 29 38.553 29 38C29 37.447 28.5828 37 28.0667 37Z" fill="#034899"/>
<path d="M23.1 15H15.9C15.4023 15 15 15.447 15 16C15 16.553 15.4023 17 15.9 17H23.1C23.5977 17 24 16.553 24 16C24 15.447 23.5977 15 23.1 15Z" fill="#034899"/>
<path d="M16 7C15.447 7 15 7.4023 15 7.9V15.1C15 15.5977 15.447 16 16 16C16.553 16 17 15.5977 17 15.1V7.9C17 7.4023 16.553 7 16 7Z" fill="#034899"/>
<path d="M23 10C22.447 10 22 10.4012 22 10.8976V16.1024C22 16.5988 22.447 17 23 17C23.553 17 24 16.5988 24 16.1024V10.8976C24 10.4012 23.553 10 23 10Z" fill="#034899"/>
<path d="M20.7812 7.37586C20.4382 6.94539 19.8092 6.87331 19.3761 7.21868L14.3758 11.2171C13.9448 11.5614 13.8737 12.1911 14.2188 12.6236C14.4158 12.8709 14.7068 13 15.0008 13C15.2198 13 15.4389 12.9289 15.6239 12.7808L20.6242 8.78239C21.0552 8.43802 21.1263 7.80833 20.7812 7.37586Z" fill="#034899"/>
<path d="M24.6239 11.2171L19.624 7.21899C19.193 6.87363 18.5641 6.9447 18.2191 7.37615C17.8741 7.8076 17.9441 8.43725 18.3761 8.78261L23.376 12.7808C23.561 12.9289 23.78 13 23.9989 13C24.2929 13 24.5839 12.8709 24.7809 12.6236C25.1259 12.1922 25.0559 11.5625 24.6239 11.2171Z" fill="#034899"/>
<path d="M19 12C18.447 12 18 12.447 18 13V16C18 16.553 18.447 17 19 17C19.553 17 20 16.553 20 16V13C20 12.447 19.553 12 19 12Z" fill="#034899"/>
<path fill-rule="evenodd" clip-rule="evenodd" d="M31 50.0743V46H28V51L31 50.0743Z" fill="#F44336"/>
<path fill-rule="evenodd" clip-rule="evenodd" d="M29.3498 48.259C29.3498 48.259 29.2512 48.259 29.061 48.259C28.8709 48.259 28.5915 48.503 28.5915 49.0813C28.5915 49.5542 28.8099 49.7289 29.0258 49.7289C29.1479 49.7289 29.3498 49.4578 29.3498 49.1355V48.259ZM30 49.9066H29.3498V49.6867C29.2394 49.8163 29.007 50 28.7465 50C28.4883 50 28 49.7651 28 49.0723C28 48.3825 28.6244 48.0392 28.9859 48.0392C29.3474 48.0392 29.3498 48.0392 29.3498 48.0392C29.3498 47.7861 29.3498 47.7259 29.3498 47.5482C29.3498 47.3735 29.2512 47.2169 29.0751 47.2169C28.8967 47.2169 28.6807 47.3675 28.6807 47.753H28.162C28.162 47.497 28.2981 47 29.0798 47C29.8638 47 29.946 47.4518 29.946 47.6536C29.946 47.8584 29.946 49.5301 29.946 49.6265C29.946 49.7922 30 49.9066 30 49.9066Z" fill="white"/>
<path fill-rule="evenodd" clip-rule="evenodd" d="M35.4237 48.9359H35.0577V48.8974L35.0634 48.8622L35.0691 48.8301L35.0776 48.7981L35.0861 48.766L35.1002 48.7404L35.1144 48.7115L35.1315 48.6891L35.1513 48.6667L35.1684 48.6442L35.191 48.6282L35.2138 48.609L35.2365 48.5962L35.2591 48.5833L35.2875 48.5705L35.3131 48.5609L35.3386 48.5545L35.367 48.5481L35.3925 48.5449L35.4209 48.5417H35.4237L35.4464 48.5449L35.4748 48.5481L35.5003 48.5513L35.5287 48.5577L35.5543 48.5673L35.5798 48.5769L35.6025 48.5897L35.6252 48.6026L35.6507 48.6218L35.6706 48.6378L35.6905 48.6603L35.7075 48.6827L35.7273 48.7083L35.7415 48.734L35.7529 48.7628L35.7642 48.7917L35.7728 48.8269L35.7813 48.859L35.7841 48.8974L35.787 48.9359H35.4237ZM31.7917 47.0064H31V50H31.7917V47.0064ZM42.9943 48.5577L42.9887 48.5288L42.983 48.4968L42.9745 48.4712L42.9688 48.4423L42.9603 48.4167L42.9517 48.391L42.9404 48.3654L42.9319 48.3429L42.9206 48.3205L42.9092 48.2981L42.895 48.2756L42.8808 48.2564L42.8666 48.2404L42.8496 48.2212L42.8354 48.2019L42.8184 48.1859L42.8014 48.1699L42.7843 48.1538L42.7644 48.141L42.7475 48.125L42.7276 48.1122L42.7077 48.0994L42.6878 48.0833L42.668 48.0737L42.6453 48.0609L42.6226 48.0513L42.6028 48.0385L42.58 48.0288L42.5573 48.0192L42.5346 48.0096L42.5119 48L42.4864 47.9904L42.4608 47.984L42.4382 47.9776L42.4126 47.9679L42.3871 47.9615L42.3616 47.9551L42.336 47.9487L42.3105 47.9423L42.2821 47.9391L42.2537 47.9327L42.2282 47.9295L42.1998 47.9231L42.1743 47.9199L42.1459 47.9135L42.1175 47.9103L42.0863 47.9071H42.0579L42.0296 47.9038H42.0012L41.9757 47.9006H41.9473H41.916H41.8848H41.8536H41.8224H41.7912H41.76L41.7316 47.9038L41.7004 47.9071L41.6692 47.9103H41.638L41.6096 47.9135L41.5812 47.9199L41.5557 47.9231L41.5273 47.9295L41.5018 47.9327L41.4734 47.9391L41.4478 47.9423L41.4195 47.9487L41.3939 47.9551L41.3684 47.9615L41.3457 47.9712L41.3202 47.9776L41.2974 47.984L41.2719 47.9936L41.2492 48.0032L41.2237 48.0128L41.201 48.0224L41.1783 48.0321L41.1584 48.0417L41.1357 48.0545L41.113 48.0641L41.0932 48.0769L41.0704 48.0897L41.0534 48.1026L41.0335 48.1154L41.0137 48.1282L40.9938 48.141L40.974 48.1571L40.957 48.1731L40.9399 48.1859L40.9201 48.2019L40.9059 48.2212L40.8888 48.2372L40.8718 48.2532L40.8576 48.2692L40.8406 48.2885L40.8236 48.3077L40.8094 48.3237L40.7952 48.3462L40.781 48.3654L40.7697 48.3846L40.7555 48.4071L40.7441 48.4295L40.7299 48.4487L40.7186 48.4744L40.7073 48.4968L40.6987 48.5192L40.6902 48.5481L40.6789 48.5705L40.6732 48.5994L40.6647 48.625L40.6562 48.6538L40.6533 48.6827L40.6476 48.7115L40.6448 48.734L40.642 48.75L40.6392 48.8013H41.5159V48.7564L41.5188 48.7436L41.5244 48.7244L41.533 48.6987L41.5443 48.6731L41.5557 48.6538L41.5727 48.6346L41.5869 48.6186L41.6067 48.6026L41.6295 48.5929L41.6493 48.5833L41.6748 48.5737L41.7004 48.5641L41.7259 48.5577L41.7543 48.5545H41.7827L41.8139 48.5513L41.8423 48.5545H41.8735L41.899 48.5609L41.9245 48.5673L41.9501 48.5737L41.9728 48.5833L41.9955 48.5929L42.0154 48.6058L42.0352 48.6218L42.0494 48.6378L42.0636 48.6603L42.0721 48.6859L42.0778 48.7147V48.7436V48.7756L42.0693 48.8013L42.0579 48.8237L42.0409 48.8397L42.0239 48.8526L42.0012 48.8654L41.9784 48.875L41.9558 48.8846L41.9302 48.891L41.9047 48.8974L41.8792 48.9038L41.8508 48.9103L41.8252 48.9135L41.7146 48.9327L41.6039 48.9519L41.4933 48.9679L41.3854 48.9872L41.357 48.9904L41.3315 48.9968L41.3031 49.0032L41.2776 49.0064L41.2521 49.0128L41.2237 49.0192L41.1981 49.0256L41.1726 49.0321L41.1471 49.0385L41.1243 49.0481L41.0988 49.0545L41.0733 49.0609L41.0506 49.0705L41.0251 49.0801L41.0024 49.0865L40.9796 49.0962L40.9541 49.1058L40.9314 49.1154L40.9087 49.125L40.8888 49.1378L40.8662 49.1474L40.8435 49.1571L40.8236 49.1699L40.8038 49.1827L40.7839 49.1955L40.764 49.2115L40.7441 49.2244L40.7271 49.2372L40.7101 49.2532L40.6931 49.2724L40.676 49.2885L40.6618 49.3077L40.6476 49.3269L40.6335 49.3462L40.6193 49.3654L40.6079 49.3878L40.5966 49.4135L40.5881 49.4359L40.5768 49.4615L40.571 49.4872L40.5626 49.516L40.5569 49.5449L40.5512 49.5737L40.5455 49.6058L40.5427 49.6346L40.5398 49.6667V49.6955L40.5427 49.7244L40.5455 49.7532L40.5512 49.7788L40.5597 49.8077L40.5682 49.8301L40.5795 49.8558L40.5909 49.8782L40.6051 49.8974L40.6193 49.9167L40.6363 49.9327L40.6533 49.9487L40.6703 49.9647L40.6902 49.9776L40.7129 49.9872L40.7384 49.9936L40.764 49.9968L40.7924 50H41.6493L41.6067 49.9679L41.5982 49.9583L41.5869 49.9423L41.5756 49.9263L41.5614 49.9038L41.55 49.8846L41.5386 49.859L41.5301 49.8301L41.5244 49.8013V49.7724L41.5301 49.7436L41.5358 49.7147L41.5443 49.6923L41.5557 49.6699L41.5727 49.6506L41.5869 49.6346L41.6039 49.6154L41.6238 49.6026L41.6437 49.5897L41.6635 49.5769L41.6862 49.5673L41.7089 49.5577L41.8054 49.5224L41.899 49.4872L41.9217 49.4776L41.9473 49.4712L41.97 49.4615L41.9955 49.4519L42.0182 49.4423L42.0352 49.4359L42.0466 49.4327L42.0607 49.4295L42.0863 49.4135V50H43V48.6571V48.625L42.9971 48.5897L42.9943 48.5577ZM33.48 47H32.5607V47.9519H32.1889V48.5962H32.5607V49.4647V49.4936V49.5256V49.5545L32.5635 49.5833L32.5663 49.609L32.5692 49.6346L32.5748 49.6603L32.5805 49.6859L32.5862 49.7083L32.5919 49.7308L32.6004 49.7532L32.6089 49.7756L32.6202 49.7949L32.6288 49.8141L32.6401 49.8301L32.6515 49.8494L32.6656 49.8622L32.677 49.8782L32.6912 49.8942L32.7054 49.9103L32.7196 49.9231L32.7366 49.9327L32.7536 49.9455L32.7763 49.9519L32.7962 49.9583L32.816 49.9679L32.8359 49.9744L32.8614 49.9776L32.8841 49.9808L32.9097 49.984L32.9324 49.9872H32.9579L32.9863 49.9904H33.48V48.5962H34.0078V47.9519H33.48V47ZM38.5138 47.9359L38.4911 47.9295L38.4712 47.9231L38.4514 47.9167L38.4287 47.9135L38.4088 47.9103L38.3861 47.9071L38.3635 47.9038H38.3407H38.3209H38.2981L38.2783 47.9071L38.2556 47.9103L38.2357 47.9135L38.2131 47.9199L38.196 47.9231L38.1762 47.9295L38.1563 47.9359L38.1392 47.9423L38.1223 47.9487L38.1024 47.9551L38.0853 47.9647L38.0684 47.9744L38.0513 47.984L38.0343 47.9936L38.0172 48.0064L38.0002 48.016L37.9861 48.0288L37.969 48.0417L37.9548 48.0545L37.9378 48.0673L37.9264 48.0833L37.9122 48.0994L37.8981 48.1122L37.8839 48.1282L37.8725 48.1442L37.8583 48.1603L37.847 48.1795L37.8356 48.1955V47.9519H36.9901V50H37.9208V48.984V48.9551L37.9236 48.9263L37.9264 48.9006L37.9321 48.8782L37.9378 48.8526L37.9463 48.8301L37.9548 48.8077L37.9634 48.7885L37.9719 48.7692L37.9832 48.75L37.9974 48.734L38.0087 48.7179L38.0229 48.7051L38.0371 48.6891L38.0513 48.6763L38.0684 48.6667L38.0853 48.6538L38.1024 48.6442L38.1223 48.6346L38.1421 48.625L38.162 48.6186L38.1847 48.6122L38.2045 48.6058L38.2301 48.6026L38.2528 48.5994L38.2783 48.5962H38.5535V47.9519L38.5337 47.9423L38.5138 47.9359ZM40.3696 47.9359L40.3497 47.9295L40.3299 47.9231L40.3072 47.9167L40.2873 47.9135L40.2646 47.9103L40.2447 47.9071L40.222 47.9038H40.1993H40.1794H40.1568L40.1341 47.9071L40.1142 47.9103L40.0915 47.9135L40.0716 47.9199L40.0518 47.9231L40.0319 47.9295L40.0149 47.9359L39.995 47.9423L39.978 47.9487L39.961 47.9551L39.9411 47.9647L39.9241 47.9744L39.9071 47.984L39.89 47.9936L39.8758 48.0064L39.8588 48.016L39.8418 48.0288L39.8248 48.0417L39.8106 48.0545L39.7964 48.0673L39.7822 48.0833L39.768 48.0994L39.7538 48.1122L39.7396 48.1282L39.7283 48.1442L39.7169 48.1603L39.7028 48.1795L39.6914 48.1955L39.6943 47.9519H38.8486V50H39.7766V48.984V48.9551L39.7794 48.9263L39.7851 48.9006L39.7907 48.8782L39.7964 48.8526L39.8021 48.8301L39.8106 48.8077L39.8191 48.7885L39.8304 48.7692L39.8418 48.75L39.8532 48.734L39.8645 48.7179L39.8787 48.7051L39.8929 48.6891L39.9099 48.6763L39.9269 48.6667L39.9411 48.6538L39.961 48.6442L39.978 48.6346L39.9979 48.625L40.0177 48.6186L40.0404 48.6122L40.0631 48.6058L40.0858 48.6026L40.1113 48.5994L40.1341 48.5962H40.4122V47.9519L40.3895 47.9423L40.3696 47.9359ZM36.6978 49.1314V49.1026L36.695 49.0769V49.0513L36.6893 49.0224L36.6864 48.9968L36.6836 48.9679L36.6779 48.9391L36.6722 48.9135L36.6694 48.8814L36.6637 48.8526L36.658 48.8269L36.6524 48.7981L36.6439 48.7692L36.6354 48.7404L36.6269 48.7147L36.6183 48.6859L36.6098 48.6571L36.6013 48.6314L36.59 48.6026L36.5814 48.5801L36.5701 48.5545L36.5588 48.5321L36.5474 48.5064L36.5361 48.484L36.5219 48.4615L36.5077 48.4391L36.4964 48.4167L36.4822 48.3974L36.4651 48.375L36.4509 48.3558L36.4367 48.3333L36.4197 48.3141L36.4027 48.2949L36.3857 48.2756L36.3686 48.2564L36.3516 48.2404L36.3346 48.2212L36.3147 48.2051L36.2949 48.1891L36.2778 48.1699L36.258 48.1538L36.2381 48.141L36.2154 48.125L36.1984 48.1122L36.1757 48.0994L36.1558 48.0833L36.1331 48.0705L36.1132 48.0577L36.0906 48.0481L36.0679 48.0353L36.048 48.0256L36.0253 48.016L36.0026 48.0064L35.9799 47.9968L35.9572 47.9872L35.9345 47.9808L35.909 47.9744L35.8862 47.9679L35.8636 47.9615L35.8409 47.9551L35.8153 47.9487L35.7926 47.9455L35.7671 47.9391L35.7415 47.9359L35.716 47.9295L35.6905 47.9231L35.6649 47.9199L35.6394 47.9167L35.6139 47.9135L35.5883 47.9103L35.5628 47.9071L35.5372 47.9038H35.5089L35.4861 47.9006H35.4578H35.4322H35.4237H35.4067H35.3812H35.3556L35.3301 47.9038H35.3046L35.279 47.9071L35.2535 47.9103L35.2251 47.9135L35.1996 47.9167L35.1741 47.9199L35.1513 47.9231L35.1258 47.9295L35.0974 47.9359L35.0747 47.9423L35.0492 47.9487L35.0236 47.9551L34.9981 47.9615L34.9726 47.9712L34.947 47.9776L34.9215 47.9872L34.8988 47.9968L34.8732 48.0064L34.8506 48.016L34.825 48.0256L34.8023 48.0385L34.7767 48.0513L34.7541 48.0641L34.7285 48.0737L34.7058 48.0897L34.6832 48.1026L34.6604 48.1154L34.6377 48.1282L34.6151 48.1442L34.5923 48.1603L34.5696 48.1731L34.5498 48.1891L34.5271 48.2051L34.5072 48.2244L34.4873 48.2404L34.4703 48.2596L34.4533 48.2756L34.4363 48.2949L34.4192 48.3141L34.405 48.3333L34.3881 48.3558L34.3739 48.375L34.3568 48.3974L34.3455 48.4167L34.3284 48.4391L34.3171 48.4615L34.3029 48.484L34.2916 48.5064L34.2802 48.5321L34.2689 48.5545L34.2575 48.5801L34.2461 48.6026L34.2376 48.6282L34.2263 48.6506L34.2178 48.6763L34.2093 48.7019L34.2008 48.7244L34.1951 48.75L34.1866 48.7756L34.1809 48.8013L34.1752 48.8269L34.1695 48.8526L34.1638 48.8782L34.161 48.9071L34.1582 48.9327L34.1525 48.9615L34.1497 48.9872L34.1469 49.016V49.0417L34.144 49.0705L34.1412 49.0962V49.125V49.1506V49.1795V49.2083L34.144 49.234L34.1469 49.2628V49.2885L34.1525 49.3173L34.1553 49.3429L34.1582 49.3718L34.1638 49.4006L34.1667 49.4263L34.1752 49.4519L34.1809 49.4776L34.1866 49.5064L34.1951 49.532L34.2008 49.5577L34.2093 49.5833L34.2178 49.609L34.2263 49.6346L34.2376 49.6603L34.2461 49.6859L34.2575 49.7115L34.2689 49.734L34.2802 49.7596L34.2916 49.782L34.3029 49.8077L34.3171 49.8301L34.3284 49.8558L34.3455 49.875L34.3568 49.8974L34.3739 49.9199L34.3881 49.9423L34.4022 49.9647L34.4192 49.9872H35.0804V49.4615H35.4237H36.6722L36.6779 49.4327L36.6836 49.407L36.6864 49.3814L36.6893 49.3526L36.6921 49.3237L36.695 49.2981L36.6978 49.2692V49.2436L36.7006 49.2147V49.1859V49.1603L36.6978 49.1314Z" fill="#034899"/>
<path fill-rule="evenodd" clip-rule="evenodd" d="M42.8743 50.7887V50.6408H42.9943V50.7887H42.8743ZM42.9 50.588L42.8686 50.1937V50.0141H43V50.1937L42.9686 50.588H42.9ZM42.6171 50.5211C42.6028 50.5246 42.5771 50.5317 42.5456 50.5422C42.5113 50.5493 42.4913 50.5599 42.4799 50.5669C42.4656 50.581 42.457 50.5986 42.457 50.6197C42.457 50.6408 42.4627 50.6585 42.4742 50.6725C42.4884 50.6866 42.5027 50.6972 42.5228 50.6972C42.5456 50.6972 42.5657 50.6866 42.5856 50.669C42.5999 50.6549 42.6085 50.6408 42.6142 50.6197C42.6171 50.6092 42.6171 50.5845 42.6171 50.5493V50.5211ZM42.457 50.4014L42.3484 50.3768C42.3599 50.3204 42.3827 50.2817 42.4113 50.2535C42.4428 50.2254 42.4856 50.2148 42.5456 50.2148C42.5999 50.2148 42.6371 50.2218 42.6656 50.2394C42.6914 50.2535 42.7085 50.2746 42.7199 50.2993C42.7314 50.3204 42.7371 50.3662 42.7371 50.4296L42.7342 50.6021C42.7342 50.6514 42.7371 50.6866 42.74 50.7113C42.7428 50.7359 42.7514 50.7606 42.7628 50.7887H42.6428C42.6399 50.7782 42.6342 50.7641 42.6314 50.743C42.6285 50.7359 42.6285 50.7289 42.6256 50.7254C42.6057 50.7535 42.5828 50.7711 42.5628 50.7817C42.5371 50.7958 42.5142 50.8028 42.4856 50.8028C42.4399 50.8028 42.4027 50.7852 42.377 50.7535C42.3513 50.7218 42.337 50.6831 42.337 50.6338C42.337 50.6056 42.3427 50.5739 42.3541 50.5493C42.3656 50.5282 42.3827 50.507 42.4056 50.493C42.4285 50.4789 42.4599 50.4683 42.5027 50.4613C42.557 50.4472 42.597 50.4331 42.6171 50.4225V50.4084C42.6171 50.3803 42.6113 50.3592 42.5999 50.3451C42.5885 50.3345 42.5685 50.3275 42.5371 50.3275C42.5142 50.3275 42.4971 50.3345 42.4856 50.3451C42.4742 50.3556 42.4656 50.3732 42.457 50.4014ZM41.8854 50.2254H42.297V50.3451H42.1513V50.7887H42.0312V50.3451H41.8854V50.2254ZM41.4053 50.2254H41.5254V50.4331H41.6997V50.2254H41.8197V50.7887H41.6997V50.5528H41.5254V50.7887H41.4053V50.2254ZM40.9709 50.507C40.9709 50.5634 40.9824 50.6056 41.0053 50.6338C41.0252 50.6655 41.051 50.6796 41.0824 50.6796C41.1139 50.6796 41.1396 50.6655 41.1624 50.6338C41.1825 50.6056 41.1939 50.5634 41.1939 50.507C41.1939 50.4507 41.1825 50.4084 41.1624 50.3803C41.1396 50.3521 41.1139 50.3345 41.0824 50.3345C41.051 50.3345 41.0252 50.3521 41.0053 50.3803C40.9824 50.4084 40.9709 50.4542 40.9709 50.507ZM40.8481 50.5C40.8481 50.4507 40.8595 50.4049 40.8766 50.3556C40.8995 50.3099 40.9252 50.2746 40.9624 50.2535C40.9967 50.2254 41.0395 50.2148 41.0824 50.2148C41.151 50.2148 41.2082 50.243 41.2511 50.2993C41.2939 50.3521 41.3168 50.4225 41.3168 50.507C41.3168 50.5915 41.2939 50.662 41.2511 50.7183C41.2053 50.7746 41.151 50.8028 41.0824 50.8028C41.0424 50.8028 41.0024 50.7887 40.9653 50.7676C40.9252 50.743 40.8995 50.7077 40.8766 50.662C40.8595 50.6197 40.8481 50.5634 40.8481 50.5ZM40.245 50.2254H40.3937L40.5051 50.6162L40.6195 50.2254H40.768V50.7887H40.6652V50.419L40.5566 50.7887H40.4537L40.348 50.419V50.7887H40.245V50.2254ZM40.0365 50.4613C40.0336 50.4155 40.025 50.3838 40.0079 50.3627C39.9907 50.3415 39.9707 50.3275 39.9479 50.3275C39.9193 50.3275 39.8993 50.3415 39.8821 50.3627C39.865 50.3873 39.8564 50.419 39.8564 50.4613H40.0365ZM40.0279 50.6092L40.1479 50.6338C40.1336 50.6866 40.1079 50.7289 40.0765 50.7606C40.0422 50.7852 40.0022 50.8028 39.9507 50.8028C39.8707 50.8028 39.8136 50.7711 39.7764 50.7042C39.745 50.6549 39.7307 50.588 39.7307 50.5141C39.7307 50.419 39.7507 50.3451 39.7907 50.2923C39.8279 50.2394 39.8793 50.2148 39.9393 50.2148C40.005 50.2148 40.0593 50.243 40.0993 50.2993C40.1365 50.3521 40.1565 50.4366 40.1536 50.5493H39.8536C39.8536 50.5951 39.865 50.6268 39.8821 50.6549C39.9021 50.6761 39.925 50.6901 39.9507 50.6901C39.9707 50.6901 39.985 50.6831 39.9993 50.669C40.0136 50.6585 40.0222 50.6373 40.0279 50.6092ZM39.3448 50.5C39.3448 50.5599 39.3563 50.6056 39.3763 50.6373C39.3963 50.669 39.422 50.6831 39.4506 50.6831C39.4791 50.6831 39.5021 50.669 39.5192 50.6408C39.5392 50.6127 39.5477 50.5669 39.5477 50.507C39.5477 50.4472 39.5363 50.4014 39.5192 50.3732C39.4992 50.3451 39.4763 50.331 39.4478 50.331C39.4192 50.331 39.3935 50.3451 39.3763 50.3732C39.3563 50.4014 39.3448 50.4437 39.3448 50.5ZM39.2277 50.2254H39.3391V50.3099C39.3534 50.2817 39.3734 50.2606 39.3991 50.2394C39.4249 50.2218 39.4506 50.2148 39.482 50.2148C39.5334 50.2148 39.5792 50.2394 39.6163 50.2923C39.6535 50.3415 39.6706 50.412 39.6706 50.5035C39.6706 50.5986 39.6535 50.6725 39.6163 50.7218C39.5792 50.7746 39.5334 50.8028 39.482 50.8028C39.4563 50.8028 39.4335 50.7958 39.4106 50.7817C39.3906 50.7711 39.3706 50.75 39.3477 50.7183V51H39.2277V50.2254ZM38.4475 50.2254H38.5618V50.5775L38.7476 50.2254H38.8647V50.7887H38.7504V50.4296L38.5618 50.7887H38.4475V50.2254ZM37.6673 50.2254H37.7816V50.5775L37.9674 50.2254H38.0845V50.7887H37.9703V50.4296L37.7816 50.7887H37.6673V50.2254ZM37.2272 50.2254H37.3472V50.4542C37.3673 50.4542 37.3816 50.4472 37.3901 50.4331C37.3987 50.419 37.4073 50.3944 37.4187 50.3521C37.433 50.2993 37.4501 50.2641 37.4701 50.2465C37.4873 50.2324 37.513 50.2218 37.5416 50.2218C37.5501 50.2218 37.5673 50.2254 37.5901 50.2254V50.3239C37.5587 50.3239 37.5358 50.3275 37.5302 50.3345C37.5215 50.3415 37.5101 50.3662 37.4987 50.4049C37.4873 50.4542 37.4672 50.4859 37.4387 50.5C37.4787 50.5141 37.5101 50.5528 37.5358 50.6197C37.5358 50.6268 37.5387 50.6268 37.5416 50.6338L37.6073 50.7887H37.4787L37.4187 50.6232C37.4073 50.5915 37.3958 50.5704 37.3872 50.5599C37.3787 50.5528 37.3644 50.5458 37.3472 50.5458V50.7887H37.2272V50.2254ZM36.9786 50H37.0357C37.0329 50.0493 37.0186 50.088 36.9957 50.1127C36.97 50.1408 36.9414 50.1549 36.9043 50.1549C36.8643 50.1549 36.8329 50.1408 36.81 50.1127C36.7871 50.088 36.7728 50.0493 36.7699 50H36.8271C36.83 50.0246 36.8385 50.0458 36.85 50.0563C36.8614 50.0704 36.8785 50.0775 36.9043 50.0775C36.9243 50.0775 36.9443 50.0704 36.9557 50.0563C36.9672 50.0458 36.9757 50.0246 36.9786 50ZM36.6928 50.2254H36.8071V50.5775L36.99 50.2254H37.11V50.7887H36.9929V50.4296L36.8071 50.7887H36.6928V50.2254ZM36.2555 50.507C36.2555 50.5634 36.267 50.6056 36.287 50.6338C36.3098 50.6655 36.3356 50.6796 36.367 50.6796C36.3984 50.6796 36.4242 50.6655 36.4441 50.6338C36.467 50.6056 36.4756 50.5634 36.4756 50.507C36.4756 50.4507 36.467 50.4084 36.4441 50.3803C36.4242 50.3521 36.3984 50.3345 36.367 50.3345C36.3356 50.3345 36.3098 50.3521 36.287 50.3803C36.267 50.4084 36.2555 50.4542 36.2555 50.507ZM36.1327 50.5C36.1327 50.4507 36.1412 50.4049 36.1613 50.3556C36.1812 50.3099 36.2098 50.2746 36.2441 50.2535C36.2813 50.2254 36.3213 50.2148 36.367 50.2148C36.4356 50.2148 36.4899 50.243 36.5356 50.2993C36.5785 50.3521 36.6014 50.4225 36.6014 50.507C36.6014 50.5915 36.5785 50.662 36.5356 50.7183C36.4899 50.7746 36.4327 50.8028 36.367 50.8028C36.3241 50.8028 36.287 50.7887 36.247 50.7676C36.2098 50.743 36.1812 50.7077 36.1613 50.662C36.1412 50.6197 36.1327 50.5634 36.1327 50.5ZM35.7411 50.5C35.7411 50.5599 35.7497 50.6056 35.7725 50.6373C35.7926 50.669 35.8154 50.6831 35.844 50.6831C35.8726 50.6831 35.8954 50.669 35.9126 50.6408C35.9326 50.6127 35.9412 50.5669 35.9412 50.507C35.9412 50.4472 35.9326 50.4014 35.9126 50.3732C35.8954 50.3451 35.8697 50.331 35.8411 50.331C35.8126 50.331 35.7897 50.3451 35.7697 50.3732C35.7497 50.4014 35.7411 50.4437 35.7411 50.5ZM35.624 50.2254H35.7354V50.3099C35.7497 50.2817 35.7697 50.2606 35.7926 50.2394C35.8183 50.2218 35.8469 50.2148 35.8755 50.2148C35.9298 50.2148 35.9726 50.2394 36.0098 50.2923C36.0469 50.3415 36.0641 50.412 36.0641 50.5035C36.0641 50.5986 36.0469 50.6725 36.0098 50.7218C35.9726 50.7746 35.9269 50.8028 35.8755 50.8028C35.8498 50.8028 35.8268 50.7958 35.8069 50.7817C35.7868 50.7711 35.764 50.75 35.7411 50.7183V51H35.624V50.2254ZM35.1438 50.2254H35.5554V50.3451H35.4096V50.7887H35.2896V50.3451H35.1438V50.2254ZM35.1067 50.3944L34.9895 50.419C34.9838 50.3908 34.9753 50.3697 34.961 50.3521C34.9467 50.338 34.9295 50.331 34.9067 50.331C34.8781 50.331 34.8524 50.3451 34.8352 50.3697C34.8181 50.3944 34.8095 50.4366 34.8095 50.4965C34.8095 50.5634 34.8181 50.6127 34.8352 50.6373C34.8524 50.6655 34.8781 50.6796 34.9095 50.6796C34.9324 50.6796 34.9495 50.6725 34.9638 50.6549C34.9781 50.6408 34.9895 50.6127 34.9952 50.5739L35.1124 50.5986C35.101 50.6655 35.0781 50.7148 35.041 50.75C35.0095 50.7852 34.961 50.8028 34.9038 50.8028C34.8352 50.8028 34.7838 50.7746 34.7438 50.7218C34.7037 50.6725 34.6838 50.5986 34.6838 50.507C34.6838 50.4155 34.7037 50.3451 34.7438 50.2923C34.7838 50.2394 34.8381 50.2148 34.9067 50.2148C34.961 50.2148 35.0038 50.2289 35.0352 50.2606C35.0696 50.2887 35.0924 50.3345 35.1067 50.3944ZM34.2265 50.3204H34.1408C34.1093 50.3204 34.0865 50.3275 34.075 50.338C34.0607 50.3486 34.055 50.3662 34.055 50.3944C34.055 50.419 34.0607 50.4401 34.0779 50.4507C34.0922 50.4613 34.115 50.4683 34.1493 50.4683H34.2265V50.3204ZM34.3465 50.2254V50.7887H34.2265V50.5528H34.2179C34.1893 50.5528 34.1722 50.5599 34.1579 50.5669C34.1465 50.5739 34.1322 50.5951 34.1179 50.6197L34.1122 50.6303L34.0322 50.7887H33.8921L33.9779 50.6232C34.0036 50.5775 34.0236 50.5528 34.0436 50.5458C34.0121 50.5422 33.9836 50.5282 33.9636 50.4965C33.9407 50.4683 33.9293 50.4331 33.9293 50.3873C33.9293 50.3486 33.9378 50.3204 33.9521 50.2923C33.9664 50.2676 33.9836 50.25 34.0064 50.2394C34.0293 50.2324 34.0665 50.2254 34.1093 50.2254H34.3465ZM33.4349 50.2254H33.835V50.7887H33.7149V50.3451H33.552V50.5986C33.552 50.662 33.5463 50.7077 33.5349 50.7324C33.5235 50.7606 33.5092 50.7782 33.4949 50.7852C33.4806 50.7923 33.4577 50.7958 33.4234 50.7958C33.4063 50.7958 33.3806 50.7923 33.3491 50.7887V50.6796C33.352 50.6796 33.3577 50.6796 33.3691 50.6796C33.3806 50.6796 33.392 50.6796 33.3977 50.6796C33.4149 50.6796 33.4234 50.6725 33.4292 50.662C33.432 50.6479 33.4349 50.6127 33.4349 50.5528V50.2254ZM33.1519 50.6655V50.3486H33.0062C33.0005 50.5035 32.9805 50.6092 32.9462 50.6655H33.1519ZM33.2205 50.7887H32.8776V50.9331H32.7804V50.6655H32.829C32.849 50.6373 32.8662 50.5951 32.8805 50.5352C32.8947 50.4753 32.9005 50.3732 32.9033 50.2254H33.2691V50.6655H33.3177V50.9331H33.2205V50.7887ZM32.3346 50.1549V50.0246H32.4375V50.1549H32.3346ZM32.1488 50.1549V50.0246H32.2546V50.1549H32.1488ZM32.386 50.4613C32.386 50.4155 32.3775 50.3838 32.3603 50.3627C32.3432 50.3415 32.3232 50.3275 32.2975 50.3275C32.2717 50.3275 32.2489 50.3415 32.2317 50.3627C32.2146 50.3873 32.206 50.419 32.206 50.4613H32.386ZM32.3803 50.6092L32.5004 50.6338C32.4832 50.6866 32.4604 50.7289 32.4261 50.7606C32.3918 50.7852 32.3518 50.8028 32.3003 50.8028C32.2232 50.8028 32.166 50.7711 32.126 50.7042C32.0974 50.6549 32.0831 50.588 32.0831 50.5141C32.0831 50.419 32.1003 50.3451 32.1403 50.2923C32.1803 50.2394 32.2289 50.2148 32.2889 50.2148C32.3575 50.2148 32.4089 50.243 32.4489 50.2993C32.4889 50.3521 32.5061 50.4366 32.5061 50.5493H32.206C32.206 50.5951 32.2146 50.6268 32.2346 50.6549C32.2517 50.6761 32.2746 50.6901 32.3032 50.6901C32.3232 50.6901 32.3375 50.6831 32.3489 50.669C32.3632 50.6585 32.3718 50.6373 32.3803 50.6092ZM32.026 50.3944L31.9059 50.419C31.9031 50.3908 31.8945 50.3697 31.8802 50.3521C31.8659 50.338 31.8488 50.331 31.8259 50.331C31.7945 50.331 31.7716 50.3451 31.7545 50.3697C31.7373 50.3944 31.7259 50.4366 31.7259 50.4965C31.7259 50.5634 31.7373 50.6127 31.7545 50.6373C31.7716 50.6655 31.7973 50.6796 31.8259 50.6796C31.8488 50.6796 31.8688 50.6725 31.8831 50.6549C31.8974 50.6408 31.9088 50.6127 31.9145 50.5739L32.0317 50.5986C32.0202 50.6655 31.9974 50.7148 31.9602 50.75C31.9259 50.7852 31.8802 50.8028 31.8202 50.8028C31.7545 50.8028 31.703 50.7746 31.663 50.7218C31.623 50.6725 31.603 50.5986 31.603 50.507C31.603 50.4155 31.623 50.3451 31.663 50.2923C31.703 50.2394 31.7573 50.2148 31.8231 50.2148C31.8774 50.2148 31.9231 50.2289 31.9545 50.2606C31.9888 50.2887 32.0117 50.3345 32.026 50.3944ZM31.1257 50.4507V50.6549H31.2429C31.2886 50.6549 31.3172 50.6549 31.3315 50.6514C31.3487 50.6479 31.3629 50.6373 31.3772 50.6197C31.3887 50.6056 31.3944 50.581 31.3944 50.5528C31.3944 50.5317 31.3887 50.5106 31.3801 50.4965C31.3715 50.4789 31.3572 50.4683 31.3401 50.4613C31.3229 50.4542 31.2858 50.4507 31.2286 50.4507H31.1257ZM31.1257 50.1408V50.3204H31.2086C31.2572 50.3204 31.2886 50.3204 31.3001 50.3169C31.3229 50.3134 31.3401 50.3063 31.3515 50.2923C31.3629 50.2746 31.3687 50.257 31.3687 50.2289C31.3687 50.2077 31.3658 50.1866 31.3544 50.1725C31.3429 50.1584 31.3287 50.1479 31.3058 50.1444C31.2944 50.1444 31.2572 50.1408 31.2 50.1408H31.1257ZM31 50.0141H31.2515C31.3001 50.0141 31.3372 50.0176 31.3601 50.0211C31.3858 50.0246 31.4087 50.0387 31.4258 50.0528C31.4458 50.0704 31.4601 50.0915 31.4744 50.1162C31.4887 50.1444 31.4944 50.1725 31.4944 50.2077C31.4944 50.243 31.4858 50.2782 31.4687 50.3063C31.4544 50.338 31.4344 50.3592 31.4058 50.3768C31.443 50.3908 31.4715 50.412 31.4944 50.4472C31.5144 50.4789 31.523 50.5176 31.523 50.5634C31.523 50.5986 31.5173 50.6303 31.5058 50.6655C31.4915 50.6972 31.4715 50.7254 31.4515 50.7465C31.4258 50.7641 31.4001 50.7782 31.3658 50.7817C31.3429 50.7852 31.2944 50.7852 31.2115 50.7887H31V50.0141Z" fill="#034899"/>
<path d="M33.4282 15.0668L31.0483 12.5817L30 13.6764L32.9656 16.7732C33.105 16.9195 33.2933 17 33.4898 17C33.5039 17 33.5172 16.9992 33.5305 16.9985C33.7411 16.9861 33.9368 16.8815 34.0688 16.7097L40 8.96774L38.8419 8L33.4282 15.0668Z" fill="#E6330F"/>
</svg>
