<svg width="60" height="60" viewBox="0 0 60 60" fill="none" xmlns="http://www.w3.org/2000/svg">
<path d="M0.129159 5.55541L4.17343 12.6339C4.30984 12.873 4.53818 13.0461 4.80519 13.1131L8.57829 14.0565L21.5192 27L22.9491 25.5702L9.80562 12.4246C9.67628 12.2948 9.51407 12.2029 9.33648 12.1584L5.71103 11.2486L2.26775 5.21846L5.21985 2.26578L11.2513 5.71307L12.1613 9.33923C12.2054 9.51728 12.2977 9.67993 12.4271 9.8093L25.5705 22.9553L27 21.5252L14.0591 8.58172L13.1158 4.80996C13.0489 4.54248 12.8758 4.31368 12.6367 4.17682L5.55922 0.132173C5.16453 -0.0924602 4.66794 -0.0259021 4.34603 0.294824L0.302176 4.33989C-0.0230627 4.65979 -0.0937666 5.15731 0.129159 5.55541Z" fill="#034899"/>
<path d="M41 19.3889L19.3893 41L18 39.6107L39.6111 18L41 19.3889Z" fill="#034899"/>
<path d="M15.8573 42.485C15.6763 42.1839 15.3513 42 15 42H8.99999C8.64908 42 8.32367 42.1839 8.14307 42.485L5.14285 47.485C4.95238 47.8017 4.95238 48.1979 5.14285 48.515L8.14307 53.515C8.32367 53.8157 8.64908 54 8.99999 54H15C15.3513 54 15.6763 53.8157 15.8573 53.515L18.8571 48.515C19.0476 48.1979 19.0476 47.8017 18.8571 47.485L15.8573 42.485ZM14.4344 51.9999H9.56605L7.16604 48L9.56605 43.9997H14.4344L16.8344 48L14.4344 51.9999Z" fill="#E6330F"/>
<path d="M47.9795 23.991C54.5813 24.0132 59.9515 18.6793 59.9738 12.0777C59.977 11.0728 59.8537 10.072 59.6066 9.09786C59.4733 8.56209 58.931 8.23602 58.3952 8.36924C58.2192 8.41324 58.0588 8.50411 57.9305 8.63199L51.7082 14.8499L46.7714 13.2048L45.125 8.26932L51.3472 2.04603C51.7374 1.65541 51.737 1.02259 51.3464 0.63238C51.2177 0.503679 51.0557 0.412396 50.8784 0.36881C44.4761 -1.25249 37.9722 2.62293 36.3508 9.02467C36.1045 9.99589 35.9815 10.9942 35.9848 11.9963C35.9873 12.7833 36.0683 13.5679 36.2278 14.3384L14.3369 36.2283C13.5663 36.0691 12.7817 35.9881 11.9951 35.9853C5.37026 35.9853 0 41.3553 0 47.9799C0 54.6041 5.37026 59.9742 11.9951 59.9742C18.6195 59.9742 23.9897 54.6041 23.9897 47.9799C23.9873 47.1929 23.9059 46.4084 23.7467 45.6378L28.9875 40.3973L31.2795 42.6892C31.6701 43.0794 32.3025 43.0794 32.6932 42.6892L33.1928 42.1892C33.6311 41.7538 34.3396 41.7538 34.778 42.1892C35.2159 42.6259 35.2167 43.3348 34.78 43.7727C34.7796 43.7731 34.7788 43.7739 34.778 43.7748L34.2784 44.2743C33.8881 44.6646 33.8881 45.2974 34.2784 45.6876L46.2023 57.6111C49.3385 60.776 54.4464 60.7991 57.6114 57.6629C60.776 54.5268 60.799 49.4187 57.6628 46.2542C57.646 46.2369 57.6287 46.2197 57.6114 46.2024L45.6875 34.2793C45.2972 33.889 44.6644 33.889 44.2742 34.2793L43.7746 34.7788C43.3358 35.2147 42.6277 35.2147 42.189 34.7788C41.7515 34.3422 41.7502 33.6333 42.1869 33.1958C42.1878 33.195 42.1886 33.1945 42.189 33.1937L42.689 32.6937C43.0792 32.3035 43.0792 31.6707 42.689 31.2805L40.397 28.9885L45.6377 23.748C46.4083 23.9071 47.1929 23.9885 47.9795 23.991ZM51.9069 57.9754C51.1807 57.9742 50.4607 57.843 49.781 57.5877L57.5876 49.7809C58.7657 52.9146 57.1805 56.4097 54.0467 57.5877C53.3629 57.8447 52.638 57.9763 51.9069 57.9754ZM40.5829 31.9972C39.4759 33.3175 39.6494 35.2854 40.9698 36.3919C42.1302 37.3644 43.8215 37.3636 44.9806 36.389L56.1981 47.6161C56.3198 47.7382 56.4337 47.8669 56.5439 47.9976L47.9976 56.5437C47.8664 56.4339 47.7377 56.32 47.6156 56.1979L36.3895 44.9713C37.4964 43.651 37.3229 41.6831 36.0025 40.5766C34.8421 39.6037 33.1504 39.6049 31.9913 40.579L30.3921 38.9799L38.9833 30.4018L40.5829 31.9972ZM44.6192 21.9441L21.9436 44.6144C21.6948 44.8628 21.5949 45.2234 21.6796 45.5642C23.051 50.9495 19.7968 56.4269 14.4109 57.7978C9.0254 59.1691 3.54782 55.915 2.17648 50.5293C0.805538 45.144 4.05977 39.6666 9.44565 38.2953C11.0748 37.8808 12.7817 37.8808 14.4109 38.2953C14.7518 38.3788 15.1116 38.2789 15.3607 38.0317L38.031 15.361C38.2793 15.1127 38.3792 14.7521 38.2937 14.4116C36.9318 9.08923 40.1425 3.67063 45.465 2.30837C46.4708 2.05138 47.5111 1.9527 48.5474 2.01725L43.2746 7.29194C43.0069 7.55921 42.9131 7.95518 43.0328 8.31414L45.0316 14.3117C45.1315 14.6098 45.3659 14.8442 45.6644 14.9433L51.6622 16.9425C52.0208 17.0621 52.4167 16.9688 52.6844 16.7015L57.9572 11.4289C57.9692 11.6197 57.9753 11.8084 57.9753 11.9963C58.0033 17.4885 53.5739 21.9634 48.0815 21.9918C47.2323 21.9959 46.3861 21.8915 45.5637 21.681C45.2228 21.5958 44.8622 21.6953 44.6138 21.9437H44.6192V21.9441Z" fill="#034899"/>
<path d="M51 49.637L49.637 51L40 41.363L41.3626 40L51 49.637Z" fill="#E6330F"/>
</svg>
