<svg width="60" height="60" viewBox="0 0 60 60" fill="none" xmlns="http://www.w3.org/2000/svg">
<path d="M50 10.594V5C49.9965 2.24 47.76 0.0035 45 0H5C2.24 0.0035 0.0035 2.24 0 5V27C0.00775002 29.5538 1.9435 31.6895 4.484 31.9485L8.243 41.7063C9.236 44.2828 12.1295 45.5663 14.7063 44.5745L38.18 35.532C36.558 39.7688 37.0195 44.5215 39.4255 48.3673L40 49.286V59C40 59.5525 40.4475 60 41 60H59C59.5525 60 60 59.5525 60 59V25.9913C59.9905 22.533 58.6138 19.2195 56.1688 16.7738L50 10.594ZM50 16.5745L53.035 24.453C53.6298 25.9995 52.859 27.7348 51.3128 28.33L49.578 29C49.855 28.3695 49.9985 27.688 50 27V16.5745ZM2 27V5C2 3.3435 3.3435 2 5 2H45C46.6565 2 48 3.3435 48 5V11.356H47.9913L48 11.3788V27C47.9923 27.1745 47.9695 27.3475 47.932 27.518L38.772 18.357C36.713 16.3455 33.4305 16.33 31.353 18.3205C29.275 20.3123 29.1503 23.5923 31.072 25.7348L34.977 30H5C3.3435 30 2 28.6565 2 27ZM14.811 32L7.7 34.7378L6.648 32H14.811ZM13.987 42.7078C12.441 43.3038 10.7048 42.533 10.109 40.987L8.422 36.6L20.359 32V31.994H36.81L38.1098 33.411L13.987 42.7078ZM58 58H42V50H58V58ZM58 48H41.555L41.1213 47.307C38.683 43.4105 38.586 38.489 40.868 34.5C41.084 34.1225 41.031 33.6485 40.737 33.328L32.5423 24.388C31.3203 23.0505 31.389 20.9828 32.6973 19.73C34.006 18.477 36.0748 18.4975 37.3577 19.7755L53.293 35.707L54.707 34.293L51.007 30.593L52.033 30.193C54.6075 29.1998 55.8905 26.3088 54.9 23.7328L51.5153 14.9438L54.7548 18.19C56.8248 20.2595 57.992 23.064 58 25.9913V48Z" fill="#034899"/>
<path d="M5 17H9V19H5V17Z" fill="#034899"/>
<path d="M5 23H9V25H5V23Z" fill="#034899"/>
<path d="M23 23H27V25H23V23Z" fill="#034899"/>
<path d="M11 17H15V19H11V17Z" fill="#034899"/>
<path d="M17 17H21V19H17V17Z" fill="#034899"/>
<path d="M23 17H27V19H23V17Z" fill="#034899"/>
<path d="M42 5H44V7.99999H42V5Z" fill="#034899"/>
<path d="M38 5H40V7.99999H38V5Z" fill="#034899"/>
<path d="M34 5H36V7.99999H34V5Z" fill="#034899"/>
<path d="M44 52H46V54H44V52Z" fill="#034899"/>
<path d="M7.14453 6.79639C7.13314 7.04378 7.06641 7.2627 6.94434 7.45312C6.82227 7.64193 6.65055 7.78841 6.4292 7.89258C6.20947 7.99674 5.95801 8.04883 5.6748 8.04883C5.20768 8.04883 4.83984 7.89665 4.57129 7.59229C4.30273 7.28792 4.16846 6.85824 4.16846 6.30322V6.12744C4.16846 5.77913 4.22868 5.47477 4.34912 5.21436C4.47119 4.95231 4.64616 4.75049 4.87402 4.60889C5.10189 4.46566 5.36556 4.39404 5.66504 4.39404C6.09635 4.39404 6.44303 4.50798 6.70508 4.73584C6.96712 4.96208 7.11605 5.27458 7.15186 5.67334H6.29736C6.29085 5.45687 6.23633 5.30143 6.13379 5.20703C6.03125 5.11263 5.875 5.06543 5.66504 5.06543C5.45182 5.06543 5.29557 5.14518 5.19629 5.30469C5.09701 5.46419 5.04492 5.71891 5.04004 6.06885V6.32031C5.04004 6.69954 5.08724 6.97054 5.18164 7.1333C5.27767 7.29606 5.44206 7.37744 5.6748 7.37744C5.87174 7.37744 6.0223 7.33105 6.12646 7.23828C6.23063 7.14551 6.28597 6.99821 6.29248 6.79639H7.14453ZM9.8252 5.98828H8.99268V8H8.16504V5.98828H7.34473V5.3584H9.8252V5.98828ZM12.5864 6.69873C12.5864 7.10889 12.4937 7.43685 12.3081 7.68262C12.1242 7.92676 11.8752 8.04883 11.561 8.04883C11.3185 8.04883 11.1191 7.96012 10.9629 7.78271V9.01562H10.1401V5.3584H10.9092L10.9336 5.60254C11.0915 5.40723 11.299 5.30957 11.5562 5.30957C11.8817 5.30957 12.1348 5.43001 12.3154 5.6709C12.4961 5.91016 12.5864 6.23975 12.5864 6.65967V6.69873ZM11.7637 6.64746C11.7637 6.17871 11.627 5.94434 11.3535 5.94434C11.1582 5.94434 11.028 6.01432 10.9629 6.1543V7.19434C11.0345 7.34082 11.1663 7.41406 11.3584 7.41406C11.6204 7.41406 11.7555 7.18783 11.7637 6.73535V6.64746ZM12.8477 6.65479C12.8477 6.39111 12.8989 6.15674 13.0015 5.95166C13.104 5.74495 13.2513 5.58626 13.4434 5.47559C13.6354 5.36491 13.8608 5.30957 14.1196 5.30957C14.5151 5.30957 14.8268 5.43245 15.0547 5.67822C15.2826 5.92236 15.3965 6.25521 15.3965 6.67676V6.70605C15.3965 7.11784 15.2817 7.44499 15.0522 7.6875C14.8244 7.92839 14.5151 8.04883 14.1245 8.04883C13.7485 8.04883 13.4466 7.93652 13.2188 7.71191C12.9909 7.48568 12.868 7.17969 12.8501 6.79395L12.8477 6.65479ZM13.6704 6.70605C13.6704 6.9502 13.7087 7.12923 13.7852 7.24316C13.8617 7.3571 13.9748 7.41406 14.1245 7.41406C14.4175 7.41406 14.5672 7.18864 14.5737 6.73779V6.65479C14.5737 6.18115 14.4224 5.94434 14.1196 5.94434C13.8446 5.94434 13.6956 6.1486 13.6729 6.55713L13.6704 6.70605ZM17.2959 5.3584H18.1211V8H17.2959V6.46191L16.5708 8H15.7432V5.3584H16.5708V6.8916L17.2959 5.3584ZM17.855 4.24512C17.855 4.4681 17.7728 4.64876 17.6084 4.78711C17.444 4.92546 17.2251 4.99463 16.9517 4.99463C16.6782 4.99463 16.4593 4.92546 16.2949 4.78711C16.1305 4.64876 16.0483 4.4681 16.0483 4.24512H16.6074C16.6074 4.34277 16.6375 4.41927 16.6978 4.47461C16.7596 4.52832 16.8442 4.55518 16.9517 4.55518C17.0591 4.55518 17.1421 4.52913 17.2007 4.47705C17.2609 4.42334 17.291 4.34603 17.291 4.24512H17.855ZM19.8569 6.59375H19.4517V8H18.5947V4.44531H19.4517V5.81982H19.7812L20.4648 4.44531H21.5024L20.5259 6.08594L21.6245 8H20.6113L19.8569 6.59375ZM24.1587 5.3584V8H23.3359V5.99316H22.8428L22.7988 6.80127C22.7679 7.20166 22.6776 7.50114 22.5278 7.69971C22.3781 7.89827 22.1559 7.99837 21.8613 8H21.6025L21.5928 7.37012L21.6782 7.36035C21.7873 7.34733 21.8678 7.2749 21.9199 7.14307C21.9736 7.0096 22.0078 6.80859 22.0225 6.54004L22.0737 5.3584H24.1587ZM25.6626 6.84766L26.1021 5.3584H26.9834L25.9067 8.44189L25.8604 8.5542C25.7074 8.896 25.4372 9.06689 25.0498 9.06689C24.9424 9.06689 24.8293 9.05062 24.7104 9.01807V8.42969H24.8179C24.9334 8.42969 25.0213 8.4126 25.0815 8.37842C25.1434 8.34587 25.189 8.28646 25.2183 8.2002L25.2842 8.02441L24.3662 5.3584H25.2451L25.6626 6.84766ZM28.5874 5.50488C28.9325 5.50488 29.2059 5.618 29.4077 5.84424C29.6112 6.07048 29.7129 6.37891 29.7129 6.76953V6.80371C29.7129 7.05111 29.6616 7.27002 29.5591 7.46045C29.4565 7.64925 29.3084 7.79492 29.1147 7.89746C28.9227 8 28.6973 8.05127 28.4385 8.05127C28.0479 8.05127 27.7362 7.92594 27.5034 7.67529C27.2723 7.42464 27.1567 7.07959 27.1567 6.64014V6.56201C27.16 5.9598 27.2593 5.48617 27.4546 5.14111C27.6499 4.79606 27.9486 4.57878 28.3506 4.48926C28.5312 4.44857 28.6493 4.40951 28.7046 4.37207C28.7616 4.33301 28.79 4.27279 28.79 4.19141H29.4517C29.4517 4.39486 29.4199 4.54948 29.3564 4.65527C29.2946 4.76107 29.1953 4.84896 29.0586 4.91895C28.9235 4.9873 28.7331 5.04427 28.4873 5.08984C28.2936 5.12565 28.1439 5.20215 28.0381 5.31934C27.9339 5.4349 27.8631 5.59684 27.8257 5.80518C28.0454 5.60498 28.2993 5.50488 28.5874 5.50488ZM28.4336 6.13965C28.1325 6.13965 27.9819 6.34798 27.9819 6.76465V6.80371C27.9819 7.21224 28.1341 7.4165 28.4385 7.4165C28.7331 7.4165 28.8836 7.22119 28.8901 6.83057V6.75244C28.8901 6.34391 28.738 6.13965 28.4336 6.13965Z" fill="#E6330F"/>
</svg>
