<svg width="60" height="60" viewBox="0 0 60 60" fill="none" xmlns="http://www.w3.org/2000/svg">
<path d="M55.7999 27.1095L54.2461 20.8869C54.6709 20.7966 54.9896 20.4192 54.9896 19.9672V18.9639C54.9896 16.7855 53.2195 15.0134 51.0439 15.0134H43.9667V12.9439C43.9667 11.872 43.0958 11 42.0252 11H5.94986C4.87923 11 4.00829 11.872 4.00829 12.9439V30.0002C4.00829 30.5196 4.42888 30.9408 4.94778 30.9408C5.46657 30.9408 5.88728 30.5197 5.88728 30.0002V12.9439C5.88728 12.9093 5.91529 12.8813 5.94986 12.8813H42.025C42.0596 12.8813 42.0876 12.9093 42.0876 12.9439V30.0004C42.0876 30.5198 42.5082 30.941 43.0271 30.941C43.5459 30.941 43.9666 30.5199 43.9666 30.0004V28.9341H55.0489L55.0514 28.9344L55.054 28.9342C56.4177 28.9352 57.5756 29.8313 57.9734 31.0662H55.0521C54.5333 31.0662 54.1126 31.4873 54.1126 32.0069V34.0134C54.1126 35.6386 55.4331 36.9607 57.0562 36.9607H58.121V41.0992H55.6645C54.8576 38.7664 52.6426 37.086 50.0416 37.086C47.4406 37.086 45.2256 38.7664 44.4187 41.0992H43.9664L43.9666 29.8748C43.9666 29.3553 43.546 28.9341 43.0271 28.9341C42.5083 28.9341 42.0876 29.3552 42.0876 29.8748L42.0874 41.099H22.5958C21.7888 38.7661 19.5739 37.0857 16.9729 37.0857C14.3719 37.0857 12.1568 38.7661 11.35 41.099H5.94986C5.91529 41.099 5.88728 41.071 5.88728 41.0363V38.967H9.95826C10.4771 38.967 10.8978 38.5459 10.8978 38.0264C10.8978 37.5068 10.4772 37.0857 9.95826 37.0857H0.939494C0.420704 37.0857 0 37.5068 0 38.0264C0 38.5459 0.420587 38.967 0.939494 38.967H4.00841V41.0363C4.00841 42.1083 4.87934 42.9803 5.94997 42.9803H11.0247C11.0244 43.0012 11.023 43.0219 11.023 43.0429C11.023 46.3277 13.6922 49 16.9729 49C20.2536 49 22.9227 46.3277 22.9227 43.0429C22.9227 43.0218 22.9213 43.0012 22.9211 42.9803H44.0934C44.0932 43.0012 44.0918 43.0219 44.0918 43.0429C44.0918 46.3277 46.7609 49 50.0416 49C53.3223 49 55.9915 46.3277 55.9915 43.0429C55.9915 43.0218 55.9901 43.0012 55.9898 42.9803H59.0605C59.5793 42.9803 60 42.5592 60 42.0396V32.0066C60.0001 29.5296 58.1747 27.4715 55.7999 27.1095ZM43.9667 16.8945H51.0439C52.1836 16.8945 53.1108 17.8229 53.1108 18.9639V19.0265H43.9667V16.8945ZM43.9667 27.053V20.9077H52.3146L53.8491 27.053H43.9667ZM16.9729 47.1191C14.7282 47.1191 12.9019 45.2907 12.9019 43.0432C12.9019 40.7956 14.7282 38.9672 16.9729 38.9672C19.2176 38.9672 21.0439 40.7956 21.0439 43.0432C21.0439 45.2907 19.2176 47.1191 16.9729 47.1191ZM50.0419 47.1191C47.7971 47.1191 45.9709 45.2907 45.9709 43.0432C45.9709 40.7956 47.7971 38.9672 50.0419 38.9672C52.2866 38.9672 54.1128 40.7956 54.1128 43.0432C54.1128 45.2907 52.2866 47.1191 50.0419 47.1191ZM58.1213 35.0794H57.0565C56.4694 35.0794 55.9917 34.6012 55.9917 34.0133V32.9473H58.1211L58.1213 35.0794Z" fill="#034899"/>
<path d="M17 41C15.8972 41 15 41.8972 15 43C15 44.1028 15.8972 45 17 45C18.1028 45 19 44.1028 19 43C19 41.8972 18.1028 41 17 41Z" fill="#034899"/>
<path d="M50 41C48.8972 41 48 41.8972 48 43C48 44.1028 48.8972 45 50 45C51.1028 45 52 44.1028 52 43C52 41.8972 51.1028 41 50 41Z" fill="#034899"/>
<path d="M39.0551 37H24.9449C24.4231 37 24 37.4477 24 38C24 38.5523 24.423 39 24.9449 39H39.0551C39.5769 39 40 38.5523 40 38C40 37.4477 39.577 37 39.0551 37Z" fill="#034899"/>
<path d="M15.054 33H2.94597C2.42361 33 2 33.4477 2 34C2 34.5523 2.42349 35 2.94597 35H15.054C15.5764 35 16 34.5523 16 34C16 33.4477 15.5764 33 15.054 33Z" fill="#034899"/>
<path d="M32.5211 26.0318C32.3003 26.0318 32.0694 25.9614 31.8487 25.9111C31.4015 25.8122 30.9621 25.6811 30.5339 25.5185C30.0683 25.3486 29.5566 25.3575 29.0971 25.5433C28.6376 25.7291 28.2629 26.0788 28.045 26.525L27.8242 26.978C26.8467 26.4326 25.9485 25.7553 25.1546 24.9649C24.3666 24.1688 23.6912 23.2679 23.1474 22.2876L23.5689 22.0057C24.0139 21.7872 24.3626 21.4114 24.5478 20.9506C24.7331 20.4898 24.7419 19.9765 24.5725 19.5096C24.4132 19.0792 24.2824 18.6387 24.1811 18.191C24.1309 17.9696 24.0908 17.7381 24.0607 17.5066C23.9388 16.7976 23.5686 16.1556 23.0166 15.6961C22.4646 15.2366 21.7672 14.9899 21.0499 15.0003H18.0391C17.6066 14.9962 17.1782 15.0857 16.7833 15.2626C16.3883 15.4394 16.036 15.6995 15.7503 16.0252C15.4646 16.3509 15.2522 16.7346 15.1276 17.15C15.003 17.5654 14.9691 18.0028 15.0283 18.4326C15.5629 22.6493 17.4831 26.5672 20.4855 29.5674C23.4879 32.5676 27.4014 34.4791 31.6078 35H31.9892C32.7292 35.0011 33.4438 34.7288 33.9964 34.235C34.3139 33.9502 34.5675 33.6011 34.7405 33.2107C34.9135 32.8203 35.0019 32.3976 35 31.9704V28.9508C34.9877 28.2516 34.7338 27.5784 34.2817 27.0461C33.8296 26.5138 33.2073 26.1553 32.5211 26.0318ZM33.0229 32.071C33.0227 32.2139 32.9922 32.3552 32.9333 32.4853C32.8745 32.6155 32.7887 32.7316 32.6816 32.8259C32.5698 32.9235 32.4387 32.9964 32.2969 33.0398C32.1551 33.0831 32.0058 33.096 31.8587 33.0775C28.1001 32.5942 24.6089 30.8697 21.9358 28.176C19.2627 25.4824 17.5598 21.9729 17.0957 18.2011C17.0797 18.0536 17.0937 17.9045 17.1368 17.7626C17.18 17.6208 17.2513 17.4891 17.3466 17.3757C17.4406 17.2684 17.5564 17.1823 17.6862 17.1233C17.816 17.0643 17.9568 17.0337 18.0993 17.0335H21.1101C21.3435 17.0283 21.5714 17.1048 21.7546 17.25C21.9377 17.3951 22.0647 17.5997 22.1137 17.8287C22.1538 18.1038 22.204 18.3755 22.2642 18.6439C22.3802 19.1745 22.5345 19.6959 22.7259 20.2041L21.3209 20.8583C21.2007 20.9136 21.0927 20.9921 21.0029 21.0894C20.9131 21.1867 20.8433 21.3008 20.7977 21.4252C20.752 21.5496 20.7312 21.6818 20.7366 21.8142C20.742 21.9467 20.7734 22.0767 20.8291 22.197C22.2735 25.2999 24.7605 27.7941 27.8543 29.2427C28.0987 29.3433 28.3727 29.3433 28.6171 29.2427C28.7422 29.1978 28.8572 29.1284 28.9554 29.0385C29.0536 28.9487 29.1331 28.8402 29.1891 28.7193L29.8113 27.3101C30.3302 27.4962 30.8597 27.6508 31.397 27.7731C31.6647 27.8335 31.9356 27.8839 32.21 27.9241C32.4382 27.9732 32.6422 28.1006 32.787 28.2843C32.9317 28.468 33.008 28.6966 33.0028 28.9306L33.0229 32.071Z" fill="#E6330F"/>
</svg>
