<svg width="60" height="60" viewBox="0 0 60 60" fill="none" xmlns="http://www.w3.org/2000/svg">
<path d="M55.7999 27.1095L54.2461 20.8869C54.6709 20.7966 54.9896 20.4192 54.9896 19.9672V18.9639C54.9896 16.7855 53.2195 15.0134 51.0439 15.0134H43.9667V12.9439C43.9667 11.872 43.0958 11 42.0252 11H5.94986C4.87923 11 4.00829 11.872 4.00829 12.9439V30.0002C4.00829 30.5196 4.42888 30.9408 4.94778 30.9408C5.46657 30.9408 5.88728 30.5197 5.88728 30.0002V12.9439C5.88728 12.9093 5.91529 12.8813 5.94986 12.8813H42.025C42.0596 12.8813 42.0876 12.9093 42.0876 12.9439V30.0004C42.0876 30.5198 42.5082 30.941 43.0271 30.941C43.5459 30.941 43.9666 30.5199 43.9666 30.0004V28.9341H55.0489L55.0514 28.9344L55.054 28.9342C56.4177 28.9352 57.5756 29.8313 57.9734 31.0662H55.0521C54.5333 31.0662 54.1126 31.4873 54.1126 32.0069V34.0134C54.1126 35.6386 55.4331 36.9607 57.0562 36.9607H58.121V41.0992H55.6645C54.8576 38.7664 52.6426 37.086 50.0416 37.086C47.4406 37.086 45.2256 38.7664 44.4187 41.0992H43.9664L43.9666 29.8748C43.9666 29.3553 43.546 28.9341 43.0271 28.9341C42.5083 28.9341 42.0876 29.3552 42.0876 29.8748L42.0874 41.099H22.5958C21.7888 38.7661 19.5739 37.0857 16.9729 37.0857C14.3719 37.0857 12.1568 38.7661 11.35 41.099H5.94986C5.91529 41.099 5.88728 41.071 5.88728 41.0363V38.967H9.95826C10.4771 38.967 10.8978 38.5459 10.8978 38.0264C10.8978 37.5068 10.4772 37.0857 9.95826 37.0857H0.939494C0.420704 37.0857 0 37.5068 0 38.0264C0 38.5459 0.420587 38.967 0.939494 38.967H4.00841V41.0363C4.00841 42.1083 4.87934 42.9803 5.94997 42.9803H11.0247C11.0244 43.0012 11.023 43.0219 11.023 43.0429C11.023 46.3277 13.6922 49 16.9729 49C20.2536 49 22.9227 46.3277 22.9227 43.0429C22.9227 43.0218 22.9213 43.0012 22.9211 42.9803H44.0934C44.0932 43.0012 44.0918 43.0219 44.0918 43.0429C44.0918 46.3277 46.7609 49 50.0416 49C53.3223 49 55.9915 46.3277 55.9915 43.0429C55.9915 43.0218 55.9901 43.0012 55.9898 42.9803H59.0605C59.5793 42.9803 60 42.5592 60 42.0396V32.0066C60.0001 29.5296 58.1747 27.4715 55.7999 27.1095ZM43.9667 16.8945H51.0439C52.1836 16.8945 53.1108 17.8229 53.1108 18.9639V19.0265H43.9667V16.8945ZM43.9667 27.053V20.9077H52.3146L53.8491 27.053H43.9667ZM16.9729 47.1191C14.7282 47.1191 12.9019 45.2907 12.9019 43.0432C12.9019 40.7956 14.7282 38.9672 16.9729 38.9672C19.2176 38.9672 21.0439 40.7956 21.0439 43.0432C21.0439 45.2907 19.2176 47.1191 16.9729 47.1191ZM50.0419 47.1191C47.7971 47.1191 45.9709 45.2907 45.9709 43.0432C45.9709 40.7956 47.7971 38.9672 50.0419 38.9672C52.2866 38.9672 54.1128 40.7956 54.1128 43.0432C54.1128 45.2907 52.2866 47.1191 50.0419 47.1191ZM58.1213 35.0794H57.0565C56.4694 35.0794 55.9917 34.6012 55.9917 34.0133V32.9473H58.1211L58.1213 35.0794Z" fill="#034899"/>
<path d="M17 41C15.8972 41 15 41.8972 15 43C15 44.1028 15.8972 45 17 45C18.1028 45 19 44.1028 19 43C19 41.8972 18.1028 41 17 41Z" fill="#034899"/>
<path d="M50 41C48.8972 41 48 41.8972 48 43C48 44.1028 48.8972 45 50 45C51.1028 45 52 44.1028 52 43C52 41.8972 51.1028 41 50 41Z" fill="#034899"/>
<path d="M39.0551 37H24.9449C24.4231 37 24 37.4477 24 38C24 38.5523 24.423 39 24.9449 39H39.0551C39.5769 39 40 38.5523 40 38C40 37.4477 39.577 37 39.0551 37Z" fill="#034899"/>
<path d="M15.054 33H2.94597C2.42361 33 2 33.4477 2 34C2 34.5523 2.42349 35 2.94597 35H15.054C15.5764 35 16 34.5523 16 34C16 33.4477 15.5764 33 15.054 33Z" fill="#034899"/>
<path d="M32.7233 20.2777C32.3544 19.9074 31.756 19.9074 31.3871 20.2778L22.9843 28.7107L18.613 24.3237C18.244 23.9533 17.6457 23.9533 17.2768 24.3237C16.9077 24.6941 16.9077 25.2944 17.2768 25.6647L22.3162 30.7223C22.5007 30.9075 22.7425 31 22.9843 31C23.226 31 23.468 30.9075 23.6523 30.7223L32.7232 21.6188C33.0922 21.2483 33.0922 20.648 32.7233 20.2777Z" fill="#E6330F"/>
</svg>
