<svg width="60" height="60" viewBox="0 0 60 60" fill="none" xmlns="http://www.w3.org/2000/svg">
<path d="M55.7258 7.54839H44.4193L38.1457 1.27363C37.9701 1.09832 37.732 0.999908 37.4839 1H15.0323C14.7842 1 14.5462 1.09856 14.3708 1.274C14.1953 1.44943 14.0968 1.68738 14.0968 1.93548V7.54839H4.27419C3.40612 7.54935 2.57387 7.89461 1.96005 8.50844C1.34623 9.12226 1.00096 9.9545 1 10.8226V46.371C1.00096 47.239 1.34623 48.0713 1.96005 48.6851C2.57387 49.2989 3.40612 49.6442 4.27419 49.6452H22.2109L20.8755 54.3226H16.9032C16.6551 54.3226 16.4172 54.4211 16.2417 54.5966C16.0663 54.772 15.9677 55.01 15.9677 55.2581V58.0645C15.9677 58.3126 16.0663 58.5506 16.2417 58.726C16.4172 58.9014 16.6551 59 16.9032 59H43.0968C43.3449 59 43.5828 58.9014 43.7583 58.726C43.9337 58.5506 44.0323 58.3126 44.0323 58.0645V55.2581C44.0323 55.01 43.9337 54.772 43.7583 54.5966C43.5828 54.4211 43.3449 54.3226 43.0968 54.3226H39.1245L37.7891 49.6452H55.7258C56.5939 49.6442 57.4261 49.2989 58.04 48.6851C58.6538 48.0713 58.999 47.239 59 46.371V10.8226C58.999 9.9545 58.6538 9.12226 58.04 8.50844C57.4261 7.89461 56.5939 7.54935 55.7258 7.54839ZM38.4194 4.19351L42.7097 8.48387H38.4194V4.19351ZM15.9677 2.87097H36.5484V9.41935C36.5484 9.66746 36.6469 9.9054 36.8224 10.0808C36.9978 10.2563 37.2358 10.3548 37.4839 10.3548H44.0323V39.3548H15.9677V2.87097ZM42.1613 56.1936V57.129H17.8387V56.1936H42.1613ZM22.8213 54.3226L24.1567 49.6452H35.8433L37.1787 54.3226H22.8213ZM57.129 46.371C57.1287 46.743 56.9808 47.0998 56.7177 47.3629C56.4546 47.6259 56.0979 47.7739 55.7258 47.7742H4.27419C3.90213 47.7739 3.54539 47.6259 3.28231 47.3629C3.01922 47.0998 2.87128 46.743 2.87097 46.371V44.0323H57.129V46.371ZM57.129 42.1613H2.87097V10.8226C2.87128 10.4505 3.01922 10.0938 3.28231 9.83069C3.54539 9.5676 3.90213 9.41966 4.27419 9.41935H14.0968V40.2903C14.0968 40.5384 14.1953 40.7764 14.3708 40.9518C14.5462 41.1272 14.7842 41.2258 15.0323 41.2258H44.9677C45.2158 41.2258 45.4538 41.1272 45.6292 40.9518C45.8047 40.7764 45.9032 40.5384 45.9032 40.2903V9.41935H55.7258C56.0979 9.41966 56.4546 9.5676 56.7177 9.83069C56.9808 10.0938 57.1287 10.4505 57.129 10.8226V42.1613Z" fill="#034899"/>
<path d="M41.0769 19H18.9231C18.6783 19 18.4435 19.1054 18.2704 19.2929C18.0973 19.4804 18 19.7348 18 20C18 20.2652 18.0973 20.5196 18.2704 20.7071C18.4435 20.8946 18.6783 21 18.9231 21H41.0769C41.3217 21 41.5565 20.8946 41.7296 20.7071C41.9027 20.5196 42 20.2652 42 20C42 19.7348 41.9027 19.4804 41.7296 19.2929C41.5565 19.1054 41.3217 19 41.0769 19Z" fill="#034899"/>
<path d="M41.0769 16H18.9231C18.6783 16 18.4435 16.1054 18.2704 16.2929C18.0973 16.4804 18 16.7348 18 17C18 17.2652 18.0973 17.5196 18.2704 17.7071C18.4435 17.8946 18.6783 18 18.9231 18H41.0769C41.3217 18 41.5565 17.8946 41.7296 17.7071C41.9027 17.5196 42 17.2652 42 17C42 16.7348 41.9027 16.4804 41.7296 16.2929C41.5565 16.1054 41.3217 16 41.0769 16Z" fill="#034899"/>
<path d="M41.0769 22H18.9231C18.6783 22 18.4435 22.1054 18.2704 22.2929C18.0973 22.4804 18 22.7348 18 23C18 23.2652 18.0973 23.5196 18.2704 23.7071C18.4435 23.8946 18.6783 24 18.9231 24H41.0769C41.3217 24 41.5565 23.8946 41.7296 23.7071C41.9027 23.5196 42 23.2652 42 23C42 22.7348 41.9027 22.4804 41.7296 22.2929C41.5565 22.1054 41.3217 22 41.0769 22Z" fill="#034899"/>
<path d="M41.0769 24H18.9231C18.6783 24 18.4435 24.1054 18.2704 24.2929C18.0973 24.4804 18 24.7348 18 25C18 25.2652 18.0973 25.5196 18.2704 25.7071C18.4435 25.8946 18.6783 26 18.9231 26H41.0769C41.3217 26 41.5565 25.8946 41.7296 25.7071C41.9027 25.5196 42 25.2652 42 25C42 24.7348 41.9027 24.4804 41.7296 24.2929C41.5565 24.1054 41.3217 24 41.0769 24Z" fill="#034899"/>
<path d="M18.95 29H36.05C36.302 29 36.5436 28.8946 36.7218 28.7071C36.8999 28.5196 37 28.2652 37 28C37 27.7348 36.8999 27.4804 36.7218 27.2929C36.5436 27.1054 36.302 27 36.05 27H18.95C18.698 27 18.4564 27.1054 18.2782 27.2929C18.1001 27.4804 18 27.7348 18 28C18 28.2652 18.1001 28.5196 18.2782 28.7071C18.4564 28.8946 18.698 29 18.95 29Z" fill="#034899"/>
<path d="M41.0769 33H18.9231C18.6783 33 18.4435 33.1054 18.2704 33.2929C18.0973 33.4804 18 33.7348 18 34C18 34.2652 18.0973 34.5196 18.2704 34.7071C18.4435 34.8946 18.6783 35 18.9231 35H41.0769C41.3217 35 41.5565 34.8946 41.7296 34.7071C41.9027 34.5196 42 34.2652 42 34C42 33.7348 41.9027 33.4804 41.7296 33.2929C41.5565 33.1054 41.3217 33 41.0769 33Z" fill="#034899"/>
<path d="M36.05 36H18.95C18.698 36 18.4564 36.1054 18.2782 36.2929C18.1001 36.4804 18 36.7348 18 37C18 37.2652 18.1001 37.5196 18.2782 37.7071C18.4564 37.8946 18.698 38 18.95 38H36.05C36.302 38 36.5436 37.8946 36.7218 37.7071C36.8999 37.5196 37 37.2652 37 37C37 36.7348 36.8999 36.4804 36.7218 36.2929C36.5436 36.1054 36.302 36 36.05 36Z" fill="#034899"/>
<path fill-rule="evenodd" clip-rule="evenodd" d="M25.4237 7.9359H25.0577V7.89744L25.0634 7.86218L25.0691 7.83013L25.0776 7.79808L25.0861 7.76603L25.1002 7.74039L25.1144 7.71154L25.1315 7.6891L25.1513 7.66667L25.1684 7.64423L25.191 7.6282L25.2138 7.60897L25.2365 7.59616L25.2591 7.58333L25.2875 7.57052L25.3131 7.5609L25.3386 7.55448L25.367 7.54808L25.3925 7.54488L25.4209 7.54167H25.4237L25.4464 7.54488L25.4748 7.54808L25.5003 7.55128L25.5287 7.55769L25.5543 7.56731L25.5798 7.57692L25.6025 7.58975L25.6252 7.60256L25.6507 7.6218L25.6706 7.63782L25.6905 7.66026L25.7075 7.68269L25.7273 7.70833L25.7415 7.73397L25.7529 7.76282L25.7642 7.79167L25.7728 7.82692L25.7813 7.85897L25.7841 7.89744L25.787 7.9359H25.4237ZM21.7917 6.00642H21V9H21.7917V6.00642ZM32.9943 7.55769L32.9887 7.52884L32.983 7.4968L32.9745 7.47116L32.9688 7.44231L32.9603 7.41667L32.9517 7.39103L32.9404 7.36539L32.9319 7.34295L32.9206 7.32052L32.9092 7.29808L32.895 7.27564L32.8808 7.25641L32.8666 7.24039L32.8496 7.22116L32.8354 7.20192L32.8184 7.1859L32.8014 7.16988L32.7843 7.15385L32.7644 7.14103L32.7475 7.125L32.7276 7.11218L32.7077 7.09936L32.6878 7.08333L32.668 7.07372L32.6453 7.0609L32.6226 7.05128L32.6028 7.03846L32.58 7.02885L32.5573 7.01923L32.5346 7.00961L32.5119 7L32.4864 6.99039L32.4608 6.98397L32.4382 6.97757L32.4126 6.96795L32.3871 6.96154L32.3616 6.95513L32.336 6.94872L32.3105 6.94231L32.2821 6.9391L32.2537 6.93269L32.2282 6.92949L32.1998 6.92308L32.1743 6.91987L32.1459 6.91346L32.1175 6.91026L32.0863 6.90705H32.0579L32.0296 6.90385H32.0012L31.9757 6.90065H31.9473H31.916H31.8848H31.8536H31.8224H31.7912H31.76L31.7316 6.90385L31.7004 6.90705L31.6692 6.91026H31.638L31.6096 6.91346L31.5812 6.91987L31.5557 6.92308L31.5273 6.92949L31.5018 6.93269L31.4734 6.9391L31.4478 6.94231L31.4195 6.94872L31.3939 6.95513L31.3684 6.96154L31.3457 6.97116L31.3202 6.97757L31.2974 6.98397L31.2719 6.99359L31.2492 7.00321L31.2237 7.01282L31.201 7.02244L31.1783 7.03205L31.1584 7.04167L31.1357 7.05449L31.113 7.0641L31.0932 7.07692L31.0704 7.08974L31.0534 7.10257L31.0335 7.11539L31.0137 7.12821L30.9938 7.14103L30.974 7.15705L30.957 7.17308L30.9399 7.1859L30.9201 7.20192L30.9059 7.22116L30.8888 7.23718L30.8718 7.2532L30.8576 7.26923L30.8406 7.28846L30.8236 7.30769L30.8094 7.32372L30.7952 7.34616L30.781 7.36539L30.7697 7.38461L30.7555 7.40705L30.7441 7.42948L30.7299 7.44872L30.7186 7.47436L30.7073 7.4968L30.6987 7.51923L30.6902 7.54808L30.6789 7.57052L30.6732 7.59936L30.6647 7.625L30.6562 7.65384L30.6533 7.68269L30.6476 7.71154L30.6448 7.73397L30.642 7.75L30.6392 7.80128H31.5159V7.75641L31.5188 7.74359L31.5244 7.72436L31.533 7.69872L31.5443 7.67308L31.5557 7.65384L31.5727 7.63462L31.5869 7.61859L31.6067 7.60256L31.6295 7.59295L31.6493 7.58333L31.6748 7.57372L31.7004 7.5641L31.7259 7.55769L31.7543 7.55448H31.7827L31.8139 7.55128L31.8423 7.55448H31.8735L31.899 7.5609L31.9245 7.56731L31.9501 7.57372L31.9728 7.58333L31.9955 7.59295L32.0154 7.60577L32.0352 7.6218L32.0494 7.63782L32.0636 7.66026L32.0721 7.6859L32.0778 7.71475V7.74359V7.77564L32.0693 7.80128L32.0579 7.82372L32.0409 7.83975L32.0239 7.85256L32.0012 7.86539L31.9784 7.875L31.9558 7.88462L31.9302 7.89103L31.9047 7.89744L31.8792 7.90384L31.8508 7.91026L31.8252 7.91346L31.7146 7.93269L31.6039 7.95192L31.4933 7.96795L31.3854 7.98718L31.357 7.99039L31.3315 7.99679L31.3031 8.0032L31.2776 8.00641L31.2521 8.01282L31.2237 8.01923L31.1981 8.02564L31.1726 8.03205L31.1471 8.03846L31.1243 8.04808L31.0988 8.05449L31.0733 8.0609L31.0506 8.07051L31.0251 8.08013L31.0024 8.08654L30.9796 8.09615L30.9541 8.10577L30.9314 8.11539L30.9087 8.125L30.8888 8.13782L30.8662 8.14743L30.8435 8.15705L30.8236 8.16987L30.8038 8.18269L30.7839 8.19551L30.764 8.21154L30.7441 8.22436L30.7271 8.23718L30.7101 8.2532L30.6931 8.27243L30.676 8.28846L30.6618 8.30769L30.6476 8.32692L30.6335 8.34615L30.6193 8.36539L30.6079 8.38782L30.5966 8.41346L30.5881 8.4359L30.5768 8.46154L30.571 8.48718L30.5626 8.51603L30.5569 8.54487L30.5512 8.57371L30.5455 8.60577L30.5427 8.63462L30.5398 8.66667V8.69551L30.5427 8.72436L30.5455 8.7532L30.5512 8.77884L30.5597 8.80769L30.5682 8.83013L30.5795 8.85577L30.5909 8.8782L30.6051 8.89743L30.6193 8.91666L30.6363 8.93269L30.6533 8.94871L30.6703 8.96474L30.6902 8.97756L30.7129 8.98718L30.7384 8.99358L30.764 8.99679L30.7924 9H31.6493L31.6067 8.96795L31.5982 8.95833L31.5869 8.9423L31.5756 8.92628L31.5614 8.90384L31.55 8.88462L31.5386 8.85897L31.5301 8.83013L31.5244 8.80128V8.77243L31.5301 8.74359L31.5358 8.71474L31.5443 8.69231L31.5557 8.66987L31.5727 8.65064L31.5869 8.63462L31.6039 8.61539L31.6238 8.60256L31.6437 8.58975L31.6635 8.57692L31.6862 8.56731L31.7089 8.55769L31.8054 8.52243L31.899 8.48718L31.9217 8.47756L31.9473 8.47115L31.97 8.46154L31.9955 8.45192L32.0182 8.44231L32.0352 8.4359L32.0466 8.43269L32.0607 8.42949L32.0863 8.41346V9H33V7.65705V7.625L32.9971 7.58975L32.9943 7.55769ZM23.48 6H22.5607V6.95193H22.1889V7.59616H22.5607V8.46475V8.49359V8.52564V8.55449L22.5635 8.58333L22.5663 8.60897L22.5692 8.63462L22.5748 8.66026L22.5805 8.6859L22.5862 8.70833L22.5919 8.73077L22.6004 8.7532L22.6089 8.77564L22.6202 8.79487L22.6288 8.8141L22.6401 8.83013L22.6515 8.84936L22.6656 8.86218L22.677 8.8782L22.6912 8.89423L22.7054 8.91026L22.7196 8.92307L22.7366 8.93269L22.7536 8.94551L22.7763 8.95192L22.7962 8.95833L22.816 8.96795L22.8359 8.97436L22.8614 8.97756L22.8841 8.98077L22.9097 8.98397L22.9324 8.98718H22.9579L22.9863 8.99038H23.48V7.59616H24.0078V6.95193H23.48V6ZM28.5138 6.9359L28.4911 6.92949L28.4712 6.92308L28.4514 6.91667L28.4287 6.91346L28.4088 6.91026L28.3861 6.90705L28.3635 6.90385H28.3407H28.3209H28.2981L28.2783 6.90705L28.2556 6.91026L28.2357 6.91346L28.2131 6.91987L28.196 6.92308L28.1762 6.92949L28.1563 6.9359L28.1392 6.94231L28.1223 6.94872L28.1024 6.95513L28.0853 6.96474L28.0684 6.97436L28.0513 6.98397L28.0343 6.99359L28.0172 7.00641L28.0002 7.01603L27.9861 7.02885L27.969 7.04167L27.9548 7.05449L27.9378 7.06731L27.9264 7.08333L27.9122 7.09936L27.8981 7.11218L27.8839 7.12821L27.8725 7.14423L27.8583 7.16026L27.847 7.17949L27.8356 7.19552V6.95193H26.9901V9H27.9208V7.98397V7.95513L27.9236 7.92628L27.9264 7.90064L27.9321 7.8782L27.9378 7.85256L27.9463 7.83013L27.9548 7.80769L27.9634 7.78846L27.9719 7.76923L27.9832 7.75L27.9974 7.73397L28.0087 7.71795L28.0229 7.70513L28.0371 7.6891L28.0513 7.67628L28.0684 7.66667L28.0853 7.65384L28.1024 7.64423L28.1223 7.63462L28.1421 7.625L28.162 7.61859L28.1847 7.61218L28.2045 7.60577L28.2301 7.60256L28.2528 7.59936L28.2783 7.59616H28.5535V6.95193L28.5337 6.94231L28.5138 6.9359ZM30.3696 6.9359L30.3497 6.92949L30.3299 6.92308L30.3072 6.91667L30.2873 6.91346L30.2646 6.91026L30.2447 6.90705L30.222 6.90385H30.1993H30.1794H30.1568L30.1341 6.90705L30.1142 6.91026L30.0915 6.91346L30.0716 6.91987L30.0518 6.92308L30.0319 6.92949L30.0149 6.9359L29.995 6.94231L29.978 6.94872L29.961 6.95513L29.9411 6.96474L29.9241 6.97436L29.9071 6.98397L29.89 6.99359L29.8758 7.00641L29.8588 7.01603L29.8418 7.02885L29.8248 7.04167L29.8106 7.05449L29.7964 7.06731L29.7822 7.08333L29.768 7.09936L29.7538 7.11218L29.7396 7.12821L29.7283 7.14423L29.7169 7.16026L29.7028 7.17949L29.6914 7.19552L29.6943 6.95193H28.8486V9H29.7766V7.98397V7.95513L29.7794 7.92628L29.7851 7.90064L29.7907 7.8782L29.7964 7.85256L29.8021 7.83013L29.8106 7.80769L29.8191 7.78846L29.8304 7.76923L29.8418 7.75L29.8532 7.73397L29.8645 7.71795L29.8787 7.70513L29.8929 7.6891L29.9099 7.67628L29.9269 7.66667L29.9411 7.65384L29.961 7.64423L29.978 7.63462L29.9979 7.625L30.0177 7.61859L30.0404 7.61218L30.0631 7.60577L30.0858 7.60256L30.1113 7.59936L30.1341 7.59616H30.4122V6.95193L30.3895 6.94231L30.3696 6.9359ZM26.6978 8.13141V8.10256L26.695 8.07692V8.05128L26.6893 8.02243L26.6864 7.99679L26.6836 7.96795L26.6779 7.9391L26.6722 7.91346L26.6694 7.88141L26.6637 7.85256L26.658 7.82692L26.6524 7.79808L26.6439 7.76923L26.6354 7.74039L26.6269 7.71475L26.6183 7.6859L26.6098 7.65705L26.6013 7.63141L26.59 7.60256L26.5814 7.58013L26.5701 7.55448L26.5588 7.53205L26.5474 7.50641L26.5361 7.48397L26.5219 7.46154L26.5077 7.4391L26.4964 7.41667L26.4822 7.39744L26.4651 7.375L26.4509 7.35577L26.4367 7.33333L26.4197 7.3141L26.4027 7.29488L26.3857 7.27564L26.3686 7.25641L26.3516 7.24039L26.3346 7.22116L26.3147 7.20513L26.2949 7.1891L26.2778 7.16988L26.258 7.15385L26.2381 7.14103L26.2154 7.125L26.1984 7.11218L26.1757 7.09936L26.1558 7.08333L26.1331 7.07052L26.1132 7.05769L26.0906 7.04808L26.0679 7.03526L26.048 7.02564L26.0253 7.01603L26.0026 7.00641L25.9799 6.9968L25.9572 6.98718L25.9345 6.98077L25.909 6.97436L25.8862 6.96795L25.8636 6.96154L25.8409 6.95513L25.8153 6.94872L25.7926 6.94552L25.7671 6.9391L25.7415 6.9359L25.716 6.92949L25.6905 6.92308L25.6649 6.91987L25.6394 6.91667L25.6139 6.91346L25.5883 6.91026L25.5628 6.90705L25.5372 6.90385H25.5089L25.4861 6.90065H25.4578H25.4322H25.4237H25.4067H25.3812H25.3556L25.3301 6.90385H25.3046L25.279 6.90705L25.2535 6.91026L25.2251 6.91346L25.1996 6.91667L25.1741 6.91987L25.1513 6.92308L25.1258 6.92949L25.0974 6.9359L25.0747 6.94231L25.0492 6.94872L25.0236 6.95513L24.9981 6.96154L24.9726 6.97116L24.947 6.97757L24.9215 6.98718L24.8988 6.9968L24.8732 7.00641L24.8506 7.01603L24.825 7.02564L24.8023 7.03846L24.7767 7.05128L24.7541 7.0641L24.7285 7.07372L24.7058 7.08974L24.6832 7.10257L24.6604 7.11539L24.6377 7.12821L24.6151 7.14423L24.5923 7.16026L24.5696 7.17308L24.5498 7.1891L24.5271 7.20513L24.5072 7.22436L24.4873 7.24039L24.4703 7.25961L24.4533 7.27564L24.4363 7.29488L24.4192 7.3141L24.405 7.33333L24.3881 7.35577L24.3739 7.375L24.3568 7.39744L24.3455 7.41667L24.3284 7.4391L24.3171 7.46154L24.3029 7.48397L24.2916 7.50641L24.2802 7.53205L24.2689 7.55448L24.2575 7.58013L24.2461 7.60256L24.2376 7.6282L24.2263 7.65064L24.2178 7.67628L24.2093 7.70192L24.2008 7.72436L24.1951 7.75L24.1866 7.77564L24.1809 7.80128L24.1752 7.82692L24.1695 7.85256L24.1638 7.8782L24.161 7.90705L24.1582 7.93269L24.1525 7.96154L24.1497 7.98718L24.1469 8.01603V8.04167L24.144 8.07051L24.1412 8.09615V8.125V8.15064V8.17949V8.20833L24.144 8.23397L24.1469 8.26282V8.28846L24.1525 8.31731L24.1553 8.34295L24.1582 8.37179L24.1638 8.40064L24.1667 8.42628L24.1752 8.45192L24.1809 8.47756L24.1866 8.50641L24.1951 8.53205L24.2008 8.55769L24.2093 8.58333L24.2178 8.60897L24.2263 8.63462L24.2376 8.66026L24.2461 8.6859L24.2575 8.71154L24.2689 8.73397L24.2802 8.75962L24.2916 8.78205L24.3029 8.80769L24.3171 8.83013L24.3284 8.85577L24.3455 8.875L24.3568 8.89743L24.3739 8.91987L24.3881 8.9423L24.4022 8.96474L24.4192 8.98718H25.0804V8.46154H25.4237H26.6722L26.6779 8.43269L26.6836 8.40705L26.6864 8.38141L26.6893 8.35256L26.6921 8.32371L26.695 8.29807L26.6978 8.26923V8.24359L26.7006 8.21475V8.1859V8.16026L26.6978 8.13141Z" fill="#034899"/>
<path fill-rule="evenodd" clip-rule="evenodd" d="M32.8743 9.78873V9.64084H32.9943V9.78873H32.8743ZM32.9 9.58803L32.8686 9.19366V9.01408H33V9.19366L32.9686 9.58803H32.9ZM32.6171 9.52113C32.6028 9.52464 32.5771 9.53168 32.5456 9.54225C32.5113 9.5493 32.4913 9.55986 32.4799 9.5669C32.4656 9.58099 32.457 9.59859 32.457 9.61972C32.457 9.64084 32.4627 9.65845 32.4742 9.67253C32.4884 9.68662 32.5027 9.69718 32.5228 9.69718C32.5456 9.69718 32.5657 9.68662 32.5856 9.66902C32.5999 9.65493 32.6085 9.64084 32.6142 9.61972C32.6171 9.60916 32.6171 9.5845 32.6171 9.5493V9.52113ZM32.457 9.40141L32.3484 9.37676C32.3599 9.32042 32.3827 9.28169 32.4113 9.25352C32.4428 9.22535 32.4856 9.21479 32.5456 9.21479C32.5999 9.21479 32.6371 9.22183 32.6656 9.23943C32.6914 9.25352 32.7085 9.27465 32.7199 9.29929C32.7314 9.32042 32.7371 9.36619 32.7371 9.42958L32.7342 9.60211C32.7342 9.6514 32.7371 9.68662 32.74 9.71126C32.7428 9.73592 32.7514 9.76056 32.7628 9.78873H32.6428C32.6399 9.77816 32.6342 9.76408 32.6314 9.74296C32.6285 9.73592 32.6285 9.72887 32.6256 9.72535C32.6057 9.75352 32.5828 9.77112 32.5628 9.78169C32.5371 9.79578 32.5142 9.80282 32.4856 9.80282C32.4399 9.80282 32.4027 9.78521 32.377 9.75352C32.3513 9.72183 32.337 9.6831 32.337 9.6338C32.337 9.60563 32.3427 9.57394 32.3541 9.5493C32.3656 9.52817 32.3827 9.50704 32.4056 9.49295C32.4285 9.47887 32.4599 9.46831 32.5027 9.46127C32.557 9.44718 32.597 9.4331 32.6171 9.42254V9.40845C32.6171 9.38028 32.6113 9.35915 32.5999 9.34507C32.5885 9.33451 32.5685 9.32746 32.5371 9.32746C32.5142 9.32746 32.4971 9.33451 32.4856 9.34507C32.4742 9.35563 32.4656 9.37324 32.457 9.40141ZM31.8854 9.22535H32.297V9.34507H32.1513V9.78873H32.0312V9.34507H31.8854V9.22535ZM31.4053 9.22535H31.5254V9.4331H31.6997V9.22535H31.8197V9.78873H31.6997V9.55281H31.5254V9.78873H31.4053V9.22535ZM30.9709 9.50704C30.9709 9.56338 30.9824 9.60563 31.0053 9.6338C31.0252 9.66549 31.051 9.67957 31.0824 9.67957C31.1139 9.67957 31.1396 9.66549 31.1624 9.6338C31.1825 9.60563 31.1939 9.56338 31.1939 9.50704C31.1939 9.4507 31.1825 9.40845 31.1624 9.38028C31.1396 9.35211 31.1139 9.33451 31.0824 9.33451C31.051 9.33451 31.0252 9.35211 31.0053 9.38028C30.9824 9.40845 30.9709 9.45422 30.9709 9.50704ZM30.8481 9.5C30.8481 9.4507 30.8595 9.40492 30.8766 9.35563C30.8995 9.30986 30.9252 9.27465 30.9624 9.25352C30.9967 9.22535 31.0395 9.21479 31.0824 9.21479C31.151 9.21479 31.2082 9.24296 31.2511 9.29929C31.2939 9.35211 31.3168 9.42254 31.3168 9.50704C31.3168 9.59154 31.2939 9.66197 31.2511 9.7183C31.2053 9.77465 31.151 9.80282 31.0824 9.80282C31.0424 9.80282 31.0024 9.78873 30.9653 9.7676C30.9252 9.74296 30.8995 9.70775 30.8766 9.66197C30.8595 9.61972 30.8481 9.56338 30.8481 9.5ZM30.245 9.22535H30.3937L30.5051 9.6162L30.6195 9.22535H30.768V9.78873H30.6652V9.41901L30.5566 9.78873H30.4537L30.348 9.41901V9.78873H30.245V9.22535ZM30.0365 9.46127C30.0336 9.41549 30.025 9.3838 30.0079 9.36268C29.9907 9.34155 29.9707 9.32746 29.9479 9.32746C29.9193 9.32746 29.8993 9.34155 29.8821 9.36268C29.865 9.38732 29.8564 9.41901 29.8564 9.46127H30.0365ZM30.0279 9.60916L30.1479 9.6338C30.1336 9.68662 30.1079 9.72887 30.0765 9.76056C30.0422 9.78521 30.0022 9.80282 29.9507 9.80282C29.8707 9.80282 29.8136 9.77112 29.7764 9.70422C29.745 9.65493 29.7307 9.58803 29.7307 9.51408C29.7307 9.41901 29.7507 9.34507 29.7907 9.29225C29.8279 9.23943 29.8793 9.21479 29.9393 9.21479C30.005 9.21479 30.0593 9.24296 30.0993 9.29929C30.1365 9.35211 30.1565 9.43662 30.1536 9.5493H29.8536C29.8536 9.59507 29.865 9.62676 29.8821 9.65493C29.9021 9.67606 29.925 9.69014 29.9507 9.69014C29.9707 9.69014 29.985 9.6831 29.9993 9.66902C30.0136 9.65845 30.0222 9.63732 30.0279 9.60916ZM29.3448 9.5C29.3448 9.55986 29.3563 9.60563 29.3763 9.63732C29.3963 9.66902 29.422 9.6831 29.4506 9.6831C29.4791 9.6831 29.5021 9.66902 29.5192 9.64084C29.5392 9.61267 29.5477 9.5669 29.5477 9.50704C29.5477 9.44718 29.5363 9.40141 29.5192 9.37324C29.4992 9.34507 29.4763 9.33098 29.4478 9.33098C29.4192 9.33098 29.3935 9.34507 29.3763 9.37324C29.3563 9.40141 29.3448 9.44366 29.3448 9.5ZM29.2277 9.22535H29.3391V9.30986C29.3534 9.28169 29.3734 9.26056 29.3991 9.23943C29.4249 9.22183 29.4506 9.21479 29.482 9.21479C29.5334 9.21479 29.5792 9.23943 29.6163 9.29225C29.6535 9.34155 29.6706 9.41197 29.6706 9.50352C29.6706 9.59859 29.6535 9.67253 29.6163 9.72183C29.5792 9.77465 29.5334 9.80282 29.482 9.80282C29.4563 9.80282 29.4335 9.79578 29.4106 9.78169C29.3906 9.77112 29.3706 9.75 29.3477 9.7183V10H29.2277V9.22535ZM28.4475 9.22535H28.5618V9.57746L28.7476 9.22535H28.8647V9.78873H28.7504V9.42958L28.5618 9.78873H28.4475V9.22535ZM27.6673 9.22535H27.7816V9.57746L27.9674 9.22535H28.0845V9.78873H27.9703V9.42958L27.7816 9.78873H27.6673V9.22535ZM27.2272 9.22535H27.3472V9.45422C27.3673 9.45422 27.3816 9.44718 27.3901 9.4331C27.3987 9.41901 27.4073 9.39436 27.4187 9.35211C27.433 9.29929 27.4501 9.26408 27.4701 9.24648C27.4873 9.23239 27.513 9.22183 27.5416 9.22183C27.5501 9.22183 27.5673 9.22535 27.5901 9.22535V9.32394C27.5587 9.32394 27.5358 9.32746 27.5302 9.33451C27.5215 9.34155 27.5101 9.36619 27.4987 9.40492C27.4873 9.45422 27.4672 9.48591 27.4387 9.5C27.4787 9.51408 27.5101 9.55281 27.5358 9.61972C27.5358 9.62676 27.5387 9.62676 27.5416 9.6338L27.6073 9.78873H27.4787L27.4187 9.62324C27.4073 9.59154 27.3958 9.57042 27.3872 9.55986C27.3787 9.55281 27.3644 9.54577 27.3472 9.54577V9.78873H27.2272V9.22535ZM26.9786 9H27.0357C27.0329 9.0493 27.0186 9.08803 26.9957 9.11267C26.97 9.14084 26.9414 9.15493 26.9043 9.15493C26.8643 9.15493 26.8329 9.14084 26.81 9.11267C26.7871 9.08803 26.7728 9.0493 26.7699 9H26.8271C26.83 9.02464 26.8385 9.04577 26.85 9.05634C26.8614 9.07042 26.8785 9.07746 26.9043 9.07746C26.9243 9.07746 26.9443 9.07042 26.9557 9.05634C26.9672 9.04577 26.9757 9.02464 26.9786 9ZM26.6928 9.22535H26.8071V9.57746L26.99 9.22535H27.11V9.78873H26.9929V9.42958L26.8071 9.78873H26.6928V9.22535ZM26.2555 9.50704C26.2555 9.56338 26.267 9.60563 26.287 9.6338C26.3098 9.66549 26.3356 9.67957 26.367 9.67957C26.3984 9.67957 26.4242 9.66549 26.4441 9.6338C26.467 9.60563 26.4756 9.56338 26.4756 9.50704C26.4756 9.4507 26.467 9.40845 26.4441 9.38028C26.4242 9.35211 26.3984 9.33451 26.367 9.33451C26.3356 9.33451 26.3098 9.35211 26.287 9.38028C26.267 9.40845 26.2555 9.45422 26.2555 9.50704ZM26.1327 9.5C26.1327 9.4507 26.1412 9.40492 26.1613 9.35563C26.1812 9.30986 26.2098 9.27465 26.2441 9.25352C26.2813 9.22535 26.3213 9.21479 26.367 9.21479C26.4356 9.21479 26.4899 9.24296 26.5356 9.29929C26.5785 9.35211 26.6014 9.42254 26.6014 9.50704C26.6014 9.59154 26.5785 9.66197 26.5356 9.7183C26.4899 9.77465 26.4327 9.80282 26.367 9.80282C26.3241 9.80282 26.287 9.78873 26.247 9.7676C26.2098 9.74296 26.1812 9.70775 26.1613 9.66197C26.1412 9.61972 26.1327 9.56338 26.1327 9.5ZM25.7411 9.5C25.7411 9.55986 25.7497 9.60563 25.7725 9.63732C25.7926 9.66902 25.8154 9.6831 25.844 9.6831C25.8726 9.6831 25.8954 9.66902 25.9126 9.64084C25.9326 9.61267 25.9412 9.5669 25.9412 9.50704C25.9412 9.44718 25.9326 9.40141 25.9126 9.37324C25.8954 9.34507 25.8697 9.33098 25.8411 9.33098C25.8126 9.33098 25.7897 9.34507 25.7697 9.37324C25.7497 9.40141 25.7411 9.44366 25.7411 9.5ZM25.624 9.22535H25.7354V9.30986C25.7497 9.28169 25.7697 9.26056 25.7926 9.23943C25.8183 9.22183 25.8469 9.21479 25.8755 9.21479C25.9298 9.21479 25.9726 9.23943 26.0098 9.29225C26.0469 9.34155 26.0641 9.41197 26.0641 9.50352C26.0641 9.59859 26.0469 9.67253 26.0098 9.72183C25.9726 9.77465 25.9269 9.80282 25.8755 9.80282C25.8498 9.80282 25.8268 9.79578 25.8069 9.78169C25.7868 9.77112 25.764 9.75 25.7411 9.7183V10H25.624V9.22535ZM25.1438 9.22535H25.5554V9.34507H25.4096V9.78873H25.2896V9.34507H25.1438V9.22535ZM25.1067 9.39436L24.9895 9.41901C24.9838 9.39084 24.9753 9.36972 24.961 9.35211C24.9467 9.33802 24.9295 9.33098 24.9067 9.33098C24.8781 9.33098 24.8524 9.34507 24.8352 9.36972C24.8181 9.39436 24.8095 9.43662 24.8095 9.49648C24.8095 9.56338 24.8181 9.61267 24.8352 9.63732C24.8524 9.66549 24.8781 9.67957 24.9095 9.67957C24.9324 9.67957 24.9495 9.67253 24.9638 9.65493C24.9781 9.64084 24.9895 9.61267 24.9952 9.57394L25.1124 9.59859C25.101 9.66549 25.0781 9.71479 25.041 9.75C25.0095 9.78521 24.961 9.80282 24.9038 9.80282C24.8352 9.80282 24.7838 9.77465 24.7438 9.72183C24.7037 9.67253 24.6838 9.59859 24.6838 9.50704C24.6838 9.41549 24.7037 9.34507 24.7438 9.29225C24.7838 9.23943 24.8381 9.21479 24.9067 9.21479C24.961 9.21479 25.0038 9.22887 25.0352 9.26056C25.0696 9.28873 25.0924 9.33451 25.1067 9.39436ZM24.2265 9.32042H24.1408C24.1093 9.32042 24.0865 9.32746 24.075 9.33802C24.0607 9.34859 24.055 9.36619 24.055 9.39436C24.055 9.41901 24.0607 9.44014 24.0779 9.4507C24.0922 9.46127 24.115 9.46831 24.1493 9.46831H24.2265V9.32042ZM24.3465 9.22535V9.78873H24.2265V9.55281H24.2179C24.1893 9.55281 24.1722 9.55986 24.1579 9.5669C24.1465 9.57394 24.1322 9.59507 24.1179 9.61972L24.1122 9.63028L24.0322 9.78873H23.8921L23.9779 9.62324C24.0036 9.57746 24.0236 9.55281 24.0436 9.54577C24.0121 9.54225 23.9836 9.52817 23.9636 9.49648C23.9407 9.46831 23.9293 9.4331 23.9293 9.38732C23.9293 9.34859 23.9378 9.32042 23.9521 9.29225C23.9664 9.2676 23.9836 9.25 24.0064 9.23943C24.0293 9.23239 24.0665 9.22535 24.1093 9.22535H24.3465ZM23.4349 9.22535H23.835V9.78873H23.7149V9.34507H23.552V9.59859C23.552 9.66197 23.5463 9.70775 23.5349 9.73239C23.5235 9.76056 23.5092 9.77816 23.4949 9.78521C23.4806 9.79225 23.4577 9.79578 23.4234 9.79578C23.4063 9.79578 23.3806 9.79225 23.3491 9.78873V9.67957C23.352 9.67957 23.3577 9.67957 23.3691 9.67957C23.3806 9.67957 23.392 9.67957 23.3977 9.67957C23.4149 9.67957 23.4234 9.67253 23.4292 9.66197C23.432 9.64789 23.4349 9.61267 23.4349 9.55281V9.22535ZM23.1519 9.66549V9.34859H23.0062C23.0005 9.50352 22.9805 9.60916 22.9462 9.66549H23.1519ZM23.2205 9.78873H22.8776V9.9331H22.7804V9.66549H22.829C22.849 9.63732 22.8662 9.59507 22.8805 9.53521C22.8947 9.47535 22.9005 9.37324 22.9033 9.22535H23.2691V9.66549H23.3177V9.9331H23.2205V9.78873ZM22.3346 9.15493V9.02464H22.4375V9.15493H22.3346ZM22.1488 9.15493V9.02464H22.2546V9.15493H22.1488ZM22.386 9.46127C22.386 9.41549 22.3775 9.3838 22.3603 9.36268C22.3432 9.34155 22.3232 9.32746 22.2975 9.32746C22.2717 9.32746 22.2489 9.34155 22.2317 9.36268C22.2146 9.38732 22.206 9.41901 22.206 9.46127H22.386ZM22.3803 9.60916L22.5004 9.6338C22.4832 9.68662 22.4604 9.72887 22.4261 9.76056C22.3918 9.78521 22.3518 9.80282 22.3003 9.80282C22.2232 9.80282 22.166 9.77112 22.126 9.70422C22.0974 9.65493 22.0831 9.58803 22.0831 9.51408C22.0831 9.41901 22.1003 9.34507 22.1403 9.29225C22.1803 9.23943 22.2289 9.21479 22.2889 9.21479C22.3575 9.21479 22.4089 9.24296 22.4489 9.29929C22.4889 9.35211 22.5061 9.43662 22.5061 9.5493H22.206C22.206 9.59507 22.2146 9.62676 22.2346 9.65493C22.2517 9.67606 22.2746 9.69014 22.3032 9.69014C22.3232 9.69014 22.3375 9.6831 22.3489 9.66902C22.3632 9.65845 22.3718 9.63732 22.3803 9.60916ZM22.026 9.39436L21.9059 9.41901C21.9031 9.39084 21.8945 9.36972 21.8802 9.35211C21.8659 9.33802 21.8488 9.33098 21.8259 9.33098C21.7945 9.33098 21.7716 9.34507 21.7545 9.36972C21.7373 9.39436 21.7259 9.43662 21.7259 9.49648C21.7259 9.56338 21.7373 9.61267 21.7545 9.63732C21.7716 9.66549 21.7973 9.67957 21.8259 9.67957C21.8488 9.67957 21.8688 9.67253 21.8831 9.65493C21.8974 9.64084 21.9088 9.61267 21.9145 9.57394L22.0317 9.59859C22.0202 9.66549 21.9974 9.71479 21.9602 9.75C21.9259 9.78521 21.8802 9.80282 21.8202 9.80282C21.7545 9.80282 21.703 9.77465 21.663 9.72183C21.623 9.67253 21.603 9.59859 21.603 9.50704C21.603 9.41549 21.623 9.34507 21.663 9.29225C21.703 9.23943 21.7573 9.21479 21.8231 9.21479C21.8774 9.21479 21.9231 9.22887 21.9545 9.26056C21.9888 9.28873 22.0117 9.33451 22.026 9.39436ZM21.1257 9.4507V9.65493H21.2429C21.2886 9.65493 21.3172 9.65493 21.3315 9.6514C21.3487 9.64789 21.3629 9.63732 21.3772 9.61972C21.3887 9.60563 21.3944 9.58098 21.3944 9.55281C21.3944 9.53168 21.3887 9.51056 21.3801 9.49648C21.3715 9.47887 21.3572 9.46831 21.3401 9.46127C21.3229 9.45422 21.2858 9.4507 21.2286 9.4507H21.1257ZM21.1257 9.14084V9.32042H21.2086C21.2572 9.32042 21.2886 9.32042 21.3001 9.3169C21.3229 9.31338 21.3401 9.30633 21.3515 9.29225C21.3629 9.27465 21.3687 9.25704 21.3687 9.22887C21.3687 9.20775 21.3658 9.18662 21.3544 9.17253C21.3429 9.15844 21.3287 9.14789 21.3058 9.14436C21.2944 9.14436 21.2572 9.14084 21.2 9.14084H21.1257ZM21 9.01408H21.2515C21.3001 9.01408 21.3372 9.0176 21.3601 9.02113C21.3858 9.02464 21.4087 9.03873 21.4258 9.05281C21.4458 9.07042 21.4601 9.09154 21.4744 9.1162C21.4887 9.14436 21.4944 9.17253 21.4944 9.20774C21.4944 9.24296 21.4858 9.27816 21.4687 9.30633C21.4544 9.33802 21.4344 9.35915 21.4058 9.37676C21.443 9.39084 21.4715 9.41197 21.4944 9.44718C21.5144 9.47887 21.523 9.5176 21.523 9.56338C21.523 9.59859 21.5173 9.63028 21.5058 9.66549C21.4915 9.69718 21.4715 9.72535 21.4515 9.74648C21.4258 9.76408 21.4001 9.77816 21.3658 9.78169C21.3429 9.78521 21.2944 9.78521 21.2115 9.78873H21V9.01408Z" fill="#034899"/>
<path fill-rule="evenodd" clip-rule="evenodd" d="M21 10.0743V6H18V11L21 10.0743Z" fill="#F44336"/>
<path fill-rule="evenodd" clip-rule="evenodd" d="M19.3498 8.25904C19.3498 8.25904 19.2512 8.25904 19.061 8.25904C18.8709 8.25904 18.5915 8.50301 18.5915 9.08133C18.5915 9.55422 18.8099 9.72891 19.0258 9.72891C19.1479 9.72891 19.3498 9.45783 19.3498 9.13554V8.25904ZM20 9.90663H19.3498V9.68675C19.2394 9.81627 19.007 10 18.7465 10C18.4883 10 18 9.76506 18 9.07229C18 8.38253 18.6244 8.03916 18.9859 8.03916C19.3474 8.03916 19.3498 8.03916 19.3498 8.03916C19.3498 7.78615 19.3498 7.72591 19.3498 7.54819C19.3498 7.3735 19.2512 7.21687 19.0751 7.21687C18.8967 7.21687 18.6807 7.36747 18.6807 7.75302H18.162C18.162 7.49699 18.2981 7 19.0798 7C19.8638 7 19.946 7.45181 19.946 7.65362C19.946 7.85843 19.946 9.53012 19.946 9.62651C19.946 9.79217 20 9.90663 20 9.90663Z" fill="white"/>
</svg>
