<svg width="60" height="60" viewBox="0 0 60 60" fill="none" xmlns="http://www.w3.org/2000/svg">
<g clip-path="url(#clip0)">
<path d="M8.99999 6H6.00003C4.8959 6.0011 4.00118 6.93646 4.00001 8.09059V13.6543C3.9972 14.51 4.49583 15.2801 5.25683 15.5954L8.25726 16.8504C8.49351 16.9492 8.74558 16.9999 8.99999 17C10.1047 16.9998 11 16.0637 11 14.9089V8.09059C10.9988 6.93646 10.1041 6.00122 8.99999 6ZM8.99999 14.9093L6.00003 13.6542V8.09059H8.99999V14.9093Z" fill="#034899"/>
<path d="M59 9.99998H54C53.9989 8.89584 53.1041 8.00111 52 7.99994H49.7278C49.4535 7.51091 48.9905 7.13498 48.4188 6.9838L44.8835 6.17591C44.5245 4.92072 43.37 4.0015 41.9999 3.99998H36.2336C35.6844 3.38709 34.8873 3.00095 33.9998 3.00002H30.9998C30.7984 3.00025 30.6042 3.03084 30.4208 3.08638L26.2269 0.570367C25.6054 0.197359 24.894 0.000249528 24.169 1.51532e-05H15.2427C14.1811 -0.00291453 13.1625 0.419078 12.414 1.17189L12.1718 1.41412C11.7975 1.79052 11.2881 2.00146 10.7572 2.00005H3.99996C1.79191 2.00252 0.00257812 3.79197 0 6.00002V16.0502C0.000820313 17.6308 0.931524 19.0629 2.37551 19.7056L7.1216 21.8149C8.03602 22.2203 8.50945 23.2395 8.22949 24.1997C6.86027 28.6766 6.11016 33.3198 6 38.0001V42.1715C6.0007 42.437 5.89523 42.6918 5.70703 42.8789L4.29434 44.2916C4.2934 44.2926 4.29258 44.2934 4.29164 44.2943L3.87891 44.707C3.3143 45.2684 2.99777 46.0324 3 46.8286V55C3.00328 57.7601 5.23992 59.9967 8.00004 60H30.3946C30.987 60.0006 31.5661 59.8253 32.0586 59.4961L33.6641 58.4258C34.4995 57.8702 35.0011 56.9331 35 55.9297V52.6412C35.001 52.0159 34.8055 51.4059 34.4414 50.8976L31.9072 47.3502C30.4039 45.2499 27.9804 44.0026 25.3975 44.0001H20H18.6299C18.1184 43.9995 17.6367 43.759 17.3287 43.3506C17.0208 42.9422 16.9222 42.413 17.0625 41.921L20.1323 31.1759C20.5046 29.8896 21.681 29.0032 23.0201 29.0001C24.1131 28.9989 24.9989 28.1131 25.0001 27.0201V26.0001C25.0001 25.8448 24.964 25.6916 24.8946 25.5527C24.879 25.522 23.4259 22.5513 25.3273 21H28.0001C29.3087 20.9986 30.4205 20.16 30.8307 18.9913C30.8868 18.9961 30.9429 19 31.0001 19H34.0001C34.8875 18.999 35.6847 18.6128 36.2338 18H42C43.3702 17.9985 44.5246 17.0792 44.8836 15.824L48.4194 15.0156C48.9908 14.8645 49.4537 14.4888 49.7279 13.9999H52C53.1041 13.9989 53.9988 13.104 54 11.9999H59C59.5523 11.9999 60 11.5521 60 10.9999C60 10.4477 59.5523 9.99998 59 9.99998ZM32.5547 56.7618L30.9486 57.832C30.7847 57.9418 30.5918 58.0003 30.3945 58.0001H7.99992C6.34383 57.9983 5.00168 56.6562 4.99992 55.0001H33V55.9297C33.0002 56.2641 32.8331 56.5765 32.5547 56.7618ZM20 46H25.3975C27.3346 46.002 29.1521 46.9371 30.2798 48.5122L32.8136 52.0596C32.9352 52.2291 33.0004 52.4325 33.0001 52.6411V53.0001H5.00004V46.8286C4.99934 46.5631 5.1048 46.3083 5.29301 46.1211L5.41406 46.0001H18.6299H20V46ZM19.1442 28.8448C18.3217 26.644 18.2674 24.8598 18.9873 23.5268C19.9289 21.7819 22.0185 21.2059 22.8036 21.0469C21.9667 22.8477 22.4389 24.9803 23.0039 26.2333L23.017 26.9999C21.4808 27.0051 20.0736 27.7077 19.1442 28.8448ZM29 18C28.9993 18.552 28.552 18.9993 28.0001 19H25.0001H23C22.9631 18.9999 22.9263 19.002 22.8898 19.0063C22.7282 19.0239 18.9112 19.4814 17.2364 22.56C16.0198 24.7961 16.2854 27.7292 18.0231 31.2786L15.1392 41.372C14.8874 42.2556 14.9821 43.1931 15.388 43.9999H7.37848C7.78055 43.479 8.00191 42.8366 8.00004 42.1713V37.9999C8.10961 33.5127 8.83172 29.0616 10.1466 24.7699C10.7111 22.8468 9.76535 20.8027 7.93418 19.9877L3.18809 17.8779C2.46598 17.5567 2.00051 16.8406 2.00004 16.0502V6.00002C2.00109 4.89587 2.89594 4.00115 4.00008 3.99998H10.7573C11.8189 4.00291 12.8375 3.58091 13.586 2.8281L13.8281 2.58599C14.2024 2.20959 14.7118 1.99865 15.2427 2.00005H24.169C24.5314 2.00017 24.887 2.09873 25.1978 2.28517L29.0423 4.59166C29.0149 4.72349 29.0002 4.86002 28.9999 4.99994V15V17.0001V18H29ZM34 17.0001H31V15H31.9999C32.5522 15 32.9999 14.5522 32.9999 14.0001C32.9999 13.4479 32.5521 13.0001 31.9999 13.0001H31V9.00002H31.9999C32.5522 9.00002 32.9999 8.55236 32.9999 8.00005C32.9999 7.44775 32.5521 7.00009 31.9999 7.00009H31V5.00005H34C34.5519 5.00076 34.9992 5.44806 34.9999 6.00002V16C34.9993 16.552 34.552 16.9993 34 17.0001ZM42 16H37V9.99998H40C40.5523 9.99998 40.9999 9.55232 40.9999 9.00002C40.9999 8.44771 40.5523 8.00005 40 8.00005H37V6.00002H42C42.552 6.00072 42.9993 6.44802 43 6.99998V15C42.9993 15.552 42.552 15.9993 42 16ZM45 13.7456V8.25294L47.9482 8.92384C47.9852 8.96697 48.0037 9.02287 48 9.07959V12.9204C47.9971 12.9697 47.9883 13.0186 47.9736 13.066L45 13.7456ZM50 12V9.99998H52.0001L52.0008 10.9856C52.0007 10.9904 52.0001 10.9951 52.0001 10.9999C52.0001 11.0049 52.0008 11.0097 52.0008 11.0147L52.0015 12H50Z" fill="#034899"/>
<path d="M24.9999 6H15C14.4477 6 14 6.44766 14 6.99996C14 7.55227 14.4477 7.99993 15 7.99993H24.9999C25.5522 7.99993 25.9999 7.55227 25.9999 6.99996C25.9999 6.44766 25.5522 6 24.9999 6Z" fill="#E6330F"/>
<path d="M24.9999 10H15C14.4477 10 14 10.4478 14 11C14 11.5523 14.4477 11.9999 15 11.9999H24.9999C25.5522 11.9999 25.9999 11.5521 25.9999 11C26 10.4478 25.5522 10 24.9999 10Z" fill="#E6330F"/>
<path d="M24.9999 14H15C14.4477 14 14 14.4477 14 15C14 15.5523 14.4477 15.9999 15 15.9999H24.9999C25.5522 15.9999 25.9999 15.5523 25.9999 15C26 14.4477 25.5522 14 24.9999 14Z" fill="#E6330F"/>
</g>
<defs>
<clipPath id="clip0">
<rect width="60" height="60" fill="white"/>
</clipPath>
</defs>
</svg>
