<svg width="60" height="60" viewBox="0 0 60 60" fill="none" xmlns="http://www.w3.org/2000/svg">
<path d="M36 12.5C36 11.4122 35.6774 10.3488 35.0731 9.44437C34.4687 8.5399 33.6098 7.83495 32.6048 7.41866C31.5998 7.00238 30.4939 6.89346 29.427 7.10568C28.3601 7.3179 27.3801 7.84173 26.6109 8.61092C25.8417 9.3801 25.3179 10.3601 25.1057 11.427C24.8935 12.4939 25.0024 13.5998 25.4187 14.6048C25.8349 15.6098 26.5399 16.4687 27.4444 17.0731C28.3488 17.6774 29.4122 18 30.5 18C31.9582 17.9984 33.3562 17.4184 34.3873 16.3873C35.4184 15.3562 35.9984 13.9582 36 12.5ZM26.8333 12.5C26.8333 11.7748 27.0484 11.0659 27.4513 10.4629C27.8542 9.85993 28.4268 9.38996 29.0968 9.11244C29.7668 8.83492 30.5041 8.76231 31.2153 8.90379C31.9266 9.04527 32.5799 9.39448 33.0927 9.90728C33.6055 10.4201 33.9547 11.0734 34.0962 11.7847C34.2377 12.4959 34.1651 13.2332 33.8876 13.9032C33.61 14.5732 33.1401 15.1458 32.5371 15.5487C31.9341 15.9516 31.2252 16.1667 30.5 16.1667C29.5279 16.1656 28.5959 15.7789 27.9085 15.0915C27.2211 14.4041 26.8344 13.4721 26.8333 12.5Z" fill="#E6330F"/>
<path d="M29.9526 27.8321C30.113 27.9414 30.3041 28 30.5 28C30.6959 28 30.887 27.9414 31.0474 27.8321C32.8603 26.533 34.519 25.0418 35.993 23.386C39.2686 19.7216 41 15.8589 41 12.2143C41 9.50528 39.8938 6.90724 37.9246 4.99169C35.9555 3.07614 33.2848 2 30.5 2C27.7152 2 25.0445 3.07614 23.0754 4.99169C21.1062 6.90724 20 9.50528 20 12.2143C20 15.8589 21.7314 19.7216 25.0069 23.386C26.481 25.0418 28.1397 26.533 29.9526 27.8321ZM30.5 3.85714C32.7777 3.85963 34.9613 4.74091 36.5719 6.30764C38.1824 7.87436 39.0884 9.99858 39.0909 12.2143C39.0909 18.8583 32.4708 24.4048 30.5 25.9087C28.5262 24.4066 21.9091 18.8711 21.9091 12.2143C21.9116 9.99858 22.8176 7.87436 24.4281 6.30764C26.0387 4.74091 28.2223 3.85963 30.5 3.85714Z" fill="#E6330F"/>
<path d="M18 50L18.5943 48.0903L20.5079 48.6719L19.9136 50.5816L18 50Z" fill="#034899"/>
<path d="M22 52L22.5943 50.0903L24.5079 50.6719L23.9136 52.5816L22 52Z" fill="#034899"/>
<path d="M26 53L26.5943 51.0903L28.5079 51.6719L27.9136 53.5816L26 53Z" fill="#034899"/>
<path d="M55.3333 23.3299L41.1667 19L40.6111 20.7934L51.8444 24.2266L30.5 30.7502L9.15556 24.2266L20.3885 20.7934L19.833 19L5.66631 23.3299C5.47334 23.389 5.30451 23.5079 5.18459 23.6693C5.06468 23.8307 4.99998 24.026 5 24.2266V49.5567C5 49.7573 5.06475 49.9526 5.18474 50.114C5.30472 50.2754 5.47363 50.3943 5.66666 50.4533L30.2222 57.9585C30.4032 58.0138 30.5968 58.0138 30.7778 57.9585L55.3333 50.4533C55.5264 50.3943 55.6953 50.2754 55.8153 50.114C55.9352 49.9526 56 49.7573 56 49.5567V24.2266C56 24.0259 55.9352 23.8306 55.8153 23.6692C55.6953 23.5078 55.5264 23.3889 55.3333 23.3299ZM6.88889 25.4968L29.5556 32.4247V55.7916L6.88889 48.8638V25.4968ZM31.4444 55.7916V32.4247L54.1111 25.4968V48.8638L31.4444 55.7916Z" fill="#034899"/>
<path d="M43 49L44.9136 48.4184L45.5079 50.3281L43.5943 50.9097L43 49Z" fill="#034899"/>
<path d="M46 48L47.9136 47.4184L48.5079 49.3281L46.5943 49.9097L46 48Z" fill="#034899"/>
<path d="M50 46L51.9136 45.4184L52.5079 47.3281L50.5943 47.9097L50 46Z" fill="#034899"/>
<path d="M23.0833 39C23.3264 39 23.5596 38.9059 23.7315 38.7384C23.9034 38.5709 24 38.3437 24 38.1069V33.6413C24 33.4503 23.9372 33.2643 23.8207 33.1107C23.7042 32.957 23.5403 32.8438 23.3529 32.7876L14.1863 30.0395C14.0492 29.9984 13.9041 29.9892 13.7626 30.0127C13.6212 30.0362 13.4874 30.0917 13.372 30.1747C13.2567 30.2578 13.1629 30.366 13.0983 30.4908C13.0336 30.6156 13 30.7534 13 30.8932V35.3588C13 35.5498 13.0628 35.7358 13.1793 35.8894C13.2958 36.0431 13.4597 36.1563 13.6471 36.2124L22.8137 38.9606C22.9011 38.9867 22.9919 39 23.0833 39ZM22.1667 36.8976L14.8333 34.6993V32.1025L22.1667 34.3008V36.8976Z" fill="#034899"/>
<path d="M48 35.3588V30.8932C48 30.7534 47.9664 30.6156 47.9017 30.4908C47.8371 30.366 47.7433 30.2578 47.628 30.1747C47.5126 30.0917 47.3788 30.0362 47.2374 30.0127C47.0959 29.9892 46.9508 29.9984 46.8137 30.0395L37.6471 32.7876C37.4597 32.8438 37.2958 32.957 37.1793 33.1106C37.0628 33.2643 37 33.4502 37 33.6412V38.1068C37 38.2466 37.0336 38.3844 37.0983 38.5092C37.1629 38.634 37.2567 38.7422 37.372 38.8253C37.4874 38.9083 37.6212 38.9638 37.7626 38.9873C37.9041 39.0108 38.0492 39.0016 38.1863 38.9605L47.3529 36.2124C47.5403 36.1562 47.7042 36.043 47.8207 35.8894C47.9372 35.7357 48 35.5498 48 35.3588ZM46.1667 34.6992L38.8333 36.8975V34.3008L46.1667 32.1025V34.6992Z" fill="#034899"/>
</svg>
