<svg width="22" height="24" viewBox="0 0 22 24" fill="none" xmlns="http://www.w3.org/2000/svg">
<path d="M10.9773 2C9.03637 2 7.17496 2.84285 5.80253 4.34315C4.43011 5.84344 3.65909 7.87827 3.65909 10C3.65909 15.4 10.1082 21.5 10.3827 21.76C10.5484 21.9149 10.7592 22.0001 10.9773 22.0001C11.1953 22.0001 11.4062 21.9149 11.5719 21.76C11.892 21.5 18.2955 15.4 18.2955 10C18.2955 7.87827 17.5244 5.84344 16.152 4.34315C14.7796 2.84285 12.9182 2 10.9773 2V2ZM10.9773 19.65C9.0288 17.65 5.48863 13.34 5.48863 10C5.48863 8.4087 6.0669 6.88258 7.09622 5.75736C8.12554 4.63214 9.52159 4 10.9773 4C12.4329 4 13.829 4.63214 14.8583 5.75736C15.8876 6.88258 16.4659 8.4087 16.4659 10C16.4659 13.34 12.9257 17.66 10.9773 19.65ZM10.9773 6C10.2536 6 9.54612 6.2346 8.94439 6.67412C8.34265 7.11365 7.87366 7.73836 7.59671 8.46927C7.31976 9.20017 7.2473 10.0044 7.38849 10.7804C7.52967 11.5563 7.87817 12.269 8.3899 12.8284C8.90163 13.3878 9.55362 13.7688 10.2634 13.9231C10.9732 14.0775 11.7089 13.9983 12.3775 13.6955C13.0462 13.3928 13.6176 12.8801 14.0197 12.2223C14.4218 11.5645 14.6364 10.7911 14.6364 10C14.6364 8.93913 14.2509 7.92172 13.5646 7.17157C12.8784 6.42143 11.9477 6 10.9773 6ZM10.9773 12C10.6154 12 10.2617 11.8827 9.96083 11.6629C9.65996 11.4432 9.42546 11.1308 9.28699 10.7654C9.14852 10.3999 9.11228 9.99778 9.18288 9.60982C9.25347 9.22186 9.42772 8.86549 9.68359 8.58579C9.93945 8.30608 10.2654 8.1156 10.6203 8.03843C10.9752 7.96126 11.3431 8.00087 11.6774 8.15224C12.0117 8.30362 12.2974 8.55996 12.4985 8.88886C12.6995 9.21776 12.8068 9.60444 12.8068 10C12.8068 10.5304 12.6141 11.0391 12.271 11.4142C11.9278 11.7893 11.4625 12 10.9773 12Z" fill="#034899"/>
</svg>
