<svg width="60" height="60" viewBox="0 0 60 60" fill="none" xmlns="http://www.w3.org/2000/svg">
<path d="M16 11H18V13H16V11Z" fill="#034899"/>
<path d="M20 11H22V13H20V11Z" fill="#034899"/>
<path d="M23 11H25V13H23V11Z" fill="#034899"/>
<path d="M27 11H29V13H27V11Z" fill="#034899"/>
<path d="M17 22H19V24H17V22Z" fill="#034899"/>
<path d="M21 22H23V24H21V22Z" fill="#034899"/>
<path d="M24 22H26V24H24V22Z" fill="#034899"/>
<path d="M57.1071 13.2H40.0714V4.8C40.0714 4.05739 39.7723 3.3452 39.2398 2.8201C38.7074 2.295 37.9852 2 37.2321 2H8.83929C8.08626 2 7.36408 2.295 6.83161 2.8201C6.29914 3.3452 6 4.05739 6 4.8V55.2C6 55.9426 6.29914 56.6548 6.83161 57.1799C7.36408 57.705 8.08626 58 8.83929 58H50.4821C51.2352 58 51.9574 57.705 52.4898 57.1799C53.0223 56.6548 53.3214 55.9426 53.3214 55.2V52.4H57.1071C57.6092 52.4 58.0906 52.2033 58.4456 51.8533C58.8006 51.5032 59 51.0284 59 50.5333V15.0667C59 14.5716 58.8006 14.0968 58.4456 13.7467C58.0906 13.3967 57.6092 13.2 57.1071 13.2ZM29.3948 3.86667L28.9216 5.73333H17.1499L16.6767 3.86667H29.3948ZM7.89286 55.2V4.8C7.89286 4.55246 7.99257 4.31507 8.17006 4.14003C8.34755 3.965 8.58828 3.86667 8.83929 3.86667H14.7251L15.3129 6.186C15.4153 6.58999 15.6517 6.94861 15.9846 7.20483C16.3174 7.46105 16.7276 7.60015 17.1499 7.6H28.9216C29.3438 7.60015 29.754 7.46105 30.0869 7.20483C30.4197 6.94861 30.6562 6.58999 30.7586 6.186L31.3463 3.86667H37.2321C37.4832 3.86667 37.7239 3.965 37.9014 4.14003C38.0789 4.31507 38.1786 4.55246 38.1786 4.8V13.2H34.3929C33.8908 13.2 33.4094 13.3967 33.0544 13.7467C32.6994 14.0968 32.5 14.5716 32.5 15.0667V18.8H16.4107C15.6577 18.8 14.9355 19.095 14.403 19.6201C13.8706 20.1452 13.5714 20.8574 13.5714 21.6V55.2C13.5746 55.5187 13.6335 55.8344 13.7456 56.1333H8.83929C8.58828 56.1333 8.34755 56.035 8.17006 55.86C7.99257 55.6849 7.89286 55.4475 7.89286 55.2ZM32.5 24.4H15.4643V21.6C15.4643 21.3525 15.564 21.1151 15.7415 20.94C15.919 20.765 16.1597 20.6667 16.4107 20.6667H32.5V24.4ZM51.4286 55.2C51.4286 55.4475 51.3289 55.6849 51.1514 55.86C50.9739 56.035 50.7332 56.1333 50.4821 56.1333H16.4107C16.1597 56.1333 15.919 56.035 15.7415 55.86C15.564 55.6849 15.4643 55.4475 15.4643 55.2V26.2667H32.5V50.5333C32.5 51.0284 32.6994 51.5032 33.0544 51.8533C33.4094 52.2033 33.8908 52.4 34.3929 52.4H51.4286V55.2ZM57.1071 50.5333H34.3929V15.0667H37.2321V16.9333H39.125V15.0667H41.0179V16.9333H42.9107V15.0667H44.8036V16.9333H46.6964V15.0667H48.5893V16.9333H50.4821V15.0667H52.375V16.9333H54.2679V15.0667H57.1071V50.5333Z" fill="#034899"/>
<path d="M43 21H52V23H43V21Z" fill="#034899"/>
<path d="M38 30H47V32H38V30Z" fill="#034899"/>
<path d="M49 30H53V32H49V30Z" fill="#034899"/>
<path d="M38 34H47V36H38V34Z" fill="#034899"/>
<path d="M49 34H53V36H49V34Z" fill="#034899"/>
<path d="M38 38H47V40H38V38Z" fill="#034899"/>
<path d="M49 38H53V40H49V38Z" fill="#034899"/>
<path d="M38 41H47V43H38V41Z" fill="#034899"/>
<path d="M49 41H53V43H49V41Z" fill="#034899"/>
<path d="M41 45H47V47H41V45Z" fill="#034899"/>
<path d="M49 45H53V47H49V45Z" fill="#034899"/>
<path d="M43 24H52V26H43V24Z" fill="#034899"/>
<path d="M24.2692 45.1113H21.861V47H20.488V45.1113H19V44.0261H20.488V43.0852H19V42.0069H20.488V37H24.3482C25.4696 37 26.3586 37.2724 27.0152 37.8173C27.6717 38.3622 28 39.0994 28 40.0288C28 41.0041 27.6837 41.7573 27.0511 42.2885C26.4233 42.815 25.5296 43.0806 24.3698 43.0852H21.861V44.0261H24.2692V45.1113ZM21.861 42.0069H24.3482C25.0911 42.0069 25.6565 41.8397 26.0447 41.5055C26.4329 41.1712 26.627 40.6836 26.627 40.0426C26.627 39.4611 26.4257 38.9918 26.0232 38.6346C25.6206 38.2729 25.0767 38.0897 24.3914 38.0852H21.861V42.0069Z" fill="#E6330F"/>
</svg>
