<svg width="60" height="60" viewBox="0 0 60 60" fill="none" xmlns="http://www.w3.org/2000/svg">
<path d="M14.1803 46H8.81954C8.36683 46 8 46.4476 8 47C8 47.5524 8.36683 48 8.81954 48H14.1805C14.6332 48 15 47.5524 15 47C15 46.4476 14.6331 46 14.1803 46Z" fill="#E6330F"/>
<path d="M39.1805 46H33.8195C33.3668 46 33 46.4476 33 47C33 47.5524 33.3668 48 33.8195 48H39.1805C39.6332 48 40 47.5524 40 47C40 46.4476 39.6331 46 39.1805 46Z" fill="#E6330F"/>
<path d="M27.1805 21H21.8195C21.3668 21 21 21.4477 21 22C21 22.5523 21.3668 23 21.8195 23H27.1805C27.6332 23 28 22.5524 28 22C28 21.4476 27.6331 21 27.1805 21Z" fill="#E6330F"/>
<path d="M58.229 49.351H55.3979C55.4517 49.1524 55.483 48.9445 55.483 48.729V27.0551C55.483 25.7431 54.4185 24.6755 53.1099 24.6755C51.9813 24.6755 44.2492 24.6754 43.0947 24.6754C43.1485 24.4768 43.1798 24.269 43.1798 24.0535V11.5571C43.1798 11.0717 42.7875 11.8657 42.3034 11.8657C41.8192 11.8657 41.4268 11.0717 41.4268 11.5571L41.4269 24.0535C41.4269 24.3964 41.1487 24.6754 40.8067 24.6754C40.4426 24.6754 19.5575 24.6754 19.1933 24.6754C18.8513 24.6754 18.5731 24.3964 18.5731 24.0535V2.37961C18.5731 2.03672 18.8513 1.75782 19.1933 1.75782H25.1099V10.2325C25.1099 11.4958 26.5113 12.2406 27.5528 11.5571L29.9999 9.95111L32.447 11.5571C33.4954 12.2448 34.8899 11.4892 34.8899 10.2325V1.75782H40.8066C41.1485 1.75782 41.4268 2.03672 41.4268 2.37961V11.3643C41.4268 11.8497 41.8192 12.3671 42.3034 12.3671C42.7875 12.3671 43.1798 11.8497 43.1798 11.3643L43.1797 2.37961C43.1797 1.06746 42.1152 0 40.8066 0C39.9823 0 20.0184 0 19.1932 0C17.8847 0 16.8201 1.06746 16.8201 2.37961V24.0536C16.8201 24.269 16.8513 24.4769 16.9051 24.6755C16.6024 24.6755 12.9432 24.6756 6.88986 24.6756C5.58137 24.6756 4.51677 25.7431 4.51677 27.0552V48.7291C4.51677 48.9446 4.54809 49.1524 4.60185 49.3512H1.7709C0.794417 49.351 0 50.1477 0 51.127V53.6044C0 54.5836 0.794534 55.5712 1.77102 55.5712H3.22324V58.1586C3.22324 59.1739 4.04699 60 5.05947 60H7.7468C8.75927 60 9.58302 59.1739 9.58302 58.1586V55.4718H26.8202V58.1585C26.8202 59.1738 27.6439 60 28.6564 60H31.3437C32.3561 60 33.1798 59.2574 33.1798 58.2421V55.4718H42.3044C42.7885 55.4718 42 54.9702 42 54.4847C42 53.9992 42.6838 53.6296 42.1996 53.6296C40.5364 53.6296 3.2798 53.6224 1.77102 53.6224C1.76109 53.6224 1.75302 53.6143 1.75302 53.6044V51.127C1.75302 51.1171 1.76109 51.109 1.77102 51.109L58.1038 51.127V53.6044C57.8567 53.6044 58.0099 53.6044 58 53.6044C57.4688 53.6044 43.014 53.6224 42.3044 53.6224C41.8202 53.6224 42 53.9992 42 54.4847C42 54.9702 41.8202 55.4718 42.3044 55.4718L50.5 55.5712L50.417 58.1586C50.417 59.1739 51.2407 60 52.2532 60H54.9405C55.953 60 56.7768 59.1739 56.7768 58.1586V55.5712H58.229C59.2055 55.5712 60 54.5836 60 53.6044V51.127C60 50.1477 59.2056 49.351 58.229 49.351ZM26.8628 1.75782H33.1371V9.90916L30.8644 8.41771C30.3392 8.07318 29.6603 8.07318 29.1356 8.41771L26.8628 9.90916V1.75782ZM28.5731 55.4718H31.4269V58.1585C31.4269 58.2047 31.4269 57.3139 31.3437 58.2421H28.6564C28.6104 58.2421 28.5731 58.2047 28.5731 58.1585V55.4718ZM4.97615 55.5712H7.83012V58.1585C7.83012 58.2047 7.79284 58.2421 7.7468 58.2421H5.05947C5.01343 58.2421 4.97615 58.2047 4.97615 58.1585V55.5712ZM39.1661 26.4335H45.4404V34.5848L43.1677 33.0933C42.6426 32.7488 41.9641 32.7486 41.4389 33.0933L39.1661 34.5848V26.4335ZM14.5596 26.6739H20.8338V34.5848L18.5609 33.0932C18.0359 32.7488 17.3574 32.7488 16.8323 33.0933L14.5596 34.5848V26.6739ZM29.1236 48.7291C29.1236 49.0663 28.8396 49.3512 28.5034 49.3512H6.88997C6.55377 49.3512 6.66553 49.1409 6.66553 48.8038L6.48217 27.0552C6.8779 26.7422 6.54792 26.6739 6.88986 26.6739H12.8067V34.9081C12.8067 36.1642 14.2008 36.9207 15.2497 36.2327L17.6966 34.6269L20.1438 36.2328C21.1901 36.9195 22.5866 36.1679 22.5866 34.9081V26.6739H28.5C28.8419 26.6739 29.1235 26.7124 29.1235 27.0552L29.1236 48.7291ZM53.7301 48.7291C53.7301 49.0721 53.4518 49.3512 53.1099 49.3512H31.4966C31.1546 49.3512 30.8764 49.0721 30.8764 48.7291V27.0552C30.8764 26.7124 31.1581 26.6739 31.5 26.6739L37.4132 26.4335V34.9081C37.4132 36.1646 38.8076 36.9206 39.8561 36.2327L42.3031 34.6269L44.7503 36.2327C45.7973 36.9198 47.1932 36.1673 47.1932 34.9081V26.4335H53.1098C53.4517 26.4335 53.73 26.7124 53.73 27.0552L53.7301 48.7291ZM55.0239 58.1585C55.0239 58.2047 54.9866 58.2421 54.9405 58.2421H52.2532C52.2072 58.2421 52.1699 58.2047 52.1699 58.1585V55.5712H55.0239V58.1585Z" fill="#034899"/>
<path fill-rule="evenodd" clip-rule="evenodd" d="M26 19.0743V15H23V20L26 19.0743Z" fill="#F44336"/>
<path fill-rule="evenodd" clip-rule="evenodd" d="M25.0246 17.259C25.0246 17.259 24.8768 17.259 24.5915 17.259C24.3063 17.259 23.8873 17.503 23.8873 18.0813C23.8873 18.5542 24.2148 18.7289 24.5387 18.7289C24.7218 18.7289 25.0246 18.4578 25.0246 18.1355V17.259ZM26 18.9066H25.0246V18.6867C24.8592 18.8163 24.5106 19 24.1197 19C23.7324 19 23 18.7651 23 18.0723C23 17.3825 23.9366 17.0392 24.4789 17.0392C25.0211 17.0392 25.0246 17.0392 25.0246 17.0392C25.0246 16.7861 25.0246 16.7259 25.0246 16.5482C25.0246 16.3735 24.8768 16.2169 24.6127 16.2169C24.3451 16.2169 24.0211 16.3675 24.0211 16.753H23.243C23.243 16.497 23.4472 16 24.6197 16C25.7958 16 25.919 16.4518 25.919 16.6536C25.919 16.8584 25.919 18.5301 25.919 18.6265C25.919 18.7922 26 18.9066 26 18.9066Z" fill="white"/>
<path fill-rule="evenodd" clip-rule="evenodd" d="M37 44.0743V40H34V45L37 44.0743Z" fill="#F44336"/>
<path fill-rule="evenodd" clip-rule="evenodd" d="M36.0246 42.259C36.0246 42.259 35.8768 42.259 35.5915 42.259C35.3063 42.259 34.8873 42.503 34.8873 43.0813C34.8873 43.5542 35.2148 43.7289 35.5387 43.7289C35.7218 43.7289 36.0246 43.4578 36.0246 43.1355V42.259ZM37 43.9066H36.0246V43.6867C35.8592 43.8163 35.5106 44 35.1197 44C34.7324 44 34 43.7651 34 43.0723C34 42.3825 34.9366 42.0392 35.4789 42.0392C36.0211 42.0392 36.0246 42.0392 36.0246 42.0392C36.0246 41.7861 36.0246 41.7259 36.0246 41.5482C36.0246 41.3735 35.8768 41.2169 35.6127 41.2169C35.3451 41.2169 35.0211 41.3675 35.0211 41.753H34.243C34.243 41.497 34.4472 41 35.6197 41C36.7958 41 36.919 41.4518 36.919 41.6536C36.919 41.8584 36.919 43.5301 36.919 43.6265C36.919 43.7922 37 43.9066 37 43.9066Z" fill="white"/>
<path fill-rule="evenodd" clip-rule="evenodd" d="M13 44.0743V40H10V45L13 44.0743Z" fill="#F44336"/>
<path fill-rule="evenodd" clip-rule="evenodd" d="M12.0246 42.259C12.0246 42.259 11.8768 42.259 11.5915 42.259C11.3063 42.259 10.8873 42.503 10.8873 43.0813C10.8873 43.5542 11.2148 43.7289 11.5387 43.7289C11.7218 43.7289 12.0246 43.4578 12.0246 43.1355V42.259ZM13 43.9066H12.0246V43.6867C11.8592 43.8163 11.5106 44 11.1197 44C10.7324 44 10 43.7651 10 43.0723C10 42.3825 10.9366 42.0392 11.4789 42.0392C12.0211 42.0392 12.0246 42.0392 12.0246 42.0392C12.0246 41.7861 12.0246 41.7259 12.0246 41.5482C12.0246 41.3735 11.8768 41.2169 11.6127 41.2169C11.3451 41.2169 11.0211 41.3675 11.0211 41.753H10.243C10.243 41.497 10.4472 41 11.6197 41C12.7958 41 12.919 41.4518 12.919 41.6536C12.919 41.8584 12.919 43.5301 12.919 43.6265C12.919 43.7922 13 43.9066 13 43.9066Z" fill="white"/>
</svg>
