<svg width="60" height="60" viewBox="0 0 60 60" fill="none" xmlns="http://www.w3.org/2000/svg">
<path d="M24.1923 33H2.8077C2.59348 33 2.38804 32.9141 2.23657 32.7611C2.0851 32.6081 2 32.4006 2 32.1842V2.81579C2 2.59943 2.0851 2.39193 2.23657 2.23894C2.38804 2.08595 2.59348 2 2.8077 2H17.3511C17.5652 1.99983 17.7706 2.08551 17.9221 2.23821L24.7633 9.14468C24.9148 9.29764 25 9.5051 25 9.72145V32.1842C25 32.4006 24.9149 32.6081 24.7634 32.7611C24.612 32.9141 24.4065 33 24.1923 33ZM3.6154 31.3684H23.3846V10.06L17.0167 3.63158H3.6154V31.3684Z" fill="#034899"/>
<path d="M23.2359 10H16.7641C16.5614 10 16.3671 9.91954 16.2238 9.77633C16.0805 9.63312 16 9.43888 16 9.23635V2.76365C16 2.56112 16.0805 2.36688 16.2238 2.22367C16.3671 2.08046 16.5614 2 16.7641 2C16.9667 2 17.1611 2.08046 17.3044 2.22367C17.4477 2.36688 17.5282 2.56112 17.5282 2.76365V8.4727H23.2359C23.4386 8.4727 23.6329 8.55316 23.7762 8.69637C23.9195 8.83958 24 9.03382 24 9.23635C24 9.43888 23.9195 9.63312 23.7762 9.77633C23.6329 9.91954 23.4386 10 23.2359 10Z" fill="#034899"/>
<path d="M20.1998 27H5.8002C5.58797 27 5.38444 26.8946 5.23437 26.7071C5.08431 26.5196 5 26.2652 5 26C5 25.7348 5.08431 25.4804 5.23437 25.2929C5.38444 25.1054 5.58797 25 5.8002 25H20.1998C20.412 25 20.6156 25.1054 20.7656 25.2929C20.9157 25.4804 21 25.7348 21 26C21 26.2652 20.9157 26.5196 20.7656 26.7071C20.6156 26.8946 20.412 27 20.1998 27Z" fill="#034899"/>
<path d="M20.1998 21H5.8002C5.58797 21 5.38444 20.8946 5.23437 20.7071C5.08431 20.5196 5 20.2652 5 20C5 19.7348 5.08431 19.4804 5.23437 19.2929C5.38444 19.1054 5.58797 19 5.8002 19H20.1998C20.412 19 20.6156 19.1054 20.7656 19.2929C20.9157 19.4804 21 19.7348 21 20C21 20.2652 20.9157 20.5196 20.7656 20.7071C20.6156 20.8946 20.412 21 20.1998 21Z" fill="#034899"/>
<path d="M20.1998 15H5.8002C5.58797 15 5.38444 14.8946 5.23437 14.7071C5.08431 14.5196 5 14.2652 5 14C5 13.7348 5.08431 13.4804 5.23437 13.2929C5.38444 13.1054 5.58797 13 5.8002 13H20.1998C20.412 13 20.6156 13.1054 20.7656 13.2929C20.9157 13.4804 21 13.7348 21 14C21 14.2652 20.9157 14.5196 20.7656 14.7071C20.6156 14.8946 20.412 15 20.1998 15Z" fill="#034899"/>
<path d="M13.2195 10H5.7805C5.5735 10 5.37498 9.89464 5.2286 9.70711C5.08223 9.51957 5 9.26522 5 9C5 8.73478 5.08223 8.48043 5.2286 8.29289C5.37498 8.10536 5.5735 8 5.7805 8H13.2195C13.4265 8 13.625 8.10536 13.7714 8.29289C13.9178 8.48043 14 8.73478 14 9C14 9.26522 13.9178 9.51957 13.7714 9.70711C13.625 9.89464 13.4265 10 13.2195 10Z" fill="#034899"/>
<path d="M57.1923 59H35.8077C35.5935 59 35.388 58.9141 35.2366 58.7611C35.0851 58.6081 35 58.4006 35 58.1842V28.8158C35 28.5994 35.0851 28.3919 35.2366 28.2389C35.388 28.0859 35.5935 28 35.8077 28H50.3503C50.5644 27.9998 50.7698 28.0855 50.9213 28.2382L57.7633 35.1447C57.9148 35.2976 58 35.5051 58 35.7214V58.1842C58 58.4006 57.9149 58.6081 57.7634 58.7611C57.612 58.9141 57.4065 59 57.1923 59ZM36.6154 57.3684H56.3846V36.06L50.0159 29.6316H36.6154V57.3684Z" fill="#034899"/>
<path d="M57.236 36H50.764C50.5614 36 50.3671 35.9195 50.2238 35.7763C50.0805 35.6331 50 35.4389 50 35.2364V28.7637C50 28.5611 50.0805 28.3669 50.2238 28.2237C50.3671 28.0805 50.5614 28 50.764 28C50.9666 28 51.161 28.0805 51.3043 28.2237C51.4475 28.3669 51.528 28.5611 51.528 28.7637V34.4727H57.236C57.4386 34.4727 57.6329 34.5532 57.7762 34.6964C57.9195 34.8396 58 35.0338 58 35.2364C58 35.4389 57.9195 35.6331 57.7762 35.7763C57.6329 35.9195 57.4386 36 57.236 36Z" fill="#034899"/>
<path d="M54.2 53H39.8C39.5878 53 39.3843 52.8946 39.2343 52.7071C39.0843 52.5196 39 52.2652 39 52C39 51.7348 39.0843 51.4804 39.2343 51.2929C39.3843 51.1054 39.5878 51 39.8 51H54.2C54.4122 51 54.6157 51.1054 54.7657 51.2929C54.9157 51.4804 55 51.7348 55 52C55 52.2652 54.9157 52.5196 54.7657 52.7071C54.6157 52.8946 54.4122 53 54.2 53Z" fill="#034899"/>
<path d="M54.2 47H39.8C39.5878 47 39.3843 46.8946 39.2343 46.7071C39.0843 46.5196 39 46.2652 39 46C39 45.7348 39.0843 45.4804 39.2343 45.2929C39.3843 45.1054 39.5878 45 39.8 45H54.2C54.4122 45 54.6157 45.1054 54.7657 45.2929C54.9157 45.4804 55 45.7348 55 46C55 46.2652 54.9157 46.5196 54.7657 46.7071C54.6157 46.8946 54.4122 47 54.2 47Z" fill="#034899"/>
<path d="M54.2 41H39.8C39.5878 41 39.3843 40.8946 39.2343 40.7071C39.0843 40.5196 39 40.2652 39 40C39 39.7348 39.0843 39.4804 39.2343 39.2929C39.3843 39.1054 39.5878 39 39.8 39H54.2C54.4122 39 54.6157 39.1054 54.7657 39.2929C54.9157 39.4804 55 39.7348 55 40C55 40.2652 54.9157 40.5196 54.7657 40.7071C54.6157 40.8946 54.4122 41 54.2 41Z" fill="#034899"/>
<path d="M47.2194 36H39.7806C39.5736 36 39.375 35.8946 39.2286 35.7071C39.0822 35.5196 39 35.2652 39 35C39 34.7348 39.0822 34.4804 39.2286 34.2929C39.375 34.1054 39.5736 34 39.7806 34H47.2194C47.4264 34 47.625 34.1054 47.7714 34.2929C47.9178 34.4804 48 34.7348 48 35C48 35.2652 47.9178 35.5196 47.7714 35.7071C47.625 35.8946 47.4264 36 47.2194 36Z" fill="#034899"/>
<path d="M49.1765 21C48.9581 21 48.7486 20.915 48.5941 20.7638C48.4397 20.6125 48.3529 20.4074 48.3529 20.1934V9.6131H36.8235C36.6051 9.6131 36.3956 9.52813 36.2412 9.37687C36.0868 9.22561 36 9.02046 36 8.80655C36 8.59264 36.0868 8.38749 36.2412 8.23623C36.3956 8.08498 36.6051 8 36.8235 8H49.1765C49.3949 8 49.6044 8.08498 49.7588 8.23623C49.9132 8.38749 50 8.59264 50 8.80655V20.1934C50 20.4074 49.9132 20.6125 49.7588 20.7638C49.6044 20.915 49.3949 21 49.1765 21Z" fill="#E6330F"/>
<path d="M39.2337 13C39.033 13 38.8404 12.9137 38.6985 12.7603L36.2216 10.0834C36.0797 9.93001 36 9.72196 36 9.50503C36 9.28809 36.0797 9.08004 36.2216 8.92662L38.6985 6.24976C38.7683 6.17162 38.8519 6.1093 38.9442 6.06642C39.0366 6.02354 39.1359 6.00097 39.2364 6.00003C39.3369 5.99909 39.4366 6.01979 39.5297 6.06092C39.6227 6.10206 39.7072 6.1628 39.7783 6.23962C39.8494 6.31643 39.9056 6.40778 39.9436 6.50832C39.9817 6.60886 40.0008 6.71659 40 6.82522C39.9991 6.93385 39.9782 7.0412 39.9385 7.14101C39.8989 7.24083 39.8412 7.3311 39.7689 7.40657L37.8272 9.50503L39.7689 11.6035C39.8747 11.7179 39.9468 11.8637 39.976 12.0223C40.0052 12.181 39.9902 12.3455 39.9329 12.4949C39.8756 12.6444 39.7786 12.7722 39.6542 12.8621C39.5297 12.952 39.3834 13 39.2337 13Z" fill="#E6330F"/>
<path d="M23.1765 52H10.8235C10.6051 52 10.3956 51.915 10.2412 51.7638C10.0868 51.6125 10 51.4074 10 51.1934V39.8066C10 39.5926 10.0868 39.3875 10.2412 39.2362C10.3956 39.085 10.6051 39 10.8235 39C11.0419 39 11.2514 39.085 11.4059 39.2362C11.5603 39.3875 11.6471 39.5926 11.6471 39.8066V50.3869H23.1765C23.3949 50.3869 23.6044 50.4719 23.7588 50.6231C23.9132 50.7744 24 50.9795 24 51.1934C24 51.4074 23.9132 51.6125 23.7588 51.7638C23.6044 51.915 23.3949 52 23.1765 52Z" fill="#E6330F"/>
<path d="M20.7594 54C20.6093 54.0001 20.4625 53.9522 20.3376 53.8622C20.2128 53.7723 20.1154 53.6443 20.0579 53.4946C20.0004 53.3449 19.9853 53.1801 20.0145 53.0211C20.0438 52.8622 20.116 52.7161 20.2222 52.6015L22.1685 50.5001L20.2222 48.3987C20.0799 48.2449 20 48.0365 20.0001 47.8191C20.0001 47.6018 20.0802 47.3934 20.2225 47.2398C20.3649 47.0862 20.558 46.9999 20.7593 47C20.9606 47.0001 21.1536 47.0865 21.2958 47.2402L23.7778 49.9209C23.9201 50.0745 24 50.2828 24 50.5001C24 50.7173 23.9201 50.9257 23.7778 51.0793L21.2958 53.76C21.1536 53.9136 20.9606 54 20.7594 54Z" fill="#E6330F"/>
</svg>
