<svg width="60" height="60" viewBox="0 0 60 60" fill="none" xmlns="http://www.w3.org/2000/svg">
<path d="M30 4H38V6H30V4Z" fill="#034899"/>
<path d="M40 4H42V6H40V4Z" fill="#034899"/>
<path d="M26 4H28V6H26V4Z" fill="#034899"/>
<path d="M31 54H37V56H31V54Z" fill="#034899"/>
<path d="M57.0968 29.0323C56.7561 29.0323 56.4329 29.1017 56.129 29.2104V4.83871C56.129 2.1708 53.9582 0 51.2903 0H16.4516C13.7837 0 11.6129 2.1708 11.6129 4.83871V17.4194H20.3226C20.8556 17.4194 21.2903 17.8531 21.2903 18.3871V26.129C21.2903 26.663 20.8556 27.0968 20.3226 27.0968H11.6129V29.9216L8.08168 27.0968H2.90323C2.37021 27.0968 1.93548 26.663 1.93548 26.129V18.3871C1.93548 17.8531 2.37021 17.4194 2.90323 17.4194H9.67742V15.4839H2.90323C1.30277 15.4839 0 16.7866 0 18.3871V26.129C0 27.7295 1.30277 29.0323 2.90323 29.0323H7.40219L13.5484 33.9494V29.0323H15.4839V48.3871H36.8148C36.9939 48.8615 37.2406 49.3104 37.5572 49.705L38.0505 50.3226H13.5484V35.9477H11.6129V55.1613C11.6129 57.8292 13.7837 60 16.4516 60H56.129V54.3977C56.129 53.8231 56.2973 53.2664 56.6167 52.7873L59.1872 48.9319C59.7184 48.1343 60 47.2062 60 46.2484V31.9355C60 30.335 58.6972 29.0323 57.0968 29.0323ZM16.4516 1.93548H51.2903C52.8908 1.93548 54.1935 3.23825 54.1935 4.83871V7.74194H13.5484V4.83871C13.5484 3.23825 14.8512 1.93548 16.4516 1.93548ZM13.5484 9.67742H54.1935V27.2749C53.8897 27.1662 53.5665 27.0968 53.2258 27.0968C52.8851 27.0968 52.5619 27.1662 52.2581 27.2749V11.6129H15.4839V15.4839H13.5484V9.67742ZM17.4194 29.0323H20.3226C21.923 29.0323 23.2258 27.7295 23.2258 26.129V18.3871C23.2258 16.7866 21.923 15.4839 20.3226 15.4839H17.4194V13.5484H50.3226V25.3394C50.0187 25.2308 49.6955 25.1613 49.3548 25.1613C49.0141 25.1613 48.6909 25.2308 48.3871 25.3394V20.3226C48.3871 18.7221 47.0843 17.4194 45.4839 17.4194C43.8834 17.4194 42.5806 18.7221 42.5806 20.3226V31.4951C42.3359 31.3888 42.0821 31.2966 41.8189 31.2309L37.741 30.2107V29.7472C39.5456 28.4884 40.6452 26.4088 40.6452 24.1935V22.5019C40.6452 18.7424 37.6994 15.5963 34.0789 15.4867C32.2133 15.4423 30.4801 16.11 29.1542 17.3962C27.8273 18.6834 27.0968 20.4095 27.0968 22.2581V24.1935C27.0968 26.4078 28.1964 28.4874 30 29.7463V30.2107L25.923 31.2309C23.765 31.771 22.2581 33.7009 22.2581 35.9255V40.6452H35.3429L36.3815 46.4516H17.4194V29.0323ZM34.8387 37.0123V37.5491C34.8387 37.7353 34.8552 37.9201 34.8879 38.102L34.9965 38.7097H24.1935V35.9255C24.1935 34.5911 25.0984 33.4325 26.3922 33.1083L31.9355 31.7233V28.6585L31.4526 28.3792C29.9594 27.515 29.0323 25.9102 29.0323 24.1935V22.2581C29.0323 20.9383 29.5549 19.704 30.5023 18.785C31.4497 17.8664 32.6854 17.3678 34.0208 17.4222C36.606 17.4997 38.7097 19.7787 38.7097 22.5019V24.1935C38.7097 25.9112 37.7816 27.5159 36.2875 28.3811L35.8036 28.6608L35.8064 31.7233L41.3478 33.1083C41.8114 33.2255 42.2296 33.4537 42.5797 33.7684V41.2637C42.3397 41.0643 42.1615 40.7893 42.0812 40.4689L41.0265 36.2516C40.6782 34.8496 39.4237 33.871 37.9801 33.871C36.2478 33.871 34.8387 35.2801 34.8387 37.0123ZM16.4516 58.0645C14.8512 58.0645 13.5484 56.7617 13.5484 55.1613V52.2581H39.599L40.0082 52.7698C40.4198 53.283 40.6452 53.9275 40.6452 54.5834V58.0645H16.4516ZM58.0645 46.2475C58.0645 46.8221 57.8963 47.3787 57.5769 47.8579L55.0063 51.7132C54.4752 52.5118 54.1935 53.4399 54.1935 54.3977V58.0645H42.5806V54.5834C42.5806 53.4881 42.204 52.4149 41.5198 51.5601L39.0679 48.4953C38.7872 48.1461 38.5897 47.7289 38.5027 47.3234L36.7936 37.7613C36.7799 37.6904 36.7742 37.62 36.7742 37.5491V37.0123C36.7742 36.3475 37.3152 35.8064 37.9801 35.8064C38.5344 35.8064 39.0154 36.1821 39.1501 36.7189L40.2048 40.9362C40.588 42.4753 41.963 43.5484 43.5484 43.5484H44.5161V20.3226C44.5161 19.7886 44.9509 19.3548 45.4839 19.3548C46.0169 19.3548 46.4516 19.7886 46.4516 20.3226V39.6774H48.3871V28.0645C48.3871 27.5306 48.8218 27.0968 49.3548 27.0968C49.8879 27.0968 50.3226 27.5306 50.3226 28.0645V39.6774H52.2581V30C52.2581 29.466 52.6928 29.0323 53.2258 29.0323C53.7588 29.0323 54.1935 29.466 54.1935 30V39.6774H56.129V31.9355C56.129 31.4015 56.5638 30.9677 57.0968 30.9677C57.6298 30.9677 58.0645 31.4015 58.0645 31.9355V46.2475Z" fill="#034899"/>
<path d="M4 19H6V21H4V19Z" fill="#E6330F"/>
<path d="M8 19H20V21H8V19Z" fill="#E6330F"/>
<path d="M4 23H19V25H4V23Z" fill="#E6330F"/>
<path d="M19 43H21V45H19V43Z" fill="#034899"/>
<path d="M23 43H34V45H23V43Z" fill="#034899"/>
</svg>
