<svg width="60" height="60" viewBox="0 0 60 60" fill="none" xmlns="http://www.w3.org/2000/svg">
<path d="M57.0667 48.3111H55.2V15.8222C55.1989 14.8089 54.8052 13.8373 54.1053 13.1208C53.4054 12.4042 52.4565 12.0012 51.4667 12L43.44 12V13.9111L51.4667 13.9111C51.9616 13.9117 52.436 14.1133 52.786 14.4716C53.1359 14.8298 53.3327 15.3156 53.3333 15.8222V48.3111H41.2C41.0551 48.3111 40.9122 48.3457 40.7826 48.412L39.1129 49.2667H20.8871L19.2174 48.412C19.0878 48.3457 18.9449 48.3111 18.8 48.3111H6.66667V15.8222C6.66725 15.3156 6.86411 14.8298 7.21405 14.4716C7.56399 14.1133 8.03844 13.9117 8.53333 13.9111H39.7508V12H8.53333C7.54353 12.0012 6.59459 12.4042 5.8947 13.1208C5.1948 13.8373 4.80111 14.8089 4.8 15.8222V48.3111H2.93333C2.6858 48.3111 2.4484 48.4118 2.27337 48.591C2.09833 48.7702 2 49.0132 2 49.2667V51.1778C2.00111 52.1911 2.3948 53.1627 3.0947 53.8792C3.79459 54.5958 4.74353 54.9989 5.73333 55H54.2667C55.2565 54.9989 56.2054 54.5958 56.9053 53.8792C57.6052 53.1627 57.9989 52.1911 58 51.1778V49.2667C58 49.0132 57.9017 48.7702 57.7266 48.591C57.5516 48.4118 57.3142 48.3111 57.0667 48.3111ZM56.1333 51.1778C56.1327 51.6845 55.9359 52.1702 55.586 52.5285C55.236 52.8867 54.7616 53.0883 54.2667 53.0889H5.73333C5.23844 53.0883 4.76399 52.8867 4.41405 52.5285C4.06411 52.1702 3.86725 51.6845 3.86667 51.1778V50.2222H18.5796L20.2492 51.0769C20.3788 51.1432 20.5218 51.1778 20.6667 51.1778H39.3333C39.4782 51.1778 39.6212 51.1432 39.7508 51.0769L41.4204 50.2222H56.1333V51.1778Z" fill="#034899"/>
<path d="M52 48V17C52 16.7348 51.8946 16.4805 51.7071 16.2929C51.5196 16.1054 51.2652 16 51 16L43 16V18L50 18V24H41V26H50V48H52Z" fill="#034899"/>
<path d="M36.0645 24H9.93542V21V18H37.9999V16H8.96768C8.71102 16 8.46487 16.1054 8.28338 16.2929C8.1019 16.4804 7.99994 16.7348 7.99994 17V48H9.93542V26H36.0645V24Z" fill="#034899"/>
<path d="M45.5821 5.34621C45.2936 4.86705 44.8741 4.48703 44.3765 4.2542C43.8789 4.02136 43.3257 3.94618 42.7868 4.03815C42.2478 4.13013 41.7474 4.38513 41.3488 4.77091C40.9501 5.15669 40.6711 5.65592 40.5472 6.20547L33.024 39.5489C32.9966 39.6706 32.9926 39.7966 33.0124 39.9198C33.0321 40.0431 33.0752 40.1611 33.1391 40.2672L34.5142 42.5513C34.5781 42.6574 34.6616 42.7494 34.7598 42.8221C34.8581 42.8948 34.9693 42.9469 35.0871 42.9752C35.2048 43.0035 35.3268 43.0076 35.4461 42.9873C35.5654 42.9669 35.6796 42.9224 35.7823 42.8565L37.9934 41.4359C38.2006 41.3027 38.3482 41.0899 38.4036 40.8443L45.9267 7.50066C46.01 7.13586 46.0224 6.7576 45.9633 6.38779C45.9042 6.01797 45.7746 5.66395 45.5821 5.34621ZM42.7512 6.04546C42.9058 5.9461 43.0855 5.89633 43.2675 5.90245C43.4495 5.90858 43.6257 5.97032 43.7737 6.07987C43.9217 6.18942 44.035 6.34186 44.0991 6.5179C44.1633 6.69395 44.1755 6.8857 44.1341 7.06889L43.7156 8.92115L41.9223 8.48962L42.3403 6.63724C42.3674 6.51547 42.4177 6.40047 42.4881 6.29889C42.5585 6.19731 42.6478 6.11118 42.7507 6.04546H42.7512ZM43.2982 10.7738L42.8802 12.6263L41.087 12.1945L41.5049 10.342L43.2982 10.7738ZM36.6974 40.0288L35.5919 40.7391L34.9042 39.597L40.6696 14.0469L42.4628 14.4786L36.6974 40.0288Z" fill="#E6330F"/>
<path d="M15 29H17V31H15V29Z" fill="#034899"/>
<path d="M19 29H32V31H19V29Z" fill="#034899"/>
<path d="M13 32H29V34H13V32Z" fill="#034899"/>
<path d="M13 36H29V38H13V36Z" fill="#034899"/>
<path d="M17.8537 42.2295L18.4414 43.409C18.5459 43.6187 18.6937 43.8037 18.8749 43.9517C19.0561 44.0997 19.2666 44.2074 19.4924 44.2675C19.7183 44.3277 19.9543 44.339 20.1848 44.3006C20.4153 44.2623 20.6351 44.1752 20.8295 44.0452L22.3464 43.0305L23.4771 44.1648C23.6297 44.3188 23.8113 44.4409 24.0114 44.524C24.2114 44.6072 24.4259 44.6496 24.6424 44.649H30V42.7596H24.7399L23.5419 41.5574C23.2721 41.288 22.9177 41.1202 22.5388 41.0826C22.1599 41.0449 21.7797 41.1397 21.4624 41.3509L20.0064 42.3245L19.3034 40.9139C19.1613 40.6288 18.9401 40.391 18.6664 40.2291C18.3928 40.0672 18.0783 39.9882 17.7609 40.0014C17.4434 40.0147 17.1366 40.1197 16.8773 40.3039C16.618 40.4881 16.4173 40.7435 16.2993 41.0395L15 44.2983L16.7487 45L17.8537 42.2295Z" fill="#034899"/>
<path d="M32 43H34V45H32V43Z" fill="#034899"/>
<path d="M11 9H32V11H11V9Z" fill="#034899"/>
<path fill-rule="evenodd" clip-rule="evenodd" d="M14 22.0743V18H11V23L14 22.0743Z" fill="#F44336"/>
<path fill-rule="evenodd" clip-rule="evenodd" d="M12.3498 20.259C12.3498 20.259 12.2512 20.259 12.061 20.259C11.8709 20.259 11.5915 20.503 11.5915 21.0813C11.5915 21.5542 11.8099 21.7289 12.0258 21.7289C12.1479 21.7289 12.3498 21.4578 12.3498 21.1355V20.259ZM13 21.9066H12.3498V21.6867C12.2394 21.8163 12.007 22 11.7465 22C11.4883 22 11 21.7651 11 21.0723C11 20.3825 11.6244 20.0392 11.9859 20.0392C12.3474 20.0392 12.3498 20.0392 12.3498 20.0392C12.3498 19.7861 12.3498 19.7259 12.3498 19.5482C12.3498 19.3735 12.2512 19.2169 12.0751 19.2169C11.8967 19.2169 11.6807 19.3675 11.6807 19.753H11.162C11.162 19.497 11.2981 19 12.0798 19C12.8638 19 12.946 19.4518 12.946 19.6536C12.946 19.8584 12.946 21.5301 12.946 21.6265C12.946 21.7922 13 21.9066 13 21.9066Z" fill="white"/>
<path fill-rule="evenodd" clip-rule="evenodd" d="M18.4237 20.9359H18.0577V20.8974L18.0634 20.8622L18.0691 20.8301L18.0776 20.7981L18.0861 20.766L18.1002 20.7404L18.1144 20.7115L18.1315 20.6891L18.1513 20.6667L18.1684 20.6442L18.191 20.6282L18.2138 20.609L18.2365 20.5962L18.2591 20.5833L18.2875 20.5705L18.3131 20.5609L18.3386 20.5545L18.367 20.5481L18.3925 20.5449L18.4209 20.5417H18.4237L18.4464 20.5449L18.4748 20.5481L18.5003 20.5513L18.5287 20.5577L18.5543 20.5673L18.5798 20.5769L18.6025 20.5897L18.6252 20.6026L18.6507 20.6218L18.6706 20.6378L18.6905 20.6603L18.7075 20.6827L18.7273 20.7083L18.7415 20.734L18.7529 20.7628L18.7642 20.7917L18.7728 20.8269L18.7813 20.859L18.7841 20.8974L18.787 20.9359H18.4237ZM14.7917 19.0064H14V22H14.7917V19.0064ZM25.9943 20.5577L25.9887 20.5288L25.983 20.4968L25.9745 20.4712L25.9688 20.4423L25.9603 20.4167L25.9517 20.391L25.9404 20.3654L25.9319 20.3429L25.9206 20.3205L25.9092 20.2981L25.895 20.2756L25.8808 20.2564L25.8666 20.2404L25.8496 20.2212L25.8354 20.2019L25.8184 20.1859L25.8014 20.1699L25.7843 20.1538L25.7644 20.141L25.7475 20.125L25.7276 20.1122L25.7077 20.0994L25.6878 20.0833L25.668 20.0737L25.6453 20.0609L25.6226 20.0513L25.6028 20.0385L25.58 20.0288L25.5573 20.0192L25.5346 20.0096L25.5119 20L25.4864 19.9904L25.4608 19.984L25.4382 19.9776L25.4126 19.9679L25.3871 19.9615L25.3616 19.9551L25.336 19.9487L25.3105 19.9423L25.2821 19.9391L25.2537 19.9327L25.2282 19.9295L25.1998 19.9231L25.1743 19.9199L25.1459 19.9135L25.1175 19.9103L25.0863 19.9071H25.0579L25.0296 19.9038H25.0012L24.9757 19.9006H24.9473H24.916H24.8848H24.8536H24.8224H24.7912H24.76L24.7316 19.9038L24.7004 19.9071L24.6692 19.9103H24.638L24.6096 19.9135L24.5812 19.9199L24.5557 19.9231L24.5273 19.9295L24.5018 19.9327L24.4734 19.9391L24.4478 19.9423L24.4195 19.9487L24.3939 19.9551L24.3684 19.9615L24.3457 19.9712L24.3202 19.9776L24.2974 19.984L24.2719 19.9936L24.2492 20.0032L24.2237 20.0128L24.201 20.0224L24.1783 20.0321L24.1584 20.0417L24.1357 20.0545L24.113 20.0641L24.0932 20.0769L24.0704 20.0897L24.0534 20.1026L24.0335 20.1154L24.0137 20.1282L23.9938 20.141L23.974 20.1571L23.957 20.1731L23.9399 20.1859L23.9201 20.2019L23.9059 20.2212L23.8888 20.2372L23.8718 20.2532L23.8576 20.2692L23.8406 20.2885L23.8236 20.3077L23.8094 20.3237L23.7952 20.3462L23.781 20.3654L23.7697 20.3846L23.7555 20.4071L23.7441 20.4295L23.7299 20.4487L23.7186 20.4744L23.7073 20.4968L23.6987 20.5192L23.6902 20.5481L23.6789 20.5705L23.6732 20.5994L23.6647 20.625L23.6562 20.6538L23.6533 20.6827L23.6476 20.7115L23.6448 20.734L23.642 20.75L23.6392 20.8013H24.5159V20.7564L24.5188 20.7436L24.5244 20.7244L24.533 20.6987L24.5443 20.6731L24.5557 20.6538L24.5727 20.6346L24.5869 20.6186L24.6067 20.6026L24.6295 20.5929L24.6493 20.5833L24.6748 20.5737L24.7004 20.5641L24.7259 20.5577L24.7543 20.5545H24.7827L24.8139 20.5513L24.8423 20.5545H24.8735L24.899 20.5609L24.9245 20.5673L24.9501 20.5737L24.9728 20.5833L24.9955 20.5929L25.0154 20.6058L25.0352 20.6218L25.0494 20.6378L25.0636 20.6603L25.0721 20.6859L25.0778 20.7147V20.7436V20.7756L25.0693 20.8013L25.0579 20.8237L25.0409 20.8397L25.0239 20.8526L25.0012 20.8654L24.9784 20.875L24.9558 20.8846L24.9302 20.891L24.9047 20.8974L24.8792 20.9038L24.8508 20.9103L24.8252 20.9135L24.7146 20.9327L24.6039 20.9519L24.4933 20.9679L24.3854 20.9872L24.357 20.9904L24.3315 20.9968L24.3031 21.0032L24.2776 21.0064L24.2521 21.0128L24.2237 21.0192L24.1981 21.0256L24.1726 21.0321L24.1471 21.0385L24.1243 21.0481L24.0988 21.0545L24.0733 21.0609L24.0506 21.0705L24.0251 21.0801L24.0024 21.0865L23.9796 21.0962L23.9541 21.1058L23.9314 21.1154L23.9087 21.125L23.8888 21.1378L23.8662 21.1474L23.8435 21.1571L23.8236 21.1699L23.8038 21.1827L23.7839 21.1955L23.764 21.2115L23.7441 21.2244L23.7271 21.2372L23.7101 21.2532L23.6931 21.2724L23.676 21.2885L23.6618 21.3077L23.6476 21.3269L23.6335 21.3462L23.6193 21.3654L23.6079 21.3878L23.5966 21.4135L23.5881 21.4359L23.5768 21.4615L23.571 21.4872L23.5626 21.516L23.5569 21.5449L23.5512 21.5737L23.5455 21.6058L23.5427 21.6346L23.5398 21.6667V21.6955L23.5427 21.7244L23.5455 21.7532L23.5512 21.7788L23.5597 21.8077L23.5682 21.8301L23.5795 21.8558L23.5909 21.8782L23.6051 21.8974L23.6193 21.9167L23.6363 21.9327L23.6533 21.9487L23.6703 21.9647L23.6902 21.9776L23.7129 21.9872L23.7384 21.9936L23.764 21.9968L23.7924 22H24.6493L24.6067 21.9679L24.5982 21.9583L24.5869 21.9423L24.5756 21.9263L24.5614 21.9038L24.55 21.8846L24.5386 21.859L24.5301 21.8301L24.5244 21.8013V21.7724L24.5301 21.7436L24.5358 21.7147L24.5443 21.6923L24.5557 21.6699L24.5727 21.6506L24.5869 21.6346L24.6039 21.6154L24.6238 21.6026L24.6437 21.5897L24.6635 21.5769L24.6862 21.5673L24.7089 21.5577L24.8054 21.5224L24.899 21.4872L24.9217 21.4776L24.9473 21.4712L24.97 21.4615L24.9955 21.4519L25.0182 21.4423L25.0352 21.4359L25.0466 21.4327L25.0607 21.4295L25.0863 21.4135V22H26V20.6571V20.625L25.9971 20.5897L25.9943 20.5577ZM16.48 19H15.5607V19.9519H15.1889V20.5962H15.5607V21.4647V21.4936V21.5256V21.5545L15.5635 21.5833L15.5663 21.609L15.5692 21.6346L15.5748 21.6603L15.5805 21.6859L15.5862 21.7083L15.5919 21.7308L15.6004 21.7532L15.6089 21.7756L15.6202 21.7949L15.6288 21.8141L15.6401 21.8301L15.6515 21.8494L15.6656 21.8622L15.677 21.8782L15.6912 21.8942L15.7054 21.9103L15.7196 21.9231L15.7366 21.9327L15.7536 21.9455L15.7763 21.9519L15.7962 21.9583L15.816 21.9679L15.8359 21.9744L15.8614 21.9776L15.8841 21.9808L15.9097 21.984L15.9324 21.9872H15.9579L15.9863 21.9904H16.48V20.5962H17.0078V19.9519H16.48V19ZM21.5138 19.9359L21.4911 19.9295L21.4712 19.9231L21.4514 19.9167L21.4287 19.9135L21.4088 19.9103L21.3861 19.9071L21.3635 19.9038H21.3407H21.3209H21.2981L21.2783 19.9071L21.2556 19.9103L21.2357 19.9135L21.2131 19.9199L21.196 19.9231L21.1762 19.9295L21.1563 19.9359L21.1392 19.9423L21.1223 19.9487L21.1024 19.9551L21.0853 19.9647L21.0684 19.9744L21.0513 19.984L21.0343 19.9936L21.0172 20.0064L21.0002 20.016L20.9861 20.0288L20.969 20.0417L20.9548 20.0545L20.9378 20.0673L20.9264 20.0833L20.9122 20.0994L20.8981 20.1122L20.8839 20.1282L20.8725 20.1442L20.8583 20.1603L20.847 20.1795L20.8356 20.1955V19.9519H19.9901V22H20.9208V20.984V20.9551L20.9236 20.9263L20.9264 20.9006L20.9321 20.8782L20.9378 20.8526L20.9463 20.8301L20.9548 20.8077L20.9634 20.7885L20.9719 20.7692L20.9832 20.75L20.9974 20.734L21.0087 20.7179L21.0229 20.7051L21.0371 20.6891L21.0513 20.6763L21.0684 20.6667L21.0853 20.6538L21.1024 20.6442L21.1223 20.6346L21.1421 20.625L21.162 20.6186L21.1847 20.6122L21.2045 20.6058L21.2301 20.6026L21.2528 20.5994L21.2783 20.5962H21.5535V19.9519L21.5337 19.9423L21.5138 19.9359ZM23.3696 19.9359L23.3497 19.9295L23.3299 19.9231L23.3072 19.9167L23.2873 19.9135L23.2646 19.9103L23.2447 19.9071L23.222 19.9038H23.1993H23.1794H23.1568L23.1341 19.9071L23.1142 19.9103L23.0915 19.9135L23.0716 19.9199L23.0518 19.9231L23.0319 19.9295L23.0149 19.9359L22.995 19.9423L22.978 19.9487L22.961 19.9551L22.9411 19.9647L22.9241 19.9744L22.9071 19.984L22.89 19.9936L22.8758 20.0064L22.8588 20.016L22.8418 20.0288L22.8248 20.0417L22.8106 20.0545L22.7964 20.0673L22.7822 20.0833L22.768 20.0994L22.7538 20.1122L22.7396 20.1282L22.7283 20.1442L22.7169 20.1603L22.7028 20.1795L22.6914 20.1955L22.6943 19.9519H21.8486V22H22.7766V20.984V20.9551L22.7794 20.9263L22.7851 20.9006L22.7907 20.8782L22.7964 20.8526L22.8021 20.8301L22.8106 20.8077L22.8191 20.7885L22.8304 20.7692L22.8418 20.75L22.8532 20.734L22.8645 20.7179L22.8787 20.7051L22.8929 20.6891L22.9099 20.6763L22.9269 20.6667L22.9411 20.6538L22.961 20.6442L22.978 20.6346L22.9979 20.625L23.0177 20.6186L23.0404 20.6122L23.0631 20.6058L23.0858 20.6026L23.1113 20.5994L23.1341 20.5962H23.4122V19.9519L23.3895 19.9423L23.3696 19.9359ZM19.6978 21.1314V21.1026L19.695 21.0769V21.0513L19.6893 21.0224L19.6864 20.9968L19.6836 20.9679L19.6779 20.9391L19.6722 20.9135L19.6694 20.8814L19.6637 20.8526L19.658 20.8269L19.6524 20.7981L19.6439 20.7692L19.6354 20.7404L19.6269 20.7147L19.6183 20.6859L19.6098 20.6571L19.6013 20.6314L19.59 20.6026L19.5814 20.5801L19.5701 20.5545L19.5588 20.5321L19.5474 20.5064L19.5361 20.484L19.5219 20.4615L19.5077 20.4391L19.4964 20.4167L19.4822 20.3974L19.4651 20.375L19.4509 20.3558L19.4367 20.3333L19.4197 20.3141L19.4027 20.2949L19.3857 20.2756L19.3686 20.2564L19.3516 20.2404L19.3346 20.2212L19.3147 20.2051L19.2949 20.1891L19.2778 20.1699L19.258 20.1538L19.2381 20.141L19.2154 20.125L19.1984 20.1122L19.1757 20.0994L19.1558 20.0833L19.1331 20.0705L19.1132 20.0577L19.0906 20.0481L19.0679 20.0353L19.048 20.0256L19.0253 20.016L19.0026 20.0064L18.9799 19.9968L18.9572 19.9872L18.9345 19.9808L18.909 19.9744L18.8862 19.9679L18.8636 19.9615L18.8409 19.9551L18.8153 19.9487L18.7926 19.9455L18.7671 19.9391L18.7415 19.9359L18.716 19.9295L18.6905 19.9231L18.6649 19.9199L18.6394 19.9167L18.6139 19.9135L18.5883 19.9103L18.5628 19.9071L18.5372 19.9038H18.5089L18.4861 19.9006H18.4578H18.4322H18.4237H18.4067H18.3812H18.3556L18.3301 19.9038H18.3046L18.279 19.9071L18.2535 19.9103L18.2251 19.9135L18.1996 19.9167L18.1741 19.9199L18.1513 19.9231L18.1258 19.9295L18.0974 19.9359L18.0747 19.9423L18.0492 19.9487L18.0236 19.9551L17.9981 19.9615L17.9726 19.9712L17.947 19.9776L17.9215 19.9872L17.8988 19.9968L17.8732 20.0064L17.8506 20.016L17.825 20.0256L17.8023 20.0385L17.7767 20.0513L17.7541 20.0641L17.7285 20.0737L17.7058 20.0897L17.6832 20.1026L17.6604 20.1154L17.6377 20.1282L17.6151 20.1442L17.5923 20.1603L17.5696 20.1731L17.5498 20.1891L17.5271 20.2051L17.5072 20.2244L17.4873 20.2404L17.4703 20.2596L17.4533 20.2756L17.4363 20.2949L17.4192 20.3141L17.405 20.3333L17.3881 20.3558L17.3739 20.375L17.3568 20.3974L17.3455 20.4167L17.3284 20.4391L17.3171 20.4615L17.3029 20.484L17.2916 20.5064L17.2802 20.5321L17.2689 20.5545L17.2575 20.5801L17.2461 20.6026L17.2376 20.6282L17.2263 20.6506L17.2178 20.6763L17.2093 20.7019L17.2008 20.7244L17.1951 20.75L17.1866 20.7756L17.1809 20.8013L17.1752 20.8269L17.1695 20.8526L17.1638 20.8782L17.161 20.9071L17.1582 20.9327L17.1525 20.9615L17.1497 20.9872L17.1469 21.016V21.0417L17.144 21.0705L17.1412 21.0962V21.125V21.1506V21.1795V21.2083L17.144 21.234L17.1469 21.2628V21.2885L17.1525 21.3173L17.1553 21.3429L17.1582 21.3718L17.1638 21.4006L17.1667 21.4263L17.1752 21.4519L17.1809 21.4776L17.1866 21.5064L17.1951 21.532L17.2008 21.5577L17.2093 21.5833L17.2178 21.609L17.2263 21.6346L17.2376 21.6603L17.2461 21.6859L17.2575 21.7115L17.2689 21.734L17.2802 21.7596L17.2916 21.782L17.3029 21.8077L17.3171 21.8301L17.3284 21.8558L17.3455 21.875L17.3568 21.8974L17.3739 21.9199L17.3881 21.9423L17.4022 21.9647L17.4192 21.9872H18.0804V21.4615H18.4237H19.6722L19.6779 21.4327L19.6836 21.407L19.6864 21.3814L19.6893 21.3526L19.6921 21.3237L19.695 21.2981L19.6978 21.2692V21.2436L19.7006 21.2147V21.1859V21.1603L19.6978 21.1314Z" fill="#034899"/>
<path fill-rule="evenodd" clip-rule="evenodd" d="M25.8743 22.7887V22.6408H25.9943V22.7887H25.8743ZM25.9 22.588L25.8686 22.1937V22.0141H26V22.1937L25.9686 22.588H25.9ZM25.6171 22.5211C25.6028 22.5246 25.5771 22.5317 25.5456 22.5422C25.5113 22.5493 25.4913 22.5599 25.4799 22.5669C25.4656 22.581 25.457 22.5986 25.457 22.6197C25.457 22.6408 25.4627 22.6585 25.4742 22.6725C25.4884 22.6866 25.5027 22.6972 25.5228 22.6972C25.5456 22.6972 25.5657 22.6866 25.5856 22.669C25.5999 22.6549 25.6085 22.6408 25.6142 22.6197C25.6171 22.6092 25.6171 22.5845 25.6171 22.5493V22.5211ZM25.457 22.4014L25.3484 22.3768C25.3599 22.3204 25.3827 22.2817 25.4113 22.2535C25.4428 22.2254 25.4856 22.2148 25.5456 22.2148C25.5999 22.2148 25.6371 22.2218 25.6656 22.2394C25.6914 22.2535 25.7085 22.2746 25.7199 22.2993C25.7314 22.3204 25.7371 22.3662 25.7371 22.4296L25.7342 22.6021C25.7342 22.6514 25.7371 22.6866 25.74 22.7113C25.7428 22.7359 25.7514 22.7606 25.7628 22.7887H25.6428C25.6399 22.7782 25.6342 22.7641 25.6314 22.743C25.6285 22.7359 25.6285 22.7289 25.6256 22.7254C25.6057 22.7535 25.5828 22.7711 25.5628 22.7817C25.5371 22.7958 25.5142 22.8028 25.4856 22.8028C25.4399 22.8028 25.4027 22.7852 25.377 22.7535C25.3513 22.7218 25.337 22.6831 25.337 22.6338C25.337 22.6056 25.3427 22.5739 25.3541 22.5493C25.3656 22.5282 25.3827 22.507 25.4056 22.493C25.4285 22.4789 25.4599 22.4683 25.5027 22.4613C25.557 22.4472 25.597 22.4331 25.6171 22.4225V22.4084C25.6171 22.3803 25.6113 22.3592 25.5999 22.3451C25.5885 22.3345 25.5685 22.3275 25.5371 22.3275C25.5142 22.3275 25.4971 22.3345 25.4856 22.3451C25.4742 22.3556 25.4656 22.3732 25.457 22.4014ZM24.8854 22.2254H25.297V22.3451H25.1513V22.7887H25.0312V22.3451H24.8854V22.2254ZM24.4053 22.2254H24.5254V22.4331H24.6997V22.2254H24.8197V22.7887H24.6997V22.5528H24.5254V22.7887H24.4053V22.2254ZM23.9709 22.507C23.9709 22.5634 23.9824 22.6056 24.0053 22.6338C24.0252 22.6655 24.051 22.6796 24.0824 22.6796C24.1139 22.6796 24.1396 22.6655 24.1624 22.6338C24.1825 22.6056 24.1939 22.5634 24.1939 22.507C24.1939 22.4507 24.1825 22.4084 24.1624 22.3803C24.1396 22.3521 24.1139 22.3345 24.0824 22.3345C24.051 22.3345 24.0252 22.3521 24.0053 22.3803C23.9824 22.4084 23.9709 22.4542 23.9709 22.507ZM23.8481 22.5C23.8481 22.4507 23.8595 22.4049 23.8766 22.3556C23.8995 22.3099 23.9252 22.2746 23.9624 22.2535C23.9967 22.2254 24.0395 22.2148 24.0824 22.2148C24.151 22.2148 24.2082 22.243 24.2511 22.2993C24.2939 22.3521 24.3168 22.4225 24.3168 22.507C24.3168 22.5915 24.2939 22.662 24.2511 22.7183C24.2053 22.7746 24.151 22.8028 24.0824 22.8028C24.0424 22.8028 24.0024 22.7887 23.9653 22.7676C23.9252 22.743 23.8995 22.7077 23.8766 22.662C23.8595 22.6197 23.8481 22.5634 23.8481 22.5ZM23.245 22.2254H23.3937L23.5051 22.6162L23.6195 22.2254H23.768V22.7887H23.6652V22.419L23.5566 22.7887H23.4537L23.348 22.419V22.7887H23.245V22.2254ZM23.0365 22.4613C23.0336 22.4155 23.025 22.3838 23.0079 22.3627C22.9907 22.3415 22.9707 22.3275 22.9479 22.3275C22.9193 22.3275 22.8993 22.3415 22.8821 22.3627C22.865 22.3873 22.8564 22.419 22.8564 22.4613H23.0365ZM23.0279 22.6092L23.1479 22.6338C23.1336 22.6866 23.1079 22.7289 23.0765 22.7606C23.0422 22.7852 23.0022 22.8028 22.9507 22.8028C22.8707 22.8028 22.8136 22.7711 22.7764 22.7042C22.745 22.6549 22.7307 22.588 22.7307 22.5141C22.7307 22.419 22.7507 22.3451 22.7907 22.2923C22.8279 22.2394 22.8793 22.2148 22.9393 22.2148C23.005 22.2148 23.0593 22.243 23.0993 22.2993C23.1365 22.3521 23.1565 22.4366 23.1536 22.5493H22.8536C22.8536 22.5951 22.865 22.6268 22.8821 22.6549C22.9021 22.6761 22.925 22.6901 22.9507 22.6901C22.9707 22.6901 22.985 22.6831 22.9993 22.669C23.0136 22.6585 23.0222 22.6373 23.0279 22.6092ZM22.3448 22.5C22.3448 22.5599 22.3563 22.6056 22.3763 22.6373C22.3963 22.669 22.422 22.6831 22.4506 22.6831C22.4791 22.6831 22.5021 22.669 22.5192 22.6408C22.5392 22.6127 22.5477 22.5669 22.5477 22.507C22.5477 22.4472 22.5363 22.4014 22.5192 22.3732C22.4992 22.3451 22.4763 22.331 22.4478 22.331C22.4192 22.331 22.3935 22.3451 22.3763 22.3732C22.3563 22.4014 22.3448 22.4437 22.3448 22.5ZM22.2277 22.2254H22.3391V22.3099C22.3534 22.2817 22.3734 22.2606 22.3991 22.2394C22.4249 22.2218 22.4506 22.2148 22.482 22.2148C22.5334 22.2148 22.5792 22.2394 22.6163 22.2923C22.6535 22.3415 22.6706 22.412 22.6706 22.5035C22.6706 22.5986 22.6535 22.6725 22.6163 22.7218C22.5792 22.7746 22.5334 22.8028 22.482 22.8028C22.4563 22.8028 22.4335 22.7958 22.4106 22.7817C22.3906 22.7711 22.3706 22.75 22.3477 22.7183V23H22.2277V22.2254ZM21.4475 22.2254H21.5618V22.5775L21.7476 22.2254H21.8647V22.7887H21.7504V22.4296L21.5618 22.7887H21.4475V22.2254ZM20.6673 22.2254H20.7816V22.5775L20.9674 22.2254H21.0845V22.7887H20.9703V22.4296L20.7816 22.7887H20.6673V22.2254ZM20.2272 22.2254H20.3472V22.4542C20.3673 22.4542 20.3816 22.4472 20.3901 22.4331C20.3987 22.419 20.4073 22.3944 20.4187 22.3521C20.433 22.2993 20.4501 22.2641 20.4701 22.2465C20.4873 22.2324 20.513 22.2218 20.5416 22.2218C20.5501 22.2218 20.5673 22.2254 20.5901 22.2254V22.3239C20.5587 22.3239 20.5358 22.3275 20.5302 22.3345C20.5215 22.3415 20.5101 22.3662 20.4987 22.4049C20.4873 22.4542 20.4672 22.4859 20.4387 22.5C20.4787 22.5141 20.5101 22.5528 20.5358 22.6197C20.5358 22.6268 20.5387 22.6268 20.5416 22.6338L20.6073 22.7887H20.4787L20.4187 22.6232C20.4073 22.5915 20.3958 22.5704 20.3872 22.5599C20.3787 22.5528 20.3644 22.5458 20.3472 22.5458V22.7887H20.2272V22.2254ZM19.9786 22H20.0357C20.0329 22.0493 20.0186 22.088 19.9957 22.1127C19.97 22.1408 19.9414 22.1549 19.9043 22.1549C19.8643 22.1549 19.8329 22.1408 19.81 22.1127C19.7871 22.088 19.7728 22.0493 19.7699 22H19.8271C19.83 22.0246 19.8385 22.0458 19.85 22.0563C19.8614 22.0704 19.8785 22.0775 19.9043 22.0775C19.9243 22.0775 19.9443 22.0704 19.9557 22.0563C19.9672 22.0458 19.9757 22.0246 19.9786 22ZM19.6928 22.2254H19.8071V22.5775L19.99 22.2254H20.11V22.7887H19.9929V22.4296L19.8071 22.7887H19.6928V22.2254ZM19.2555 22.507C19.2555 22.5634 19.267 22.6056 19.287 22.6338C19.3098 22.6655 19.3356 22.6796 19.367 22.6796C19.3984 22.6796 19.4242 22.6655 19.4441 22.6338C19.467 22.6056 19.4756 22.5634 19.4756 22.507C19.4756 22.4507 19.467 22.4084 19.4441 22.3803C19.4242 22.3521 19.3984 22.3345 19.367 22.3345C19.3356 22.3345 19.3098 22.3521 19.287 22.3803C19.267 22.4084 19.2555 22.4542 19.2555 22.507ZM19.1327 22.5C19.1327 22.4507 19.1412 22.4049 19.1613 22.3556C19.1812 22.3099 19.2098 22.2746 19.2441 22.2535C19.2813 22.2254 19.3213 22.2148 19.367 22.2148C19.4356 22.2148 19.4899 22.243 19.5356 22.2993C19.5785 22.3521 19.6014 22.4225 19.6014 22.507C19.6014 22.5915 19.5785 22.662 19.5356 22.7183C19.4899 22.7746 19.4327 22.8028 19.367 22.8028C19.3241 22.8028 19.287 22.7887 19.247 22.7676C19.2098 22.743 19.1812 22.7077 19.1613 22.662C19.1412 22.6197 19.1327 22.5634 19.1327 22.5ZM18.7411 22.5C18.7411 22.5599 18.7497 22.6056 18.7725 22.6373C18.7926 22.669 18.8154 22.6831 18.844 22.6831C18.8726 22.6831 18.8954 22.669 18.9126 22.6408C18.9326 22.6127 18.9412 22.5669 18.9412 22.507C18.9412 22.4472 18.9326 22.4014 18.9126 22.3732C18.8954 22.3451 18.8697 22.331 18.8411 22.331C18.8126 22.331 18.7897 22.3451 18.7697 22.3732C18.7497 22.4014 18.7411 22.4437 18.7411 22.5ZM18.624 22.2254H18.7354V22.3099C18.7497 22.2817 18.7697 22.2606 18.7926 22.2394C18.8183 22.2218 18.8469 22.2148 18.8755 22.2148C18.9298 22.2148 18.9726 22.2394 19.0098 22.2923C19.0469 22.3415 19.0641 22.412 19.0641 22.5035C19.0641 22.5986 19.0469 22.6725 19.0098 22.7218C18.9726 22.7746 18.9269 22.8028 18.8755 22.8028C18.8498 22.8028 18.8268 22.7958 18.8069 22.7817C18.7868 22.7711 18.764 22.75 18.7411 22.7183V23H18.624V22.2254ZM18.1438 22.2254H18.5554V22.3451H18.4096V22.7887H18.2896V22.3451H18.1438V22.2254ZM18.1067 22.3944L17.9895 22.419C17.9838 22.3908 17.9753 22.3697 17.961 22.3521C17.9467 22.338 17.9295 22.331 17.9067 22.331C17.8781 22.331 17.8524 22.3451 17.8352 22.3697C17.8181 22.3944 17.8095 22.4366 17.8095 22.4965C17.8095 22.5634 17.8181 22.6127 17.8352 22.6373C17.8524 22.6655 17.8781 22.6796 17.9095 22.6796C17.9324 22.6796 17.9495 22.6725 17.9638 22.6549C17.9781 22.6408 17.9895 22.6127 17.9952 22.5739L18.1124 22.5986C18.101 22.6655 18.0781 22.7148 18.041 22.75C18.0095 22.7852 17.961 22.8028 17.9038 22.8028C17.8352 22.8028 17.7838 22.7746 17.7438 22.7218C17.7037 22.6725 17.6838 22.5986 17.6838 22.507C17.6838 22.4155 17.7037 22.3451 17.7438 22.2923C17.7838 22.2394 17.8381 22.2148 17.9067 22.2148C17.961 22.2148 18.0038 22.2289 18.0352 22.2606C18.0696 22.2887 18.0924 22.3345 18.1067 22.3944ZM17.2265 22.3204H17.1408C17.1093 22.3204 17.0865 22.3275 17.075 22.338C17.0607 22.3486 17.055 22.3662 17.055 22.3944C17.055 22.419 17.0607 22.4401 17.0779 22.4507C17.0922 22.4613 17.115 22.4683 17.1493 22.4683H17.2265V22.3204ZM17.3465 22.2254V22.7887H17.2265V22.5528H17.2179C17.1893 22.5528 17.1722 22.5599 17.1579 22.5669C17.1465 22.5739 17.1322 22.5951 17.1179 22.6197L17.1122 22.6303L17.0322 22.7887H16.8921L16.9779 22.6232C17.0036 22.5775 17.0236 22.5528 17.0436 22.5458C17.0121 22.5422 16.9836 22.5282 16.9636 22.4965C16.9407 22.4683 16.9293 22.4331 16.9293 22.3873C16.9293 22.3486 16.9378 22.3204 16.9521 22.2923C16.9664 22.2676 16.9836 22.25 17.0064 22.2394C17.0293 22.2324 17.0665 22.2254 17.1093 22.2254H17.3465ZM16.4349 22.2254H16.835V22.7887H16.7149V22.3451H16.552V22.5986C16.552 22.662 16.5463 22.7077 16.5349 22.7324C16.5235 22.7606 16.5092 22.7782 16.4949 22.7852C16.4806 22.7923 16.4577 22.7958 16.4234 22.7958C16.4063 22.7958 16.3806 22.7923 16.3491 22.7887V22.6796C16.352 22.6796 16.3577 22.6796 16.3691 22.6796C16.3806 22.6796 16.392 22.6796 16.3977 22.6796C16.4149 22.6796 16.4234 22.6725 16.4292 22.662C16.432 22.6479 16.4349 22.6127 16.4349 22.5528V22.2254ZM16.1519 22.6655V22.3486H16.0062C16.0005 22.5035 15.9805 22.6092 15.9462 22.6655H16.1519ZM16.2205 22.7887H15.8776V22.9331H15.7804V22.6655H15.829C15.849 22.6373 15.8662 22.5951 15.8805 22.5352C15.8947 22.4753 15.9005 22.3732 15.9033 22.2254H16.2691V22.6655H16.3177V22.9331H16.2205V22.7887ZM15.3346 22.1549V22.0246H15.4375V22.1549H15.3346ZM15.1488 22.1549V22.0246H15.2546V22.1549H15.1488ZM15.386 22.4613C15.386 22.4155 15.3775 22.3838 15.3603 22.3627C15.3432 22.3415 15.3232 22.3275 15.2975 22.3275C15.2717 22.3275 15.2489 22.3415 15.2317 22.3627C15.2146 22.3873 15.206 22.419 15.206 22.4613H15.386ZM15.3803 22.6092L15.5004 22.6338C15.4832 22.6866 15.4604 22.7289 15.4261 22.7606C15.3918 22.7852 15.3518 22.8028 15.3003 22.8028C15.2232 22.8028 15.166 22.7711 15.126 22.7042C15.0974 22.6549 15.0831 22.588 15.0831 22.5141C15.0831 22.419 15.1003 22.3451 15.1403 22.2923C15.1803 22.2394 15.2289 22.2148 15.2889 22.2148C15.3575 22.2148 15.4089 22.243 15.4489 22.2993C15.4889 22.3521 15.5061 22.4366 15.5061 22.5493H15.206C15.206 22.5951 15.2146 22.6268 15.2346 22.6549C15.2517 22.6761 15.2746 22.6901 15.3032 22.6901C15.3232 22.6901 15.3375 22.6831 15.3489 22.669C15.3632 22.6585 15.3718 22.6373 15.3803 22.6092ZM15.026 22.3944L14.9059 22.419C14.9031 22.3908 14.8945 22.3697 14.8802 22.3521C14.8659 22.338 14.8488 22.331 14.8259 22.331C14.7945 22.331 14.7716 22.3451 14.7545 22.3697C14.7373 22.3944 14.7259 22.4366 14.7259 22.4965C14.7259 22.5634 14.7373 22.6127 14.7545 22.6373C14.7716 22.6655 14.7973 22.6796 14.8259 22.6796C14.8488 22.6796 14.8688 22.6725 14.8831 22.6549C14.8974 22.6408 14.9088 22.6127 14.9145 22.5739L15.0317 22.5986C15.0202 22.6655 14.9974 22.7148 14.9602 22.75C14.9259 22.7852 14.8802 22.8028 14.8202 22.8028C14.7545 22.8028 14.703 22.7746 14.663 22.7218C14.623 22.6725 14.603 22.5986 14.603 22.507C14.603 22.4155 14.623 22.3451 14.663 22.2923C14.703 22.2394 14.7573 22.2148 14.8231 22.2148C14.8774 22.2148 14.9231 22.2289 14.9545 22.2606C14.9888 22.2887 15.0117 22.3345 15.026 22.3944ZM14.1257 22.4507V22.6549H14.2429C14.2886 22.6549 14.3172 22.6549 14.3315 22.6514C14.3487 22.6479 14.3629 22.6373 14.3772 22.6197C14.3887 22.6056 14.3944 22.581 14.3944 22.5528C14.3944 22.5317 14.3887 22.5106 14.3801 22.4965C14.3715 22.4789 14.3572 22.4683 14.3401 22.4613C14.3229 22.4542 14.2858 22.4507 14.2286 22.4507H14.1257ZM14.1257 22.1408V22.3204H14.2086C14.2572 22.3204 14.2886 22.3204 14.3001 22.3169C14.3229 22.3134 14.3401 22.3063 14.3515 22.2923C14.3629 22.2746 14.3687 22.257 14.3687 22.2289C14.3687 22.2077 14.3658 22.1866 14.3544 22.1725C14.3429 22.1584 14.3287 22.1479 14.3058 22.1444C14.2944 22.1444 14.2572 22.1408 14.2 22.1408H14.1257ZM14 22.0141H14.2515C14.3001 22.0141 14.3372 22.0176 14.3601 22.0211C14.3858 22.0246 14.4087 22.0387 14.4258 22.0528C14.4458 22.0704 14.4601 22.0915 14.4744 22.1162C14.4887 22.1444 14.4944 22.1725 14.4944 22.2077C14.4944 22.243 14.4858 22.2782 14.4687 22.3063C14.4544 22.338 14.4344 22.3592 14.4058 22.3768C14.443 22.3908 14.4715 22.412 14.4944 22.4472C14.5144 22.4789 14.523 22.5176 14.523 22.5634C14.523 22.5986 14.5173 22.6303 14.5058 22.6655C14.4915 22.6972 14.4715 22.7254 14.4515 22.7465C14.4258 22.7641 14.4001 22.7782 14.3658 22.7817C14.3429 22.7852 14.2944 22.7852 14.2115 22.7887H14V22.0141Z" fill="#034899"/>
</svg>
