<svg width="60" height="60" viewBox="0 0 60 60" fill="none" xmlns="http://www.w3.org/2000/svg">
<path d="M22.5 18C15.6075 18 10 23.6075 10 30.5C10 37.3925 15.6075 43 22.5 43C29.3925 43 35 37.3925 35 30.5C35 23.6075 29.3926 18 22.5 18ZM22.5 41.1884C16.6064 41.1884 11.8116 36.3936 11.8116 30.5C11.8116 24.6064 16.6064 19.8116 22.5 19.8116C28.3936 19.8116 33.1884 24.6064 33.1884 30.5C33.1884 36.3936 28.3937 41.1884 22.5 41.1884Z" fill="#034899"/>
<path d="M59.0909 42.3743C58.5888 42.3743 58.1818 42.7844 58.1818 43.2903V48.2367H44.4848V31.0735C44.4848 28.1846 43.9578 25.368 42.9533 22.74L43.8304 21.8562C44.7222 20.9577 44.9178 19.5453 44.3062 18.4216C41.9918 14.1689 38.5377 10.6885 34.3172 8.35654C33.2019 7.74025 31.8002 7.93738 30.9085 8.83592L30.1019 9.64861C27.7282 8.72246 25.1943 8.2189 22.5876 8.17908C16.5144 8.08492 10.8062 10.4165 6.51465 14.7407C2.22313 19.0648 -0.0894715 24.8164 0.00264976 30.936C0.0919831 36.8709 2.52629 42.4333 6.85696 46.5985C11.149 50.7266 16.784 53 22.7241 53H41.6364C43.207 53 44.4848 51.7125 44.4848 50.1298V50.0688H59.0909C59.593 50.0688 60 49.6586 60 49.1528V43.2903C60 42.7844 59.593 42.3743 59.0909 42.3743ZM32.1941 10.1313C32.5181 9.80494 33.0315 9.73545 33.443 9.96286C37.3593 12.1267 40.5644 15.3562 42.712 19.3024C42.9376 19.7169 42.8688 20.2343 42.5448 20.5607L42.1747 20.9337C41.147 18.8088 39.7904 16.8362 38.1319 15.0854C36.2947 13.1461 34.183 11.5852 31.8873 10.4404L32.1941 10.1313ZM42.6667 50.1298C42.6667 50.7023 42.2045 51.168 41.6364 51.168H22.7241C11.366 51.168 1.98883 42.0794 1.82059 30.9083C1.73598 25.2886 3.85962 20.007 7.80035 16.0361C11.6656 12.1415 16.7819 10.0084 22.2393 10.0084C22.3459 10.0084 22.4532 10.0093 22.56 10.0109C33.6469 10.1804 42.6667 19.6291 42.6667 31.0735V50.1298Z" fill="#034899"/>
<path d="M27.6058 14.9173C28.3121 15.1885 29.0078 15.5156 29.674 15.8896C29.8074 15.9645 29.95 16 30.0905 16C30.4194 16 30.7369 15.8054 30.8984 15.4661C31.1288 14.9819 30.9542 14.3867 30.5084 14.1365C29.7686 13.7211 28.9959 13.3579 28.2116 13.0567C27.7384 12.875 27.2195 13.1443 27.0522 13.6581C26.8849 14.1719 27.1328 14.7356 27.6058 14.9173Z" fill="#034899"/>
<path d="M33.5101 15.1928C33.1007 14.881 32.5122 14.9552 32.1957 15.3585C31.8793 15.7619 31.9545 16.3417 32.3639 16.6536C34.401 18.2053 36.0816 20.2227 37.2238 22.4874C37.3876 22.812 37.719 23 38.0636 23C38.2036 23 38.3459 22.969 38.4798 22.9034C38.9432 22.6764 39.1322 22.1223 38.9019 21.6658C37.6343 19.1525 35.7699 16.9143 33.5101 15.1928Z" fill="#034899"/>
<path d="M28.6456 24.9259C28.2193 25.1724 28.0734 25.7178 28.3198 26.1441C28.9066 27.1592 29.2168 28.3196 29.2168 29.5C29.2168 33.2036 26.2036 36.2168 22.5 36.2168C18.7964 36.2168 15.7832 33.2036 15.7832 29.5C15.7832 25.7964 18.7964 22.7832 22.5 22.7832C24.044 22.7832 25.4954 23.2924 26.6973 24.2558C27.0817 24.5638 27.6428 24.5019 27.9507 24.1178C28.2587 23.7336 28.1969 23.1724 27.8127 22.8644C26.3128 21.6622 24.426 21 22.5 21C17.8131 21 14 24.8131 14 29.5C14 34.1869 17.8131 38 22.5 38C27.1869 38 31 34.1869 31 29.5C31 28.0067 30.6071 26.5378 29.8636 25.2518C29.6173 24.8251 29.0719 24.6795 28.6456 24.9259Z" fill="#E6330F"/>
</svg>
