<svg width="60" height="60" viewBox="0 0 60 60" fill="none" xmlns="http://www.w3.org/2000/svg">
<path d="M58 44V42.1333H53.3333C53.0858 42.1333 52.8484 42.2316 52.6734 42.4067C52.4983 42.5817 52.4 42.8191 52.4 43.0666V44H50.9198L48.28 41.36C47.9342 41.0123 47.5228 40.7366 47.0696 40.5489C46.6165 40.3612 46.1307 40.2653 45.6402 40.2666H43.0667V7.6H44.9333V5.73333H41.2V2.93333C41.2 2.6858 41.1017 2.4484 40.9266 2.27337C40.7516 2.09833 40.5142 2 40.2667 2H19.7333C19.4858 2 19.2484 2.09833 19.0734 2.27337C18.8983 2.4484 18.8 2.6858 18.8 2.93333V5.73333H15.0667V7.6H16.9333V40.2666H14.3598C13.8693 40.2653 13.3835 40.3612 12.9304 40.5489C12.4772 40.7366 12.0658 41.0123 11.72 41.36L9.08015 44H7.6V43.0666C7.6 42.8191 7.50167 42.5817 7.32663 42.4067C7.1516 42.2316 6.9142 42.1333 6.66667 42.1333H2V44H5.73333V55.2H2V57.0666H6.66667C6.9142 57.0666 7.1516 56.9683 7.32663 56.7933C7.50167 56.6182 7.6 56.3808 7.6 56.1333V55.2H9.09018C11.0267 57.0062 13.5783 58.0074 16.2264 58H21.6C22.4274 57.9989 23.2312 57.7235 23.8854 57.2168C24.5395 56.7102 25.0072 56.0008 25.2152 55.2H34.7849C34.9928 56.0008 35.4605 56.7102 36.1146 57.2168C36.7688 57.7235 37.5726 57.9989 38.4 58H43.7735C46.4217 58.0074 48.9733 57.0062 50.9098 55.2H52.4V56.1333C52.4 56.3808 52.4983 56.6182 52.6734 56.7933C52.8484 56.9683 53.0858 57.0666 53.3333 57.0666H58V55.2H54.2667V44H58ZM20.6667 3.86667H39.3333V5.73333H20.6667V3.86667ZM23.4667 54.2666C23.4661 54.7615 23.2692 55.236 22.9193 55.5859C22.5693 55.9359 22.0949 56.1327 21.6 56.1333H16.2264C15.0932 56.1364 13.9705 55.9147 12.9235 55.481C11.8764 55.0473 10.9258 54.4102 10.1266 53.6066C10.04 53.52 9.93709 53.4512 9.82385 53.4043C9.71061 53.3574 9.58924 53.3333 9.46667 53.3333H7.6V45.8666H9.46667C9.58924 45.8666 9.71061 45.8425 9.82385 45.7956C9.93709 45.7487 10.04 45.68 10.1266 45.5933L13.0398 42.6801C13.2127 42.5062 13.4184 42.3683 13.645 42.2745C13.8716 42.1806 14.1145 42.1326 14.3598 42.1333H16.9333V44H15.0667V45.8666H21.6C22.0949 45.8672 22.5693 46.0641 22.9193 46.414C23.2692 46.764 23.4661 47.2384 23.4667 47.7333V54.2666ZM25.3333 51.4666H34.6667V53.3333H25.3333V51.4666ZM34.6667 47.7333V49.6H25.3333V47.7333C25.3322 46.7435 24.9385 45.7946 24.2386 45.0947C23.5387 44.3948 22.5898 44.0011 21.6 44H18.8V7.6H41.2V44H38.4C37.4102 44.0011 36.4613 44.3948 35.7614 45.0947C35.0615 45.7946 34.6678 46.7435 34.6667 47.7333ZM50.5333 53.3333C50.4108 53.3333 50.2894 53.3574 50.1762 53.4043C50.0629 53.4512 49.96 53.52 49.8733 53.6066C49.0742 54.4102 48.1236 55.0473 47.0765 55.481C46.0295 55.9147 44.9068 56.1364 43.7735 56.1333H38.4C37.9051 56.1327 37.4307 55.9359 37.0807 55.5859C36.7308 55.236 36.5339 54.7615 36.5333 54.2666V47.7333C36.5339 47.2384 36.7308 46.764 37.0807 46.414C37.4307 46.0641 37.9051 45.8672 38.4 45.8666H44.9333V44H43.0667V42.1333H45.6402C45.8855 42.1326 46.1284 42.1806 46.355 42.2745C46.5816 42.3683 46.7873 42.5062 46.9602 42.6801L49.8733 45.5933C49.96 45.68 50.0629 45.7487 50.1762 45.7956C50.2894 45.8425 50.4108 45.8666 50.5333 45.8666H52.4V53.3333H50.5333Z" fill="#034899"/>
<path d="M22 10H26V12H22V10Z" fill="#034899"/>
<path d="M28 10H32V12H28V10Z" fill="#034899"/>
<path d="M35 10H39V12H35V10Z" fill="#034899"/>
<path d="M22 14H26V16H22V14Z" fill="#034899"/>
<path d="M28 14H32V16H28V14Z" fill="#034899"/>
<path d="M35 14H39V16H35V14Z" fill="#034899"/>
<path d="M22 18H26V20H22V18Z" fill="#034899"/>
<path d="M28 18H32V20H28V18Z" fill="#034899"/>
<path d="M35 18H39V20H35V18Z" fill="#034899"/>
<path d="M22 22H26V24H22V22Z" fill="#034899"/>
<path d="M28 22H32V24H28V22Z" fill="#034899"/>
<path d="M35 22H39V24H35V22Z" fill="#034899"/>
<path d="M22 25H26V27H22V25Z" fill="#034899"/>
<path d="M28 25H32V27H28V25Z" fill="#034899"/>
<path d="M35 25H39V27H35V25Z" fill="#034899"/>
<path d="M22 29H26V31H22V29Z" fill="#034899"/>
<path d="M28 29H32V31H28V29Z" fill="#034899"/>
<path d="M35 29H39V31H35V29Z" fill="#034899"/>
<path d="M22 33H26V35H22V33Z" fill="#034899"/>
<path d="M28 33H32V35H28V33Z" fill="#034899"/>
<path d="M35 33H39V35H35V33Z" fill="#034899"/>
<path d="M22 37H26V39H22V37Z" fill="#034899"/>
<path d="M28 37H32V39H28V37Z" fill="#034899"/>
<path d="M35 37H39V39H35V37Z" fill="#034899"/>
<path d="M24 42H25.8333V45H27.6667V42H31.3333V45H33.1667V42H35V40H24V42Z" fill="#E6330F"/>
<path d="M45 12H47V30H45V12Z" fill="#034899"/>
<path d="M13 23H15V38H13V23Z" fill="#034899"/>
</svg>
