<svg width="60" height="60" viewBox="0 0 60 60" fill="none" xmlns="http://www.w3.org/2000/svg">
<path d="M51.1207 31.2819L53.9848 15.5325C54.0095 15.3967 54.004 15.2572 53.9688 15.1238C53.9336 14.9903 53.8695 14.8662 53.7811 14.7603C53.6926 14.6544 53.582 14.5691 53.457 14.5107C53.3319 14.4522 53.1956 14.4219 53.0576 14.4219H14.2671L12.9761 7.32109C12.858 6.6696 12.5148 6.0803 12.0063 5.65608C11.4979 5.23185 10.8567 4.99964 10.1945 5H5.94231C5.69239 5 5.45271 5.09927 5.27599 5.27596C5.09928 5.45266 5 5.69231 5 5.94219C5 6.19208 5.09928 6.43173 5.27599 6.60842C5.45271 6.78512 5.69239 6.88438 5.94231 6.88438H10.1945C10.4152 6.88426 10.6289 6.96164 10.7984 7.10301C10.9678 7.24439 11.0823 7.44079 11.1217 7.65792L17.6896 43.7759C16.7658 44.4486 16.0675 45.3853 15.6869 46.4627C15.3062 47.5401 15.2609 48.7076 15.557 49.8112C15.8532 50.9148 16.4768 51.9028 17.3457 52.645C18.2146 53.3872 19.2881 53.8487 20.4245 53.9687C21.561 54.0887 22.7072 53.8616 23.712 53.3173C24.7168 52.773 25.5331 51.937 26.0533 50.9196C26.5734 49.9022 26.7731 48.7511 26.6259 47.6179C26.4787 46.4848 25.9916 45.4228 25.2287 44.572H41.3096C40.4473 45.5365 39.9421 46.7678 39.8784 48.06C39.8148 49.3522 40.1967 50.6271 40.9602 51.6716C41.7236 52.7161 42.8225 53.467 44.0732 53.7988C45.3238 54.1306 46.6504 54.0232 47.8314 53.4946C49.0124 52.9659 49.9761 52.048 50.5616 50.8943C51.1471 49.7406 51.3188 48.4209 51.0481 47.1557C50.7774 45.8906 50.0807 44.7567 49.0744 43.9434C48.068 43.1302 46.8131 42.6869 45.5191 42.6876H19.4069L18.0363 35.1501H46.4855C47.5889 35.1505 48.6575 34.7634 49.5046 34.0565C50.3518 33.3495 50.9237 32.3675 51.1207 31.2819ZM24.7884 48.3408C24.7884 49.0862 24.5674 49.8148 24.1532 50.4346C23.739 51.0544 23.1504 51.5374 22.4616 51.8227C21.7729 52.1079 21.015 52.1826 20.2839 52.0371C19.5527 51.8917 18.8811 51.5328 18.354 51.0057C17.8268 50.4786 17.4678 49.8071 17.3224 49.076C17.177 48.345 17.2516 47.5872 17.5369 46.8985C17.8222 46.2099 18.3053 45.6213 18.9251 45.2072C19.545 44.7931 20.2737 44.572 21.0192 44.572C22.0185 44.5731 22.9766 44.9706 23.6832 45.6771C24.3898 46.3836 24.7873 47.3416 24.7884 48.3408ZM49.2884 48.3408C49.2884 49.0862 49.0673 49.8148 48.6531 50.4346C48.239 51.0544 47.6503 51.5374 46.9616 51.8227C46.2728 52.1079 45.515 52.1826 44.7838 52.0371C44.0527 51.8917 43.381 51.5328 42.8539 51.0057C42.3268 50.4786 41.9678 49.8071 41.8223 49.076C41.6769 48.345 41.7516 47.5872 42.0368 46.8985C42.3221 46.2099 42.8052 45.6213 43.4251 45.2072C44.0449 44.7931 44.7737 44.572 45.5191 44.572C46.5185 44.5731 47.4765 44.9706 48.1831 45.6771C48.8898 46.3836 49.2872 47.3416 49.2884 48.3408ZM14.6099 16.3063H51.9285L49.2665 30.9449C49.1483 31.5962 48.8052 32.1854 48.2969 32.6096C47.7886 33.0337 47.1475 33.266 46.4855 33.2657H17.6938L14.6099 16.3063Z" fill="#034899"/>
</svg>
