<svg width="60" height="60" viewBox="0 0 60 60" fill="none" xmlns="http://www.w3.org/2000/svg">
<path d="M53.3871 21.5593H44.9677V18.7651H47.7742C48.0223 18.7651 48.2602 18.6669 48.4357 18.4923C48.6111 18.3176 48.7097 18.0807 48.7097 17.8337V15.0395C48.7097 14.7925 48.6111 14.5556 48.4357 14.3809C48.2602 14.2062 48.0223 14.1081 47.7742 14.1081V5.25988C47.7732 4.3956 47.428 3.56699 46.8141 2.95585C46.2003 2.34471 45.3681 2.00096 44.5 2H15.5C14.6319 2.00096 13.7997 2.34471 13.1859 2.95585C12.572 3.56699 12.2268 4.3956 12.2258 5.25988V14.1081C11.9777 14.1081 11.7398 14.2062 11.5643 14.3809C11.3889 14.5556 11.2903 14.7925 11.2903 15.0395V17.8337C11.2903 18.0807 11.3889 18.3176 11.5643 18.4923C11.7398 18.6669 11.9777 18.7651 12.2258 18.7651H15.0323V21.5593H6.6129C5.12475 21.5608 3.69801 22.1501 2.64573 23.1978C1.59344 24.2455 1.00158 25.666 1 27.1476V53.2266C1 53.4736 1.09856 53.7105 1.274 53.8852C1.44943 54.0599 1.68738 54.158 1.93548 54.158H2.87097V57.0686C2.87097 57.3156 2.96953 57.5525 3.14496 57.7272C3.3204 57.9019 3.55835 58 3.80645 58H56.1936C56.4417 58 56.6796 57.9019 56.855 57.7272C57.0305 57.5525 57.129 57.3156 57.129 57.0686V54.158H58.0645C58.3126 54.158 58.5506 54.0599 58.726 53.8852C58.9014 53.7105 59 53.4736 59 53.2266V27.1476C58.9984 25.666 58.4066 24.2455 57.3543 23.1978C56.302 22.1501 54.8752 21.5608 53.3871 21.5593ZM14.0968 5.25988C14.0971 4.88944 14.245 4.53426 14.5081 4.27232C14.7712 4.01039 15.1279 3.86309 15.5 3.86279H44.5C44.8721 3.86309 45.2288 4.01039 45.4919 4.27232C45.755 4.53426 45.9029 4.88944 45.9032 5.25988V14.1081H44.9677V8.51975C44.9677 8.27273 44.8692 8.03583 44.6937 7.86116C44.5183 7.68649 44.2804 7.58836 44.0323 7.58836C43.7842 7.58836 43.5462 7.68649 43.3708 7.86116C43.1953 8.03583 43.0968 8.27273 43.0968 8.51975V14.1081H40.2903V8.51975C40.2903 8.27273 40.1918 8.03583 40.0163 7.86116C39.8409 7.68649 39.6029 7.58836 39.3548 7.58836C39.1067 7.58836 38.8688 7.68649 38.6934 7.86116C38.5179 8.03583 38.4194 8.27273 38.4194 8.51975V14.1081H35.6129V8.51975C35.6129 8.27273 35.5143 8.03583 35.3389 7.86116C35.1635 7.68649 34.9255 7.58836 34.6774 7.58836C34.4293 7.58836 34.1914 7.68649 34.0159 7.86116C33.8405 8.03583 33.7419 8.27273 33.7419 8.51975V14.1081H30.9355V8.51975C30.9355 8.27273 30.8369 8.03583 30.6615 7.86116C30.486 7.68649 30.2481 7.58836 30 7.58836C29.7519 7.58836 29.514 7.68649 29.3385 7.86116C29.1631 8.03583 29.0645 8.27273 29.0645 8.51975V14.1081H26.2581V8.51975C26.2581 8.27273 26.1595 8.03583 25.9841 7.86116C25.8086 7.68649 25.5707 7.58836 25.3226 7.58836C25.0745 7.58836 24.8365 7.68649 24.6611 7.86116C24.4857 8.03583 24.3871 8.27273 24.3871 8.51975V14.1081H21.5806V8.51975C21.5806 8.27273 21.4821 8.03583 21.3066 7.86116C21.1312 7.68649 20.8933 7.58836 20.6452 7.58836C20.3971 7.58836 20.1591 7.68649 19.9837 7.86116C19.8082 8.03583 19.7097 8.27273 19.7097 8.51975V14.1081H16.9032V8.51975C16.9032 8.27273 16.8047 8.03583 16.6292 7.86116C16.4538 7.68649 16.2158 7.58836 15.9677 7.58836C15.7196 7.58836 15.4817 7.68649 15.3063 7.86116C15.1308 8.03583 15.0323 8.27273 15.0323 8.51975V14.1081H14.0968V5.25988ZM13.1613 16.9023V15.9709H46.8387V16.9023H13.1613ZM43.0968 18.7651V21.5593H16.9032V18.7651H43.0968ZM55.2581 56.1372H4.74194V54.158H55.2581V56.1372ZM57.129 52.2952H2.87097V27.1476C2.87208 26.1599 3.26668 25.2129 3.96819 24.5145C4.66969 23.816 5.62082 23.4231 6.6129 23.422H53.3871C54.3792 23.4231 55.3303 23.816 56.0318 24.5145C56.7333 25.2129 57.1279 26.1599 57.129 27.1476V52.2952Z" fill="#034899"/>
<path d="M50.0652 25H8.93478C8.68686 25 8.4491 25.0978 8.27379 25.272C8.09849 25.4461 8 25.6823 8 25.9286V50.0714C8 50.3177 8.09849 50.5539 8.27379 50.728C8.4491 50.9022 8.68686 51 8.93478 51H50.0652C50.3131 51 50.5509 50.9022 50.7262 50.728C50.9015 50.5539 51 50.3177 51 50.0714V25.9286C51 25.6823 50.9015 25.4461 50.7262 25.272C50.5509 25.0978 50.3131 25 50.0652 25ZM49.1304 49.1429H9.86957V26.8571H49.1304V49.1429Z" fill="#034899"/>
<path d="M22.9444 43H38.0556C38.306 43 38.5463 42.8946 38.7234 42.7071C38.9005 42.5196 39 42.2652 39 42C39 41.7348 38.9005 41.4804 38.7234 41.2929C38.5463 41.1054 38.306 41 38.0556 41H22.9444C22.694 41 22.4537 41.1054 22.2766 41.2929C22.0995 41.4804 22 41.7348 22 42C22 42.2652 22.0995 42.5196 22.2766 42.7071C22.4537 42.8946 22.694 43 22.9444 43Z" fill="#034899"/>
<path d="M32 44H28C27.7348 44 27.4804 44.1054 27.2929 44.2929C27.1054 44.4804 27 44.7348 27 45C27 45.2652 27.1054 45.5196 27.2929 45.7071C27.4804 45.8946 27.7348 46 28 46H32C32.2652 46 32.5196 45.8946 32.7071 45.7071C32.8946 45.5196 33 45.2652 33 45C33 44.7348 32.8946 44.4804 32.7071 44.2929C32.5196 44.1054 32.2652 44 32 44Z" fill="#034899"/>
<path d="M30 40C31.0605 39.9989 32.0772 39.6193 32.8271 38.9444C33.577 38.2695 33.9988 37.3544 34 36.4C34 34.6527 31.2875 31.8437 30.7443 31.2989C30.6505 31.2048 30.5357 31.1296 30.4075 31.0781C30.2793 31.0266 30.1404 31 30 31C29.8596 31 29.7207 31.0266 29.5925 31.0781C29.4643 31.1296 29.3495 31.2048 29.2558 31.2989C29.2236 31.3311 28.4608 32.0984 27.6881 33.0651C26.5521 34.4875 26 35.5776 26 36.4C26.0012 37.3544 26.423 38.2695 27.1729 38.9444C27.9228 39.6193 28.9395 39.9989 30 40ZM30 33.2894C31.2525 34.6901 32 35.9358 32 36.4C32 36.8774 31.7893 37.3352 31.4142 37.6728C31.0391 38.0104 30.5304 38.2 30 38.2C29.4696 38.2 28.9609 38.0104 28.5858 37.6728C28.2107 37.3352 28 36.8774 28 36.4C28 35.9358 28.7476 34.69 30 33.2894Z" fill="#E6330F"/>
</svg>
