<svg width="15" height="12" viewBox="0 0 15 12" fill="none" xmlns="http://www.w3.org/2000/svg">
<path fill-rule="evenodd" clip-rule="evenodd" d="M12.6515 0.401444C12.9087 0.145214 13.2559 0.00100945 13.618 5.27951e-06C13.9801 -0.000998889 14.3281 0.141278 14.5866 0.396078C14.8452 0.650878 14.9936 0.997727 14.9998 1.36164C15.006 1.72555 14.8694 2.07728 14.6196 2.34078L7.28382 11.5573C7.15774 11.6938 7.00557 11.8033 6.83641 11.8793C6.66726 11.9553 6.48458 11.9963 6.29931 11.9998C6.11404 12.0032 5.92998 11.9691 5.75814 11.8994C5.5863 11.8297 5.4302 11.7259 5.29918 11.5942L0.438657 6.70707C0.303248 6.58025 0.19464 6.42732 0.119312 6.2574C0.0439845 6.08748 0.00347955 5.90405 0.000214487 5.71805C-0.00305058 5.53205 0.0309912 5.3473 0.100308 5.17481C0.169626 5.00232 0.272798 4.84564 0.403672 4.7141C0.534545 4.58256 0.690438 4.47886 0.862051 4.40919C1.03366 4.33952 1.21748 4.3053 1.40253 4.30858C1.58759 4.31186 1.77009 4.35258 1.93915 4.42829C2.10821 4.504 2.26037 4.61316 2.38654 4.74926L6.23453 8.61501L12.6166 0.442079C12.628 0.427771 12.6403 0.414199 12.6534 0.401444H12.6515Z" fill="#034899"/>
</svg>
